G04 (created by PCBNEW (2013-04-19 BZR 4011)-stable) date 9/19/2013 12:32:27 AM*
%MOIN*%
G04 Gerber Fmt 3.4, Leading zero omitted, Abs format*
%FSLAX34Y34*%
G01*
G70*
G90*
G04 APERTURE LIST*
%ADD10C,0.00393701*%
%ADD11C,0.00787402*%
%ADD12C,0.012*%
%ADD13C,0.00590551*%
%ADD14C,0.005*%
%ADD15C,0.01*%
%ADD16C,0.006*%
%ADD17C,0.008*%
%ADD18C,0.0107*%
G04 APERTURE END LIST*
G54D10*
G54D11*
X86220Y-45275D02*
X94094Y-45275D01*
X86220Y-33464D02*
X86220Y-53149D01*
X82283Y-53149D02*
X82283Y-33464D01*
X78346Y-33464D02*
X78346Y-53149D01*
G54D12*
X83251Y-35145D02*
X83251Y-34145D01*
X83251Y-34145D02*
X85251Y-34145D01*
X85251Y-34145D02*
X85251Y-35145D01*
X85251Y-35145D02*
X83251Y-35145D01*
G54D13*
X83622Y-36968D02*
X83622Y-35866D01*
X83622Y-35866D02*
X84881Y-35866D01*
X84881Y-35866D02*
X84881Y-36968D01*
X84881Y-36968D02*
X83622Y-36968D01*
X83622Y-39133D02*
X83622Y-38031D01*
X83622Y-38031D02*
X84881Y-38031D01*
X84881Y-38031D02*
X84881Y-39133D01*
X84881Y-39133D02*
X83622Y-39133D01*
X83622Y-41299D02*
X83622Y-40196D01*
X83622Y-40196D02*
X84881Y-40196D01*
X84881Y-40196D02*
X84881Y-41299D01*
X84881Y-41299D02*
X83622Y-41299D01*
X83622Y-43464D02*
X83622Y-42362D01*
X83622Y-42362D02*
X84881Y-42362D01*
X84881Y-42362D02*
X84881Y-43464D01*
X84881Y-43464D02*
X83622Y-43464D01*
X83622Y-45629D02*
X83622Y-44527D01*
X83622Y-44527D02*
X84881Y-44527D01*
X84881Y-44527D02*
X84881Y-45629D01*
X84881Y-45629D02*
X83622Y-45629D01*
X83622Y-47795D02*
X83622Y-46692D01*
X83622Y-46692D02*
X84881Y-46692D01*
X84881Y-46692D02*
X84881Y-47795D01*
X84881Y-47795D02*
X83622Y-47795D01*
X83622Y-49960D02*
X83622Y-48858D01*
X83622Y-48858D02*
X84881Y-48858D01*
X84881Y-48858D02*
X84881Y-49960D01*
X84881Y-49960D02*
X83622Y-49960D01*
X83622Y-52125D02*
X83622Y-51023D01*
X83622Y-51023D02*
X84881Y-51023D01*
X84881Y-51023D02*
X84881Y-52125D01*
X84881Y-52125D02*
X83622Y-52125D01*
G54D12*
X79314Y-35145D02*
X79314Y-34145D01*
X79314Y-34145D02*
X81314Y-34145D01*
X81314Y-34145D02*
X81314Y-35145D01*
X81314Y-35145D02*
X79314Y-35145D01*
G54D13*
X79685Y-36968D02*
X79685Y-35866D01*
X79685Y-35866D02*
X80944Y-35866D01*
X80944Y-35866D02*
X80944Y-36968D01*
X80944Y-36968D02*
X79685Y-36968D01*
X79685Y-39133D02*
X79685Y-38031D01*
X79685Y-38031D02*
X80944Y-38031D01*
X80944Y-38031D02*
X80944Y-39133D01*
X80944Y-39133D02*
X79685Y-39133D01*
X79685Y-41299D02*
X79685Y-40196D01*
X79685Y-40196D02*
X80944Y-40196D01*
X80944Y-40196D02*
X80944Y-41299D01*
X80944Y-41299D02*
X79685Y-41299D01*
X79685Y-43464D02*
X79685Y-42362D01*
X79685Y-42362D02*
X80944Y-42362D01*
X80944Y-42362D02*
X80944Y-43464D01*
X80944Y-43464D02*
X79685Y-43464D01*
X79685Y-45629D02*
X79685Y-44527D01*
X79685Y-44527D02*
X80944Y-44527D01*
X80944Y-44527D02*
X80944Y-45629D01*
X80944Y-45629D02*
X79685Y-45629D01*
X79685Y-47795D02*
X79685Y-46692D01*
X79685Y-46692D02*
X80944Y-46692D01*
X80944Y-46692D02*
X80944Y-47795D01*
X80944Y-47795D02*
X79685Y-47795D01*
X79685Y-49960D02*
X79685Y-48858D01*
X79685Y-48858D02*
X80944Y-48858D01*
X80944Y-48858D02*
X80944Y-49960D01*
X80944Y-49960D02*
X79685Y-49960D01*
X79685Y-52125D02*
X79685Y-51023D01*
X79685Y-51023D02*
X80944Y-51023D01*
X80944Y-51023D02*
X80944Y-52125D01*
X80944Y-52125D02*
X79685Y-52125D01*
G54D12*
X75377Y-35145D02*
X75377Y-34145D01*
X75377Y-34145D02*
X77377Y-34145D01*
X77377Y-34145D02*
X77377Y-35145D01*
X77377Y-35145D02*
X75377Y-35145D01*
G54D13*
X75748Y-36968D02*
X75748Y-35866D01*
X75748Y-35866D02*
X77007Y-35866D01*
X77007Y-35866D02*
X77007Y-36968D01*
X77007Y-36968D02*
X75748Y-36968D01*
X75748Y-39133D02*
X75748Y-38031D01*
X75748Y-38031D02*
X77007Y-38031D01*
X77007Y-38031D02*
X77007Y-39133D01*
X77007Y-39133D02*
X75748Y-39133D01*
X75748Y-41299D02*
X75748Y-40196D01*
X75748Y-40196D02*
X77007Y-40196D01*
X77007Y-40196D02*
X77007Y-41299D01*
X77007Y-41299D02*
X75748Y-41299D01*
X75748Y-43464D02*
X75748Y-42362D01*
X75748Y-42362D02*
X77007Y-42362D01*
X77007Y-42362D02*
X77007Y-43464D01*
X77007Y-43464D02*
X75748Y-43464D01*
X75748Y-45629D02*
X75748Y-44527D01*
X75748Y-44527D02*
X77007Y-44527D01*
X77007Y-44527D02*
X77007Y-45629D01*
X77007Y-45629D02*
X75748Y-45629D01*
X75748Y-47795D02*
X75748Y-46692D01*
X75748Y-46692D02*
X77007Y-46692D01*
X77007Y-46692D02*
X77007Y-47795D01*
X77007Y-47795D02*
X75748Y-47795D01*
X75748Y-49960D02*
X75748Y-48858D01*
X75748Y-48858D02*
X77007Y-48858D01*
X77007Y-48858D02*
X77007Y-49960D01*
X77007Y-49960D02*
X75748Y-49960D01*
X75748Y-52125D02*
X75748Y-51023D01*
X75748Y-51023D02*
X77007Y-51023D01*
X77007Y-51023D02*
X77007Y-52125D01*
X77007Y-52125D02*
X75748Y-52125D01*
G54D14*
X89188Y-49212D02*
G75*
G03X89188Y-49212I-1000J0D01*
G74*
G01*
X86688Y-50712D02*
X86688Y-47712D01*
X86688Y-47712D02*
X89688Y-47712D01*
X89688Y-47712D02*
X89688Y-50712D01*
X86688Y-50712D02*
X89688Y-50712D01*
G54D12*
X87157Y-46562D02*
X87157Y-45562D01*
X87157Y-45562D02*
X93157Y-45562D01*
X93157Y-45562D02*
X93157Y-46562D01*
X93157Y-46562D02*
X87157Y-46562D01*
X88157Y-46562D02*
X88157Y-45562D01*
X89157Y-52862D02*
X89157Y-51862D01*
X89157Y-51862D02*
X91157Y-51862D01*
X91157Y-51862D02*
X91157Y-52862D01*
X91157Y-52862D02*
X89157Y-52862D01*
G54D15*
X92232Y-47212D02*
X92232Y-47712D01*
X92232Y-47712D02*
X91232Y-47712D01*
X91232Y-47712D02*
X91232Y-47212D01*
X92732Y-47212D02*
X92732Y-51212D01*
X92732Y-51212D02*
X90732Y-51212D01*
X90732Y-51212D02*
X90732Y-47212D01*
X90732Y-47212D02*
X92732Y-47212D01*
G54D12*
X91539Y-51862D02*
X93519Y-51862D01*
X93519Y-51862D02*
X93519Y-52862D01*
X93519Y-52862D02*
X91519Y-52862D01*
X91519Y-52862D02*
X91519Y-51862D01*
X91519Y-52112D02*
X91769Y-51862D01*
G54D16*
X93807Y-43618D02*
X92807Y-43618D01*
X92807Y-43618D02*
X92807Y-41618D01*
X92807Y-41618D02*
X93807Y-41618D01*
X93807Y-41618D02*
X93807Y-43618D01*
X93807Y-41452D02*
X92807Y-41452D01*
X92807Y-41452D02*
X92807Y-39452D01*
X92807Y-39452D02*
X93807Y-39452D01*
X93807Y-39452D02*
X93807Y-41452D01*
X93807Y-39287D02*
X92807Y-39287D01*
X92807Y-39287D02*
X92807Y-37287D01*
X92807Y-37287D02*
X93807Y-37287D01*
X93807Y-37287D02*
X93807Y-39287D01*
X93807Y-37122D02*
X92807Y-37122D01*
X92807Y-37122D02*
X92807Y-35122D01*
X92807Y-35122D02*
X93807Y-35122D01*
X93807Y-35122D02*
X93807Y-37122D01*
X86507Y-35122D02*
X87507Y-35122D01*
X87507Y-35122D02*
X87507Y-37122D01*
X87507Y-37122D02*
X86507Y-37122D01*
X86507Y-37122D02*
X86507Y-35122D01*
X86507Y-37287D02*
X87507Y-37287D01*
X87507Y-37287D02*
X87507Y-39287D01*
X87507Y-39287D02*
X86507Y-39287D01*
X86507Y-39287D02*
X86507Y-37287D01*
X86507Y-39452D02*
X87507Y-39452D01*
X87507Y-39452D02*
X87507Y-41452D01*
X87507Y-41452D02*
X86507Y-41452D01*
X86507Y-41452D02*
X86507Y-39452D01*
X86507Y-41618D02*
X87507Y-41618D01*
X87507Y-41618D02*
X87507Y-43618D01*
X87507Y-43618D02*
X86507Y-43618D01*
X86507Y-43618D02*
X86507Y-41618D01*
G54D12*
X87157Y-44988D02*
X87157Y-43988D01*
X87157Y-43988D02*
X93157Y-43988D01*
X93157Y-43988D02*
X93157Y-44988D01*
X93157Y-44988D02*
X87157Y-44988D01*
X88157Y-44988D02*
X88157Y-43988D01*
X87157Y-34751D02*
X87157Y-33751D01*
X87157Y-33751D02*
X93157Y-33751D01*
X93157Y-33751D02*
X93157Y-34751D01*
X93157Y-34751D02*
X87157Y-34751D01*
X88157Y-34751D02*
X88157Y-33751D01*
X90260Y-42019D02*
X92240Y-42019D01*
X92240Y-42019D02*
X92240Y-43019D01*
X92240Y-43019D02*
X90240Y-43019D01*
X90240Y-43019D02*
X90240Y-42019D01*
X90240Y-42269D02*
X90490Y-42019D01*
G54D14*
X91607Y-36870D02*
X88707Y-36870D01*
X88707Y-41870D02*
X91607Y-41870D01*
X91607Y-36870D02*
X91607Y-41870D01*
X88707Y-41870D02*
X88707Y-36870D01*
X89907Y-41870D02*
X89907Y-41370D01*
X89907Y-41370D02*
X90407Y-41370D01*
X90407Y-41370D02*
X90407Y-41870D01*
G54D13*
X85368Y-34884D02*
X85368Y-34294D01*
X85503Y-34294D01*
X85537Y-34322D01*
X85553Y-34350D01*
X85570Y-34406D01*
X85570Y-34491D01*
X85553Y-34547D01*
X85537Y-34575D01*
X85503Y-34603D01*
X85368Y-34603D01*
X85908Y-34884D02*
X85705Y-34884D01*
X85807Y-34884D02*
X85807Y-34294D01*
X85773Y-34378D01*
X85739Y-34434D01*
X85705Y-34462D01*
X85887Y-36707D02*
X85494Y-36707D01*
X85494Y-36614D01*
X85512Y-36557D01*
X85550Y-36520D01*
X85587Y-36501D01*
X85662Y-36482D01*
X85718Y-36482D01*
X85793Y-36501D01*
X85831Y-36520D01*
X85868Y-36557D01*
X85887Y-36614D01*
X85887Y-36707D01*
X85887Y-36107D02*
X85887Y-36332D01*
X85887Y-36220D02*
X85494Y-36220D01*
X85550Y-36257D01*
X85587Y-36295D01*
X85606Y-36332D01*
X85887Y-38873D02*
X85494Y-38873D01*
X85494Y-38779D01*
X85512Y-38723D01*
X85550Y-38685D01*
X85587Y-38667D01*
X85662Y-38648D01*
X85718Y-38648D01*
X85793Y-38667D01*
X85831Y-38685D01*
X85868Y-38723D01*
X85887Y-38779D01*
X85887Y-38873D01*
X85531Y-38498D02*
X85512Y-38479D01*
X85494Y-38442D01*
X85494Y-38348D01*
X85512Y-38310D01*
X85531Y-38292D01*
X85568Y-38273D01*
X85606Y-38273D01*
X85662Y-38292D01*
X85887Y-38517D01*
X85887Y-38273D01*
X85887Y-41038D02*
X85494Y-41038D01*
X85494Y-40944D01*
X85512Y-40888D01*
X85550Y-40851D01*
X85587Y-40832D01*
X85662Y-40813D01*
X85718Y-40813D01*
X85793Y-40832D01*
X85831Y-40851D01*
X85868Y-40888D01*
X85887Y-40944D01*
X85887Y-41038D01*
X85494Y-40682D02*
X85494Y-40438D01*
X85643Y-40569D01*
X85643Y-40513D01*
X85662Y-40476D01*
X85681Y-40457D01*
X85718Y-40438D01*
X85812Y-40438D01*
X85850Y-40457D01*
X85868Y-40476D01*
X85887Y-40513D01*
X85887Y-40626D01*
X85868Y-40663D01*
X85850Y-40682D01*
X85887Y-43203D02*
X85494Y-43203D01*
X85494Y-43110D01*
X85512Y-43053D01*
X85550Y-43016D01*
X85587Y-42997D01*
X85662Y-42979D01*
X85718Y-42979D01*
X85793Y-42997D01*
X85831Y-43016D01*
X85868Y-43053D01*
X85887Y-43110D01*
X85887Y-43203D01*
X85625Y-42641D02*
X85887Y-42641D01*
X85475Y-42735D02*
X85756Y-42829D01*
X85756Y-42585D01*
X85887Y-45369D02*
X85494Y-45369D01*
X85494Y-45275D01*
X85512Y-45219D01*
X85550Y-45181D01*
X85587Y-45163D01*
X85662Y-45144D01*
X85718Y-45144D01*
X85793Y-45163D01*
X85831Y-45181D01*
X85868Y-45219D01*
X85887Y-45275D01*
X85887Y-45369D01*
X85494Y-44788D02*
X85494Y-44975D01*
X85681Y-44994D01*
X85662Y-44975D01*
X85643Y-44938D01*
X85643Y-44844D01*
X85662Y-44806D01*
X85681Y-44788D01*
X85718Y-44769D01*
X85812Y-44769D01*
X85850Y-44788D01*
X85868Y-44806D01*
X85887Y-44844D01*
X85887Y-44938D01*
X85868Y-44975D01*
X85850Y-44994D01*
X85887Y-47534D02*
X85494Y-47534D01*
X85494Y-47440D01*
X85512Y-47384D01*
X85550Y-47347D01*
X85587Y-47328D01*
X85662Y-47309D01*
X85718Y-47309D01*
X85793Y-47328D01*
X85831Y-47347D01*
X85868Y-47384D01*
X85887Y-47440D01*
X85887Y-47534D01*
X85494Y-46972D02*
X85494Y-47047D01*
X85512Y-47084D01*
X85531Y-47103D01*
X85587Y-47140D01*
X85662Y-47159D01*
X85812Y-47159D01*
X85850Y-47140D01*
X85868Y-47122D01*
X85887Y-47084D01*
X85887Y-47009D01*
X85868Y-46972D01*
X85850Y-46953D01*
X85812Y-46934D01*
X85718Y-46934D01*
X85681Y-46953D01*
X85662Y-46972D01*
X85643Y-47009D01*
X85643Y-47084D01*
X85662Y-47122D01*
X85681Y-47140D01*
X85718Y-47159D01*
X85887Y-49700D02*
X85494Y-49700D01*
X85494Y-49606D01*
X85512Y-49550D01*
X85550Y-49512D01*
X85587Y-49493D01*
X85662Y-49475D01*
X85718Y-49475D01*
X85793Y-49493D01*
X85831Y-49512D01*
X85868Y-49550D01*
X85887Y-49606D01*
X85887Y-49700D01*
X85494Y-49343D02*
X85494Y-49081D01*
X85887Y-49250D01*
X85887Y-51865D02*
X85494Y-51865D01*
X85494Y-51771D01*
X85512Y-51715D01*
X85550Y-51677D01*
X85587Y-51659D01*
X85662Y-51640D01*
X85718Y-51640D01*
X85793Y-51659D01*
X85831Y-51677D01*
X85868Y-51715D01*
X85887Y-51771D01*
X85887Y-51865D01*
X85662Y-51415D02*
X85643Y-51452D01*
X85625Y-51471D01*
X85587Y-51490D01*
X85568Y-51490D01*
X85531Y-51471D01*
X85512Y-51452D01*
X85494Y-51415D01*
X85494Y-51340D01*
X85512Y-51302D01*
X85531Y-51284D01*
X85568Y-51265D01*
X85587Y-51265D01*
X85625Y-51284D01*
X85643Y-51302D01*
X85662Y-51340D01*
X85662Y-51415D01*
X85681Y-51452D01*
X85700Y-51471D01*
X85737Y-51490D01*
X85812Y-51490D01*
X85850Y-51471D01*
X85868Y-51452D01*
X85887Y-51415D01*
X85887Y-51340D01*
X85868Y-51302D01*
X85850Y-51284D01*
X85812Y-51265D01*
X85737Y-51265D01*
X85700Y-51284D01*
X85681Y-51302D01*
X85662Y-51340D01*
X81431Y-34884D02*
X81431Y-34294D01*
X81566Y-34294D01*
X81600Y-34322D01*
X81616Y-34350D01*
X81633Y-34406D01*
X81633Y-34491D01*
X81616Y-34547D01*
X81600Y-34575D01*
X81566Y-34603D01*
X81431Y-34603D01*
X81971Y-34884D02*
X81768Y-34884D01*
X81870Y-34884D02*
X81870Y-34294D01*
X81836Y-34378D01*
X81802Y-34434D01*
X81768Y-34462D01*
X81950Y-36707D02*
X81556Y-36707D01*
X81556Y-36614D01*
X81575Y-36557D01*
X81613Y-36520D01*
X81650Y-36501D01*
X81725Y-36482D01*
X81781Y-36482D01*
X81856Y-36501D01*
X81894Y-36520D01*
X81931Y-36557D01*
X81950Y-36614D01*
X81950Y-36707D01*
X81950Y-36107D02*
X81950Y-36332D01*
X81950Y-36220D02*
X81556Y-36220D01*
X81613Y-36257D01*
X81650Y-36295D01*
X81669Y-36332D01*
X81950Y-38873D02*
X81556Y-38873D01*
X81556Y-38779D01*
X81575Y-38723D01*
X81613Y-38685D01*
X81650Y-38667D01*
X81725Y-38648D01*
X81781Y-38648D01*
X81856Y-38667D01*
X81894Y-38685D01*
X81931Y-38723D01*
X81950Y-38779D01*
X81950Y-38873D01*
X81594Y-38498D02*
X81575Y-38479D01*
X81556Y-38442D01*
X81556Y-38348D01*
X81575Y-38310D01*
X81594Y-38292D01*
X81631Y-38273D01*
X81669Y-38273D01*
X81725Y-38292D01*
X81950Y-38517D01*
X81950Y-38273D01*
X81950Y-41038D02*
X81556Y-41038D01*
X81556Y-40944D01*
X81575Y-40888D01*
X81613Y-40851D01*
X81650Y-40832D01*
X81725Y-40813D01*
X81781Y-40813D01*
X81856Y-40832D01*
X81894Y-40851D01*
X81931Y-40888D01*
X81950Y-40944D01*
X81950Y-41038D01*
X81556Y-40682D02*
X81556Y-40438D01*
X81706Y-40569D01*
X81706Y-40513D01*
X81725Y-40476D01*
X81744Y-40457D01*
X81781Y-40438D01*
X81875Y-40438D01*
X81913Y-40457D01*
X81931Y-40476D01*
X81950Y-40513D01*
X81950Y-40626D01*
X81931Y-40663D01*
X81913Y-40682D01*
X81950Y-43203D02*
X81556Y-43203D01*
X81556Y-43110D01*
X81575Y-43053D01*
X81613Y-43016D01*
X81650Y-42997D01*
X81725Y-42979D01*
X81781Y-42979D01*
X81856Y-42997D01*
X81894Y-43016D01*
X81931Y-43053D01*
X81950Y-43110D01*
X81950Y-43203D01*
X81688Y-42641D02*
X81950Y-42641D01*
X81538Y-42735D02*
X81819Y-42829D01*
X81819Y-42585D01*
X81950Y-45369D02*
X81556Y-45369D01*
X81556Y-45275D01*
X81575Y-45219D01*
X81613Y-45181D01*
X81650Y-45163D01*
X81725Y-45144D01*
X81781Y-45144D01*
X81856Y-45163D01*
X81894Y-45181D01*
X81931Y-45219D01*
X81950Y-45275D01*
X81950Y-45369D01*
X81556Y-44788D02*
X81556Y-44975D01*
X81744Y-44994D01*
X81725Y-44975D01*
X81706Y-44938D01*
X81706Y-44844D01*
X81725Y-44806D01*
X81744Y-44788D01*
X81781Y-44769D01*
X81875Y-44769D01*
X81913Y-44788D01*
X81931Y-44806D01*
X81950Y-44844D01*
X81950Y-44938D01*
X81931Y-44975D01*
X81913Y-44994D01*
X81950Y-47534D02*
X81556Y-47534D01*
X81556Y-47440D01*
X81575Y-47384D01*
X81613Y-47347D01*
X81650Y-47328D01*
X81725Y-47309D01*
X81781Y-47309D01*
X81856Y-47328D01*
X81894Y-47347D01*
X81931Y-47384D01*
X81950Y-47440D01*
X81950Y-47534D01*
X81556Y-46972D02*
X81556Y-47047D01*
X81575Y-47084D01*
X81594Y-47103D01*
X81650Y-47140D01*
X81725Y-47159D01*
X81875Y-47159D01*
X81913Y-47140D01*
X81931Y-47122D01*
X81950Y-47084D01*
X81950Y-47009D01*
X81931Y-46972D01*
X81913Y-46953D01*
X81875Y-46934D01*
X81781Y-46934D01*
X81744Y-46953D01*
X81725Y-46972D01*
X81706Y-47009D01*
X81706Y-47084D01*
X81725Y-47122D01*
X81744Y-47140D01*
X81781Y-47159D01*
X81950Y-49700D02*
X81556Y-49700D01*
X81556Y-49606D01*
X81575Y-49550D01*
X81613Y-49512D01*
X81650Y-49493D01*
X81725Y-49475D01*
X81781Y-49475D01*
X81856Y-49493D01*
X81894Y-49512D01*
X81931Y-49550D01*
X81950Y-49606D01*
X81950Y-49700D01*
X81556Y-49343D02*
X81556Y-49081D01*
X81950Y-49250D01*
X81950Y-51865D02*
X81556Y-51865D01*
X81556Y-51771D01*
X81575Y-51715D01*
X81613Y-51677D01*
X81650Y-51659D01*
X81725Y-51640D01*
X81781Y-51640D01*
X81856Y-51659D01*
X81894Y-51677D01*
X81931Y-51715D01*
X81950Y-51771D01*
X81950Y-51865D01*
X81725Y-51415D02*
X81706Y-51452D01*
X81688Y-51471D01*
X81650Y-51490D01*
X81631Y-51490D01*
X81594Y-51471D01*
X81575Y-51452D01*
X81556Y-51415D01*
X81556Y-51340D01*
X81575Y-51302D01*
X81594Y-51284D01*
X81631Y-51265D01*
X81650Y-51265D01*
X81688Y-51284D01*
X81706Y-51302D01*
X81725Y-51340D01*
X81725Y-51415D01*
X81744Y-51452D01*
X81763Y-51471D01*
X81800Y-51490D01*
X81875Y-51490D01*
X81913Y-51471D01*
X81931Y-51452D01*
X81950Y-51415D01*
X81950Y-51340D01*
X81931Y-51302D01*
X81913Y-51284D01*
X81875Y-51265D01*
X81800Y-51265D01*
X81763Y-51284D01*
X81744Y-51302D01*
X81725Y-51340D01*
X77494Y-34884D02*
X77494Y-34294D01*
X77629Y-34294D01*
X77663Y-34322D01*
X77679Y-34350D01*
X77696Y-34406D01*
X77696Y-34491D01*
X77679Y-34547D01*
X77663Y-34575D01*
X77629Y-34603D01*
X77494Y-34603D01*
X78034Y-34884D02*
X77831Y-34884D01*
X77933Y-34884D02*
X77933Y-34294D01*
X77899Y-34378D01*
X77865Y-34434D01*
X77831Y-34462D01*
X78013Y-36707D02*
X77619Y-36707D01*
X77619Y-36614D01*
X77638Y-36557D01*
X77676Y-36520D01*
X77713Y-36501D01*
X77788Y-36482D01*
X77844Y-36482D01*
X77919Y-36501D01*
X77957Y-36520D01*
X77994Y-36557D01*
X78013Y-36614D01*
X78013Y-36707D01*
X78013Y-36107D02*
X78013Y-36332D01*
X78013Y-36220D02*
X77619Y-36220D01*
X77676Y-36257D01*
X77713Y-36295D01*
X77732Y-36332D01*
X78013Y-38873D02*
X77619Y-38873D01*
X77619Y-38779D01*
X77638Y-38723D01*
X77676Y-38685D01*
X77713Y-38667D01*
X77788Y-38648D01*
X77844Y-38648D01*
X77919Y-38667D01*
X77957Y-38685D01*
X77994Y-38723D01*
X78013Y-38779D01*
X78013Y-38873D01*
X77657Y-38498D02*
X77638Y-38479D01*
X77619Y-38442D01*
X77619Y-38348D01*
X77638Y-38310D01*
X77657Y-38292D01*
X77694Y-38273D01*
X77732Y-38273D01*
X77788Y-38292D01*
X78013Y-38517D01*
X78013Y-38273D01*
X78013Y-41038D02*
X77619Y-41038D01*
X77619Y-40944D01*
X77638Y-40888D01*
X77676Y-40851D01*
X77713Y-40832D01*
X77788Y-40813D01*
X77844Y-40813D01*
X77919Y-40832D01*
X77957Y-40851D01*
X77994Y-40888D01*
X78013Y-40944D01*
X78013Y-41038D01*
X77619Y-40682D02*
X77619Y-40438D01*
X77769Y-40569D01*
X77769Y-40513D01*
X77788Y-40476D01*
X77807Y-40457D01*
X77844Y-40438D01*
X77938Y-40438D01*
X77976Y-40457D01*
X77994Y-40476D01*
X78013Y-40513D01*
X78013Y-40626D01*
X77994Y-40663D01*
X77976Y-40682D01*
X78013Y-43203D02*
X77619Y-43203D01*
X77619Y-43110D01*
X77638Y-43053D01*
X77676Y-43016D01*
X77713Y-42997D01*
X77788Y-42979D01*
X77844Y-42979D01*
X77919Y-42997D01*
X77957Y-43016D01*
X77994Y-43053D01*
X78013Y-43110D01*
X78013Y-43203D01*
X77751Y-42641D02*
X78013Y-42641D01*
X77601Y-42735D02*
X77882Y-42829D01*
X77882Y-42585D01*
X78013Y-45369D02*
X77619Y-45369D01*
X77619Y-45275D01*
X77638Y-45219D01*
X77676Y-45181D01*
X77713Y-45163D01*
X77788Y-45144D01*
X77844Y-45144D01*
X77919Y-45163D01*
X77957Y-45181D01*
X77994Y-45219D01*
X78013Y-45275D01*
X78013Y-45369D01*
X77619Y-44788D02*
X77619Y-44975D01*
X77807Y-44994D01*
X77788Y-44975D01*
X77769Y-44938D01*
X77769Y-44844D01*
X77788Y-44806D01*
X77807Y-44788D01*
X77844Y-44769D01*
X77938Y-44769D01*
X77976Y-44788D01*
X77994Y-44806D01*
X78013Y-44844D01*
X78013Y-44938D01*
X77994Y-44975D01*
X77976Y-44994D01*
X78013Y-47534D02*
X77619Y-47534D01*
X77619Y-47440D01*
X77638Y-47384D01*
X77676Y-47347D01*
X77713Y-47328D01*
X77788Y-47309D01*
X77844Y-47309D01*
X77919Y-47328D01*
X77957Y-47347D01*
X77994Y-47384D01*
X78013Y-47440D01*
X78013Y-47534D01*
X77619Y-46972D02*
X77619Y-47047D01*
X77638Y-47084D01*
X77657Y-47103D01*
X77713Y-47140D01*
X77788Y-47159D01*
X77938Y-47159D01*
X77976Y-47140D01*
X77994Y-47122D01*
X78013Y-47084D01*
X78013Y-47009D01*
X77994Y-46972D01*
X77976Y-46953D01*
X77938Y-46934D01*
X77844Y-46934D01*
X77807Y-46953D01*
X77788Y-46972D01*
X77769Y-47009D01*
X77769Y-47084D01*
X77788Y-47122D01*
X77807Y-47140D01*
X77844Y-47159D01*
X78013Y-49700D02*
X77619Y-49700D01*
X77619Y-49606D01*
X77638Y-49550D01*
X77676Y-49512D01*
X77713Y-49493D01*
X77788Y-49475D01*
X77844Y-49475D01*
X77919Y-49493D01*
X77957Y-49512D01*
X77994Y-49550D01*
X78013Y-49606D01*
X78013Y-49700D01*
X77619Y-49343D02*
X77619Y-49081D01*
X78013Y-49250D01*
X78013Y-51865D02*
X77619Y-51865D01*
X77619Y-51771D01*
X77638Y-51715D01*
X77676Y-51677D01*
X77713Y-51659D01*
X77788Y-51640D01*
X77844Y-51640D01*
X77919Y-51659D01*
X77957Y-51677D01*
X77994Y-51715D01*
X78013Y-51771D01*
X78013Y-51865D01*
X77788Y-51415D02*
X77769Y-51452D01*
X77751Y-51471D01*
X77713Y-51490D01*
X77694Y-51490D01*
X77657Y-51471D01*
X77638Y-51452D01*
X77619Y-51415D01*
X77619Y-51340D01*
X77638Y-51302D01*
X77657Y-51284D01*
X77694Y-51265D01*
X77713Y-51265D01*
X77751Y-51284D01*
X77769Y-51302D01*
X77788Y-51340D01*
X77788Y-51415D01*
X77807Y-51452D01*
X77826Y-51471D01*
X77863Y-51490D01*
X77938Y-51490D01*
X77976Y-51471D01*
X77994Y-51452D01*
X78013Y-51415D01*
X78013Y-51340D01*
X77994Y-51302D01*
X77976Y-51284D01*
X77938Y-51265D01*
X77863Y-51265D01*
X77826Y-51284D01*
X77807Y-51302D01*
X77788Y-51340D01*
G54D17*
X88331Y-49745D02*
X88350Y-49688D01*
X88350Y-49593D01*
X88331Y-49555D01*
X88312Y-49536D01*
X88274Y-49517D01*
X88236Y-49517D01*
X88198Y-49536D01*
X88179Y-49555D01*
X88160Y-49593D01*
X88141Y-49669D01*
X88122Y-49707D01*
X88103Y-49726D01*
X88065Y-49745D01*
X88027Y-49745D01*
X87988Y-49726D01*
X87969Y-49707D01*
X87950Y-49669D01*
X87950Y-49574D01*
X87969Y-49517D01*
X87950Y-49384D02*
X88350Y-49288D01*
X88065Y-49212D01*
X88350Y-49136D01*
X87950Y-49041D01*
X87950Y-48926D02*
X87950Y-48679D01*
X88103Y-48812D01*
X88103Y-48755D01*
X88122Y-48717D01*
X88141Y-48698D01*
X88179Y-48679D01*
X88274Y-48679D01*
X88312Y-48698D01*
X88331Y-48717D01*
X88350Y-48755D01*
X88350Y-48869D01*
X88331Y-48907D01*
X88312Y-48926D01*
G54D18*
X87873Y-47519D02*
X87873Y-46838D01*
X88036Y-46838D01*
X88076Y-46871D01*
X88097Y-46903D01*
X88117Y-46968D01*
X88117Y-47065D01*
X88097Y-47130D01*
X88076Y-47163D01*
X88036Y-47195D01*
X87873Y-47195D01*
X88525Y-47519D02*
X88280Y-47519D01*
X88402Y-47519D02*
X88402Y-46838D01*
X88362Y-46936D01*
X88321Y-47000D01*
X88280Y-47033D01*
G54D12*
G54D18*
X88266Y-52637D02*
X88266Y-51956D01*
X88429Y-51956D01*
X88470Y-51989D01*
X88490Y-52021D01*
X88511Y-52086D01*
X88511Y-52183D01*
X88490Y-52248D01*
X88470Y-52281D01*
X88429Y-52313D01*
X88266Y-52313D01*
X88674Y-52021D02*
X88694Y-51989D01*
X88735Y-51956D01*
X88837Y-51956D01*
X88878Y-51989D01*
X88898Y-52021D01*
X88918Y-52086D01*
X88918Y-52151D01*
X88898Y-52248D01*
X88654Y-52637D01*
X88918Y-52637D01*
G54D12*
G54D17*
X91292Y-47446D02*
X91292Y-46946D01*
X91764Y-47398D02*
X91742Y-47422D01*
X91678Y-47446D01*
X91635Y-47446D01*
X91571Y-47422D01*
X91528Y-47375D01*
X91507Y-47327D01*
X91485Y-47232D01*
X91485Y-47160D01*
X91507Y-47065D01*
X91528Y-47017D01*
X91571Y-46970D01*
X91635Y-46946D01*
X91678Y-46946D01*
X91742Y-46970D01*
X91764Y-46994D01*
X92192Y-47446D02*
X91935Y-47446D01*
X92064Y-47446D02*
X92064Y-46946D01*
X92021Y-47017D01*
X91978Y-47065D01*
X91935Y-47089D01*
X92453Y-51698D02*
X92433Y-51717D01*
X92376Y-51736D01*
X92338Y-51736D01*
X92281Y-51717D01*
X92243Y-51679D01*
X92224Y-51641D01*
X92205Y-51565D01*
X92205Y-51508D01*
X92224Y-51431D01*
X92243Y-51393D01*
X92281Y-51355D01*
X92338Y-51336D01*
X92376Y-51336D01*
X92433Y-51355D01*
X92453Y-51374D01*
X92833Y-51736D02*
X92605Y-51736D01*
X92719Y-51736D02*
X92719Y-51336D01*
X92681Y-51393D01*
X92643Y-51431D01*
X92605Y-51450D01*
G54D16*
X92739Y-42953D02*
X92739Y-43096D01*
X92439Y-43096D01*
X92582Y-42853D02*
X92582Y-42753D01*
X92739Y-42710D02*
X92739Y-42853D01*
X92439Y-42853D01*
X92439Y-42710D01*
X92739Y-42582D02*
X92439Y-42582D01*
X92439Y-42510D01*
X92453Y-42468D01*
X92482Y-42439D01*
X92510Y-42425D01*
X92568Y-42410D01*
X92610Y-42410D01*
X92668Y-42425D01*
X92696Y-42439D01*
X92725Y-42468D01*
X92739Y-42510D01*
X92739Y-42582D01*
X92439Y-42225D02*
X92439Y-42196D01*
X92453Y-42168D01*
X92468Y-42153D01*
X92496Y-42139D01*
X92553Y-42125D01*
X92625Y-42125D01*
X92682Y-42139D01*
X92710Y-42153D01*
X92725Y-42168D01*
X92739Y-42196D01*
X92739Y-42225D01*
X92725Y-42253D01*
X92710Y-42268D01*
X92682Y-42282D01*
X92625Y-42296D01*
X92553Y-42296D01*
X92496Y-42282D01*
X92468Y-42268D01*
X92453Y-42253D01*
X92439Y-42225D01*
X92739Y-40788D02*
X92739Y-40931D01*
X92439Y-40931D01*
X92582Y-40688D02*
X92582Y-40588D01*
X92739Y-40545D02*
X92739Y-40688D01*
X92439Y-40688D01*
X92439Y-40545D01*
X92739Y-40417D02*
X92439Y-40417D01*
X92439Y-40345D01*
X92453Y-40302D01*
X92482Y-40274D01*
X92510Y-40259D01*
X92568Y-40245D01*
X92610Y-40245D01*
X92668Y-40259D01*
X92696Y-40274D01*
X92725Y-40302D01*
X92739Y-40345D01*
X92739Y-40417D01*
X92739Y-39959D02*
X92739Y-40131D01*
X92739Y-40045D02*
X92439Y-40045D01*
X92482Y-40074D01*
X92510Y-40102D01*
X92525Y-40131D01*
X92739Y-38623D02*
X92739Y-38765D01*
X92439Y-38765D01*
X92582Y-38523D02*
X92582Y-38423D01*
X92739Y-38380D02*
X92739Y-38523D01*
X92439Y-38523D01*
X92439Y-38380D01*
X92739Y-38251D02*
X92439Y-38251D01*
X92439Y-38180D01*
X92453Y-38137D01*
X92482Y-38108D01*
X92510Y-38094D01*
X92568Y-38080D01*
X92610Y-38080D01*
X92668Y-38094D01*
X92696Y-38108D01*
X92725Y-38137D01*
X92739Y-38180D01*
X92739Y-38251D01*
X92468Y-37965D02*
X92453Y-37951D01*
X92439Y-37923D01*
X92439Y-37851D01*
X92453Y-37823D01*
X92468Y-37808D01*
X92496Y-37794D01*
X92525Y-37794D01*
X92568Y-37808D01*
X92739Y-37980D01*
X92739Y-37794D01*
X92739Y-36457D02*
X92739Y-36600D01*
X92439Y-36600D01*
X92582Y-36357D02*
X92582Y-36257D01*
X92739Y-36214D02*
X92739Y-36357D01*
X92439Y-36357D01*
X92439Y-36214D01*
X92739Y-36086D02*
X92439Y-36086D01*
X92439Y-36014D01*
X92453Y-35972D01*
X92482Y-35943D01*
X92510Y-35929D01*
X92568Y-35914D01*
X92610Y-35914D01*
X92668Y-35929D01*
X92696Y-35943D01*
X92725Y-35972D01*
X92739Y-36014D01*
X92739Y-36086D01*
X92439Y-35814D02*
X92439Y-35629D01*
X92553Y-35729D01*
X92553Y-35686D01*
X92568Y-35657D01*
X92582Y-35643D01*
X92610Y-35629D01*
X92682Y-35629D01*
X92710Y-35643D01*
X92725Y-35657D01*
X92739Y-35686D01*
X92739Y-35772D01*
X92725Y-35800D01*
X92710Y-35814D01*
X87879Y-36457D02*
X87879Y-36600D01*
X87579Y-36600D01*
X87722Y-36357D02*
X87722Y-36257D01*
X87879Y-36214D02*
X87879Y-36357D01*
X87579Y-36357D01*
X87579Y-36214D01*
X87879Y-36086D02*
X87579Y-36086D01*
X87579Y-36014D01*
X87593Y-35972D01*
X87622Y-35943D01*
X87650Y-35929D01*
X87707Y-35914D01*
X87750Y-35914D01*
X87807Y-35929D01*
X87836Y-35943D01*
X87865Y-35972D01*
X87879Y-36014D01*
X87879Y-36086D01*
X87679Y-35657D02*
X87879Y-35657D01*
X87565Y-35729D02*
X87779Y-35800D01*
X87779Y-35614D01*
X87879Y-38623D02*
X87879Y-38765D01*
X87579Y-38765D01*
X87722Y-38523D02*
X87722Y-38423D01*
X87879Y-38380D02*
X87879Y-38523D01*
X87579Y-38523D01*
X87579Y-38380D01*
X87879Y-38251D02*
X87579Y-38251D01*
X87579Y-38180D01*
X87593Y-38137D01*
X87622Y-38108D01*
X87650Y-38094D01*
X87707Y-38080D01*
X87750Y-38080D01*
X87807Y-38094D01*
X87836Y-38108D01*
X87865Y-38137D01*
X87879Y-38180D01*
X87879Y-38251D01*
X87579Y-37808D02*
X87579Y-37951D01*
X87722Y-37965D01*
X87707Y-37951D01*
X87693Y-37923D01*
X87693Y-37851D01*
X87707Y-37823D01*
X87722Y-37808D01*
X87750Y-37794D01*
X87822Y-37794D01*
X87850Y-37808D01*
X87865Y-37823D01*
X87879Y-37851D01*
X87879Y-37923D01*
X87865Y-37951D01*
X87850Y-37965D01*
X87879Y-40788D02*
X87879Y-40931D01*
X87579Y-40931D01*
X87722Y-40688D02*
X87722Y-40588D01*
X87879Y-40545D02*
X87879Y-40688D01*
X87579Y-40688D01*
X87579Y-40545D01*
X87879Y-40417D02*
X87579Y-40417D01*
X87579Y-40345D01*
X87593Y-40302D01*
X87622Y-40274D01*
X87650Y-40259D01*
X87707Y-40245D01*
X87750Y-40245D01*
X87807Y-40259D01*
X87836Y-40274D01*
X87865Y-40302D01*
X87879Y-40345D01*
X87879Y-40417D01*
X87579Y-39988D02*
X87579Y-40045D01*
X87593Y-40074D01*
X87607Y-40088D01*
X87650Y-40117D01*
X87707Y-40131D01*
X87822Y-40131D01*
X87850Y-40117D01*
X87865Y-40102D01*
X87879Y-40074D01*
X87879Y-40017D01*
X87865Y-39988D01*
X87850Y-39974D01*
X87822Y-39959D01*
X87750Y-39959D01*
X87722Y-39974D01*
X87707Y-39988D01*
X87693Y-40017D01*
X87693Y-40074D01*
X87707Y-40102D01*
X87722Y-40117D01*
X87750Y-40131D01*
X87879Y-42953D02*
X87879Y-43096D01*
X87579Y-43096D01*
X87722Y-42853D02*
X87722Y-42753D01*
X87879Y-42710D02*
X87879Y-42853D01*
X87579Y-42853D01*
X87579Y-42710D01*
X87879Y-42582D02*
X87579Y-42582D01*
X87579Y-42510D01*
X87593Y-42468D01*
X87622Y-42439D01*
X87650Y-42425D01*
X87707Y-42410D01*
X87750Y-42410D01*
X87807Y-42425D01*
X87836Y-42439D01*
X87865Y-42468D01*
X87879Y-42510D01*
X87879Y-42582D01*
X87579Y-42310D02*
X87579Y-42110D01*
X87879Y-42239D01*
G54D17*
X86972Y-44783D02*
X86572Y-44783D01*
X86572Y-44631D01*
X86591Y-44592D01*
X86611Y-44573D01*
X86649Y-44554D01*
X86706Y-44554D01*
X86744Y-44573D01*
X86763Y-44592D01*
X86782Y-44631D01*
X86782Y-44783D01*
X86972Y-44173D02*
X86972Y-44402D01*
X86972Y-44288D02*
X86572Y-44288D01*
X86630Y-44326D01*
X86668Y-44364D01*
X86687Y-44402D01*
X86972Y-34547D02*
X86572Y-34547D01*
X86572Y-34394D01*
X86591Y-34356D01*
X86611Y-34337D01*
X86649Y-34318D01*
X86706Y-34318D01*
X86744Y-34337D01*
X86763Y-34356D01*
X86782Y-34394D01*
X86782Y-34547D01*
X86611Y-34166D02*
X86591Y-34147D01*
X86572Y-34109D01*
X86572Y-34013D01*
X86591Y-33975D01*
X86611Y-33956D01*
X86649Y-33937D01*
X86687Y-33937D01*
X86744Y-33956D01*
X86972Y-34185D01*
X86972Y-33937D01*
X91173Y-43529D02*
X91154Y-43548D01*
X91097Y-43567D01*
X91059Y-43567D01*
X91002Y-43548D01*
X90963Y-43510D01*
X90944Y-43472D01*
X90925Y-43395D01*
X90925Y-43338D01*
X90944Y-43262D01*
X90963Y-43224D01*
X91002Y-43186D01*
X91059Y-43167D01*
X91097Y-43167D01*
X91154Y-43186D01*
X91173Y-43205D01*
X91554Y-43567D02*
X91325Y-43567D01*
X91440Y-43567D02*
X91440Y-43167D01*
X91402Y-43224D01*
X91363Y-43262D01*
X91325Y-43281D01*
G54D14*
X89300Y-39827D02*
X89786Y-39827D01*
X89843Y-39798D01*
X89871Y-39770D01*
X89900Y-39712D01*
X89900Y-39598D01*
X89871Y-39541D01*
X89843Y-39512D01*
X89786Y-39484D01*
X89300Y-39484D01*
X89900Y-38884D02*
X89900Y-39227D01*
X89900Y-39055D02*
X89300Y-39055D01*
X89386Y-39112D01*
X89443Y-39170D01*
X89471Y-39227D01*
X90300Y-41334D02*
X90300Y-41048D01*
X90900Y-41191D02*
X90300Y-41191D01*
X90900Y-40881D02*
X90300Y-40881D01*
X90300Y-40691D01*
X90328Y-40643D01*
X90357Y-40620D01*
X90414Y-40596D01*
X90500Y-40596D01*
X90557Y-40620D01*
X90586Y-40643D01*
X90614Y-40691D01*
X90614Y-40881D01*
X90900Y-40381D02*
X90300Y-40381D01*
X90843Y-39858D02*
X90871Y-39881D01*
X90900Y-39953D01*
X90900Y-40001D01*
X90871Y-40072D01*
X90814Y-40120D01*
X90757Y-40143D01*
X90643Y-40167D01*
X90557Y-40167D01*
X90443Y-40143D01*
X90386Y-40120D01*
X90328Y-40072D01*
X90300Y-40001D01*
X90300Y-39953D01*
X90328Y-39881D01*
X90357Y-39858D01*
X90300Y-39429D02*
X90300Y-39524D01*
X90328Y-39572D01*
X90357Y-39596D01*
X90443Y-39643D01*
X90557Y-39667D01*
X90786Y-39667D01*
X90843Y-39643D01*
X90871Y-39620D01*
X90900Y-39572D01*
X90900Y-39477D01*
X90871Y-39429D01*
X90843Y-39405D01*
X90786Y-39381D01*
X90643Y-39381D01*
X90586Y-39405D01*
X90557Y-39429D01*
X90528Y-39477D01*
X90528Y-39572D01*
X90557Y-39620D01*
X90586Y-39643D01*
X90643Y-39667D01*
X90586Y-39001D02*
X90614Y-38929D01*
X90643Y-38905D01*
X90700Y-38881D01*
X90786Y-38881D01*
X90843Y-38905D01*
X90871Y-38929D01*
X90900Y-38977D01*
X90900Y-39167D01*
X90300Y-39167D01*
X90300Y-39001D01*
X90328Y-38953D01*
X90357Y-38929D01*
X90414Y-38905D01*
X90471Y-38905D01*
X90528Y-38929D01*
X90557Y-38953D01*
X90586Y-39001D01*
X90586Y-39167D01*
X90300Y-38429D02*
X90300Y-38667D01*
X90586Y-38691D01*
X90557Y-38667D01*
X90528Y-38620D01*
X90528Y-38501D01*
X90557Y-38453D01*
X90586Y-38429D01*
X90643Y-38405D01*
X90786Y-38405D01*
X90843Y-38429D01*
X90871Y-38453D01*
X90900Y-38501D01*
X90900Y-38620D01*
X90871Y-38667D01*
X90843Y-38691D01*
X90900Y-38167D02*
X90900Y-38072D01*
X90871Y-38024D01*
X90843Y-38001D01*
X90757Y-37953D01*
X90643Y-37929D01*
X90414Y-37929D01*
X90357Y-37953D01*
X90328Y-37977D01*
X90300Y-38024D01*
X90300Y-38120D01*
X90328Y-38167D01*
X90357Y-38191D01*
X90414Y-38215D01*
X90557Y-38215D01*
X90614Y-38191D01*
X90643Y-38167D01*
X90671Y-38120D01*
X90671Y-38024D01*
X90643Y-37977D01*
X90614Y-37953D01*
X90557Y-37929D01*
X90300Y-37477D02*
X90300Y-37715D01*
X90586Y-37739D01*
X90557Y-37715D01*
X90528Y-37667D01*
X90528Y-37548D01*
X90557Y-37501D01*
X90586Y-37477D01*
X90643Y-37453D01*
X90786Y-37453D01*
X90843Y-37477D01*
X90871Y-37501D01*
X90900Y-37548D01*
X90900Y-37667D01*
X90871Y-37715D01*
X90843Y-37739D01*
M02*
