G04 (created by PCBNEW (2013-04-19 BZR 4011)-stable) date 9/19/2013 12:32:27 AM*
%MOIN*%
G04 Gerber Fmt 3.4, Leading zero omitted, Abs format*
%FSLAX34Y34*%
G01*
G70*
G90*
G04 APERTURE LIST*
%ADD10C,0.00393701*%
%ADD11R,0.055X0.055*%
%ADD12C,0.055*%
%ADD13R,0.0590551X0.102362*%
%ADD14R,0.06X0.06*%
%ADD15C,0.06*%
%ADD16R,0.05X0.02*%
%ADD17C,0.035*%
%ADD18C,0.01*%
%ADD19C,0.015748*%
G04 APERTURE END LIST*
G54D10*
G54D11*
X83751Y-34645D03*
G54D12*
X84751Y-34645D03*
G54D13*
X83661Y-36417D03*
X84842Y-36417D03*
X83661Y-38582D03*
X84842Y-38582D03*
X83661Y-40748D03*
X84842Y-40748D03*
X83661Y-42913D03*
X84842Y-42913D03*
X83661Y-45078D03*
X84842Y-45078D03*
X83661Y-47244D03*
X84842Y-47244D03*
X83661Y-49409D03*
X84842Y-49409D03*
X83661Y-51574D03*
X84842Y-51574D03*
G54D11*
X79814Y-34645D03*
G54D12*
X80814Y-34645D03*
G54D13*
X79724Y-36417D03*
X80905Y-36417D03*
X79724Y-38582D03*
X80905Y-38582D03*
X79724Y-40748D03*
X80905Y-40748D03*
X79724Y-42913D03*
X80905Y-42913D03*
X79724Y-45078D03*
X80905Y-45078D03*
X79724Y-47244D03*
X80905Y-47244D03*
X79724Y-49409D03*
X80905Y-49409D03*
X79724Y-51574D03*
X80905Y-51574D03*
G54D11*
X75877Y-34645D03*
G54D12*
X76877Y-34645D03*
G54D13*
X75787Y-36417D03*
X76968Y-36417D03*
X75787Y-38582D03*
X76968Y-38582D03*
X75787Y-40748D03*
X76968Y-40748D03*
X75787Y-42913D03*
X76968Y-42913D03*
X75787Y-45078D03*
X76968Y-45078D03*
X75787Y-47244D03*
X76968Y-47244D03*
X75787Y-49409D03*
X76968Y-49409D03*
X75787Y-51574D03*
X76968Y-51574D03*
G54D12*
X87188Y-47712D03*
X89188Y-47712D03*
X87188Y-50712D03*
X89188Y-50712D03*
G54D11*
X87657Y-46062D03*
G54D12*
X88657Y-46062D03*
X89657Y-46062D03*
X90657Y-46062D03*
X91657Y-46062D03*
X92657Y-46062D03*
G54D11*
X89657Y-52362D03*
G54D12*
X90657Y-52362D03*
G54D11*
X90232Y-47712D03*
G54D12*
X90232Y-48712D03*
X90232Y-49712D03*
X90232Y-50712D03*
X93232Y-50712D03*
X93232Y-49712D03*
X93232Y-48712D03*
X93232Y-47712D03*
X92019Y-52362D03*
X93019Y-52362D03*
G54D14*
X93307Y-43118D03*
G54D15*
X93307Y-42118D03*
G54D14*
X93307Y-40952D03*
G54D15*
X93307Y-39952D03*
G54D14*
X93307Y-38787D03*
G54D15*
X93307Y-37787D03*
G54D14*
X93307Y-36622D03*
G54D15*
X93307Y-35622D03*
G54D14*
X87007Y-35622D03*
G54D15*
X87007Y-36622D03*
G54D14*
X87007Y-37787D03*
G54D15*
X87007Y-38787D03*
G54D14*
X87007Y-39952D03*
G54D15*
X87007Y-40952D03*
G54D14*
X87007Y-42118D03*
G54D15*
X87007Y-43118D03*
G54D14*
X87657Y-44488D03*
G54D15*
X88657Y-44488D03*
X89657Y-44488D03*
X90657Y-44488D03*
X91657Y-44488D03*
X92657Y-44488D03*
G54D14*
X87657Y-34251D03*
G54D15*
X88657Y-34251D03*
X89657Y-34251D03*
X90657Y-34251D03*
X91657Y-34251D03*
X92657Y-34251D03*
G54D12*
X90740Y-42519D03*
X91740Y-42519D03*
G54D16*
X88257Y-37120D03*
X88257Y-37620D03*
X88257Y-38120D03*
X88257Y-38620D03*
X88257Y-39120D03*
X88257Y-39620D03*
X88257Y-40120D03*
X88257Y-40620D03*
X88257Y-41120D03*
X88257Y-41620D03*
X92057Y-41620D03*
X92057Y-41120D03*
X92057Y-40620D03*
X92057Y-40120D03*
X92057Y-39620D03*
X92057Y-39120D03*
X92057Y-38620D03*
X92057Y-38120D03*
X92057Y-37620D03*
X92057Y-37120D03*
G54D17*
X90846Y-37598D03*
X89665Y-42519D03*
X91240Y-40649D03*
X89173Y-43405D03*
X89665Y-40649D03*
X90452Y-38090D03*
X89271Y-42913D03*
X91338Y-38661D03*
X84251Y-39665D03*
X80314Y-39665D03*
X76377Y-39665D03*
X84251Y-43996D03*
X80314Y-43996D03*
X76377Y-43996D03*
X84251Y-48326D03*
X80314Y-48326D03*
X76377Y-48326D03*
X89173Y-40157D03*
X88090Y-43110D03*
X84251Y-52657D03*
X80314Y-52657D03*
X76377Y-52657D03*
G54D18*
X88257Y-37620D02*
X90824Y-37620D01*
X90824Y-37620D02*
X90846Y-37598D01*
X91657Y-44488D02*
X91633Y-44488D01*
X91633Y-44488D02*
X89665Y-42519D01*
X90232Y-47712D02*
X89188Y-47712D01*
X89188Y-47712D02*
X89188Y-50712D01*
X90232Y-47712D02*
X91657Y-47712D01*
X92657Y-46712D02*
X92657Y-46062D01*
X91657Y-47712D02*
X92657Y-46712D01*
X89657Y-44488D02*
X89657Y-43889D01*
X91269Y-40620D02*
X92057Y-40620D01*
X91240Y-40649D02*
X91269Y-40620D01*
X89657Y-43889D02*
X89173Y-43405D01*
X89635Y-40620D02*
X88257Y-40620D01*
X89665Y-40649D02*
X89635Y-40620D01*
X88257Y-38120D02*
X90423Y-38120D01*
X90423Y-38120D02*
X90452Y-38090D01*
X90657Y-44488D02*
X90657Y-44299D01*
X90657Y-44299D02*
X89271Y-42913D01*
X84842Y-49409D02*
X84842Y-50196D01*
X83661Y-50787D02*
X83661Y-51574D01*
X83956Y-50492D02*
X83661Y-50787D01*
X84547Y-50492D02*
X83956Y-50492D01*
X84842Y-50196D02*
X84547Y-50492D01*
X80905Y-49409D02*
X80905Y-50196D01*
X79724Y-50787D02*
X79724Y-51574D01*
X80019Y-50492D02*
X79724Y-50787D01*
X80610Y-50492D02*
X80019Y-50492D01*
X80905Y-50196D02*
X80610Y-50492D01*
X76968Y-49409D02*
X76968Y-50196D01*
X75787Y-50787D02*
X75787Y-51574D01*
X76082Y-50492D02*
X75787Y-50787D01*
X76673Y-50492D02*
X76082Y-50492D01*
X76968Y-50196D02*
X76673Y-50492D01*
X91338Y-38661D02*
X91379Y-38620D01*
X92057Y-38620D02*
X91379Y-38620D01*
X92057Y-40120D02*
X92482Y-40120D01*
X93003Y-42118D02*
X93307Y-42118D01*
X92618Y-41732D02*
X93003Y-42118D01*
X92618Y-40255D02*
X92618Y-41732D01*
X92482Y-40120D02*
X92618Y-40255D01*
X84842Y-36417D02*
X84842Y-37204D01*
X83661Y-37795D02*
X83661Y-38582D01*
X83956Y-37500D02*
X83661Y-37795D01*
X84547Y-37500D02*
X83956Y-37500D01*
X84842Y-37204D02*
X84547Y-37500D01*
X80905Y-36417D02*
X80905Y-37204D01*
X79724Y-37795D02*
X79724Y-38582D01*
X80019Y-37500D02*
X79724Y-37795D01*
X80610Y-37500D02*
X80019Y-37500D01*
X80905Y-37204D02*
X80610Y-37500D01*
X76968Y-36417D02*
X76968Y-37204D01*
X75787Y-37795D02*
X75787Y-38582D01*
X76082Y-37500D02*
X75787Y-37795D01*
X76673Y-37500D02*
X76082Y-37500D01*
X76968Y-37204D02*
X76673Y-37500D01*
X92057Y-39620D02*
X92572Y-39620D01*
X92905Y-39952D02*
X93307Y-39952D01*
X92572Y-39620D02*
X92905Y-39952D01*
X84842Y-39370D02*
X84842Y-38582D01*
X84842Y-39370D02*
X84547Y-39665D01*
X84547Y-39665D02*
X84251Y-39665D01*
X80905Y-39370D02*
X80905Y-38582D01*
X80905Y-39370D02*
X80610Y-39665D01*
X80610Y-39665D02*
X80314Y-39665D01*
X76968Y-39370D02*
X76968Y-38582D01*
X76968Y-39370D02*
X76673Y-39665D01*
X76673Y-39665D02*
X76377Y-39665D01*
X92057Y-39120D02*
X92375Y-39120D01*
X93118Y-37787D02*
X93307Y-37787D01*
X92618Y-38287D02*
X93118Y-37787D01*
X92618Y-38877D02*
X92618Y-38287D01*
X92375Y-39120D02*
X92618Y-38877D01*
X84842Y-40748D02*
X84842Y-41535D01*
X83661Y-42125D02*
X83661Y-42913D01*
X83956Y-41830D02*
X83661Y-42125D01*
X84547Y-41830D02*
X83956Y-41830D01*
X84842Y-41535D02*
X84547Y-41830D01*
X80905Y-40748D02*
X80905Y-41535D01*
X79724Y-42125D02*
X79724Y-42913D01*
X80019Y-41830D02*
X79724Y-42125D01*
X80610Y-41830D02*
X80019Y-41830D01*
X80905Y-41535D02*
X80610Y-41830D01*
X76968Y-40748D02*
X76968Y-41535D01*
X75787Y-42125D02*
X75787Y-42913D01*
X76082Y-41830D02*
X75787Y-42125D01*
X76673Y-41830D02*
X76082Y-41830D01*
X76968Y-41535D02*
X76673Y-41830D01*
X88257Y-38620D02*
X87931Y-38620D01*
X87409Y-36622D02*
X87007Y-36622D01*
X87696Y-36909D02*
X87409Y-36622D01*
X87696Y-38385D02*
X87696Y-36909D01*
X87931Y-38620D02*
X87696Y-38385D01*
X84842Y-42913D02*
X84842Y-43700D01*
X84547Y-43996D02*
X84251Y-43996D01*
X84842Y-43700D02*
X84547Y-43996D01*
X80905Y-42913D02*
X80905Y-43700D01*
X80610Y-43996D02*
X80314Y-43996D01*
X80905Y-43700D02*
X80610Y-43996D01*
X76968Y-42913D02*
X76968Y-43700D01*
X76673Y-43996D02*
X76377Y-43996D01*
X76968Y-43700D02*
X76673Y-43996D01*
X88257Y-39620D02*
X87938Y-39620D01*
X87492Y-40952D02*
X87007Y-40952D01*
X87696Y-40748D02*
X87492Y-40952D01*
X87696Y-39862D02*
X87696Y-40748D01*
X87938Y-39620D02*
X87696Y-39862D01*
X84842Y-45078D02*
X84842Y-45866D01*
X83661Y-46456D02*
X83661Y-47244D01*
X83956Y-46161D02*
X83661Y-46456D01*
X84547Y-46161D02*
X83956Y-46161D01*
X84842Y-45866D02*
X84547Y-46161D01*
X80905Y-45078D02*
X80905Y-45866D01*
X79724Y-46456D02*
X79724Y-47244D01*
X80019Y-46161D02*
X79724Y-46456D01*
X80610Y-46161D02*
X80019Y-46161D01*
X80905Y-45866D02*
X80610Y-46161D01*
X76968Y-45078D02*
X76968Y-45866D01*
X75787Y-46456D02*
X75787Y-47244D01*
X76082Y-46161D02*
X75787Y-46456D01*
X76673Y-46161D02*
X76082Y-46161D01*
X76968Y-45866D02*
X76673Y-46161D01*
X84842Y-47244D02*
X84842Y-48031D01*
X84547Y-48326D02*
X84251Y-48326D01*
X84842Y-48031D02*
X84547Y-48326D01*
X80905Y-47244D02*
X80905Y-48031D01*
X80610Y-48326D02*
X80314Y-48326D01*
X80905Y-48031D02*
X80610Y-48326D01*
X76968Y-47244D02*
X76968Y-48031D01*
X76673Y-48326D02*
X76377Y-48326D01*
X76968Y-48031D02*
X76673Y-48326D01*
X88257Y-40120D02*
X89135Y-40120D01*
X89135Y-40120D02*
X89173Y-40157D01*
X88082Y-43118D02*
X87007Y-43118D01*
X88090Y-43110D02*
X88082Y-43118D01*
X84842Y-51574D02*
X84842Y-52362D01*
X84547Y-52657D02*
X84251Y-52657D01*
X84842Y-52362D02*
X84547Y-52657D01*
X80905Y-51574D02*
X80905Y-52362D01*
X80610Y-52657D02*
X80314Y-52657D01*
X80905Y-52362D02*
X80610Y-52657D01*
X76968Y-51574D02*
X76968Y-52362D01*
X76673Y-52657D02*
X76377Y-52657D01*
X76968Y-52362D02*
X76673Y-52657D01*
X88257Y-39120D02*
X87938Y-39120D01*
X87606Y-38787D02*
X87007Y-38787D01*
X87938Y-39120D02*
X87606Y-38787D01*
X83661Y-45078D02*
X83661Y-45275D01*
X83661Y-49212D02*
X83661Y-49409D01*
X82972Y-48523D02*
X83661Y-49212D01*
X82972Y-45964D02*
X82972Y-48523D01*
X83661Y-45275D02*
X82972Y-45964D01*
X83661Y-40748D02*
X83661Y-40944D01*
X83661Y-44881D02*
X83661Y-45078D01*
X82874Y-44094D02*
X83661Y-44881D01*
X82874Y-43897D02*
X82874Y-44094D01*
X82874Y-41732D02*
X82874Y-43897D01*
X83661Y-40944D02*
X82874Y-41732D01*
X83661Y-36417D02*
X83661Y-36614D01*
X83661Y-40551D02*
X83661Y-40748D01*
X82874Y-39763D02*
X83661Y-40551D01*
X82874Y-37401D02*
X82874Y-39763D01*
X83661Y-36614D02*
X82874Y-37401D01*
X83751Y-36326D02*
X83661Y-36417D01*
X83751Y-34645D02*
X83751Y-36326D01*
X79724Y-45078D02*
X79724Y-45275D01*
X79724Y-49212D02*
X79724Y-49409D01*
X79035Y-48523D02*
X79724Y-49212D01*
X79035Y-45964D02*
X79035Y-48523D01*
X79724Y-45275D02*
X79035Y-45964D01*
X79724Y-40748D02*
X79724Y-40944D01*
X79724Y-44881D02*
X79724Y-45078D01*
X78937Y-44094D02*
X79724Y-44881D01*
X78937Y-43897D02*
X78937Y-44094D01*
X78937Y-41732D02*
X78937Y-43897D01*
X79724Y-40944D02*
X78937Y-41732D01*
X79724Y-36417D02*
X79724Y-36614D01*
X79724Y-40551D02*
X79724Y-40748D01*
X78937Y-39763D02*
X79724Y-40551D01*
X78937Y-37401D02*
X78937Y-39763D01*
X79724Y-36614D02*
X78937Y-37401D01*
X79814Y-36326D02*
X79724Y-36417D01*
X79814Y-34645D02*
X79814Y-36326D01*
X75787Y-45078D02*
X75787Y-45275D01*
X75787Y-49212D02*
X75787Y-49409D01*
X75098Y-48523D02*
X75787Y-49212D01*
X75098Y-45964D02*
X75098Y-48523D01*
X75787Y-45275D02*
X75098Y-45964D01*
X75787Y-40748D02*
X75787Y-40944D01*
X75787Y-44881D02*
X75787Y-45078D01*
X75000Y-44094D02*
X75787Y-44881D01*
X75000Y-43897D02*
X75000Y-44094D01*
X75000Y-41732D02*
X75000Y-43897D01*
X75787Y-40944D02*
X75000Y-41732D01*
X75787Y-36417D02*
X75787Y-36614D01*
X75787Y-40551D02*
X75787Y-40748D01*
X75000Y-39763D02*
X75787Y-40551D01*
X75000Y-37401D02*
X75000Y-39763D01*
X75787Y-36614D02*
X75000Y-37401D01*
X75877Y-36326D02*
X75787Y-36417D01*
X75877Y-34645D02*
X75877Y-36326D01*
G54D19*
X89657Y-52362D02*
X88582Y-52362D01*
X88582Y-52362D02*
X88188Y-51968D01*
X88188Y-51968D02*
X88188Y-47244D01*
X88188Y-47244D02*
X87657Y-46712D01*
X87657Y-46712D02*
X87657Y-46062D01*
G54D18*
X92019Y-52362D02*
X92019Y-48531D01*
X92838Y-47712D02*
X93232Y-47712D01*
X92019Y-48531D02*
X92838Y-47712D01*
X89657Y-52362D02*
X89657Y-52074D01*
X91232Y-51574D02*
X92019Y-52362D01*
X90157Y-51574D02*
X91232Y-51574D01*
X89657Y-52074D02*
X90157Y-51574D01*
X91437Y-42224D02*
X91444Y-42224D01*
X91437Y-42224D02*
X91437Y-41338D01*
X91437Y-41338D02*
X91655Y-41120D01*
X92057Y-41120D02*
X91655Y-41120D01*
X91444Y-42224D02*
X91740Y-42519D01*
X91740Y-42519D02*
X91732Y-42519D01*
X92057Y-38120D02*
X92391Y-38120D01*
X92391Y-38120D02*
X92618Y-37893D01*
X92618Y-37893D02*
X92618Y-36909D01*
X92618Y-36909D02*
X92905Y-36622D01*
X92905Y-36622D02*
X93307Y-36622D01*
G54D10*
G36*
X85950Y-52879D02*
X84743Y-52879D01*
X84759Y-52869D01*
X85054Y-52574D01*
X85119Y-52477D01*
X85142Y-52362D01*
X85142Y-52362D01*
X85142Y-52336D01*
X85187Y-52336D01*
X85279Y-52298D01*
X85349Y-52228D01*
X85387Y-52136D01*
X85387Y-52037D01*
X85387Y-51013D01*
X85349Y-50921D01*
X85279Y-50851D01*
X85187Y-50813D01*
X85088Y-50812D01*
X84497Y-50812D01*
X84405Y-50850D01*
X84335Y-50921D01*
X84297Y-51013D01*
X84297Y-51112D01*
X84297Y-52136D01*
X84335Y-52228D01*
X84341Y-52234D01*
X84336Y-52232D01*
X84167Y-52232D01*
X84162Y-52234D01*
X84168Y-52228D01*
X84206Y-52136D01*
X84206Y-52037D01*
X84206Y-51013D01*
X84168Y-50921D01*
X84098Y-50851D01*
X84044Y-50828D01*
X84080Y-50792D01*
X84547Y-50792D01*
X84547Y-50792D01*
X84662Y-50769D01*
X84662Y-50769D01*
X84759Y-50704D01*
X85054Y-50408D01*
X85119Y-50311D01*
X85142Y-50196D01*
X85142Y-50196D01*
X85142Y-50171D01*
X85187Y-50171D01*
X85279Y-50133D01*
X85349Y-50063D01*
X85387Y-49971D01*
X85387Y-49871D01*
X85387Y-48848D01*
X85349Y-48756D01*
X85279Y-48685D01*
X85187Y-48647D01*
X85088Y-48647D01*
X84532Y-48647D01*
X84554Y-48625D01*
X84662Y-48603D01*
X84662Y-48603D01*
X84759Y-48538D01*
X85054Y-48243D01*
X85119Y-48146D01*
X85142Y-48031D01*
X85142Y-48031D01*
X85142Y-48005D01*
X85187Y-48005D01*
X85279Y-47967D01*
X85349Y-47897D01*
X85387Y-47805D01*
X85387Y-47706D01*
X85387Y-46682D01*
X85349Y-46590D01*
X85279Y-46520D01*
X85187Y-46482D01*
X85088Y-46482D01*
X84497Y-46482D01*
X84405Y-46520D01*
X84335Y-46590D01*
X84297Y-46682D01*
X84297Y-46781D01*
X84297Y-47805D01*
X84335Y-47897D01*
X84341Y-47903D01*
X84336Y-47901D01*
X84167Y-47901D01*
X84162Y-47904D01*
X84168Y-47897D01*
X84206Y-47805D01*
X84206Y-47706D01*
X84206Y-46682D01*
X84168Y-46590D01*
X84098Y-46520D01*
X84044Y-46497D01*
X84080Y-46461D01*
X84547Y-46461D01*
X84547Y-46461D01*
X84662Y-46438D01*
X84662Y-46438D01*
X84759Y-46373D01*
X85054Y-46078D01*
X85119Y-45980D01*
X85142Y-45866D01*
X85142Y-45866D01*
X85142Y-45840D01*
X85187Y-45840D01*
X85279Y-45802D01*
X85349Y-45732D01*
X85387Y-45640D01*
X85387Y-45541D01*
X85387Y-44517D01*
X85349Y-44425D01*
X85279Y-44355D01*
X85187Y-44316D01*
X85088Y-44316D01*
X84532Y-44316D01*
X84554Y-44294D01*
X84662Y-44273D01*
X84662Y-44273D01*
X84759Y-44208D01*
X85054Y-43912D01*
X85119Y-43815D01*
X85142Y-43700D01*
X85142Y-43700D01*
X85142Y-43675D01*
X85187Y-43675D01*
X85279Y-43637D01*
X85349Y-43566D01*
X85387Y-43475D01*
X85387Y-43375D01*
X85387Y-42352D01*
X85349Y-42260D01*
X85279Y-42189D01*
X85187Y-42151D01*
X85088Y-42151D01*
X84497Y-42151D01*
X84405Y-42189D01*
X84335Y-42259D01*
X84297Y-42351D01*
X84297Y-42451D01*
X84297Y-43474D01*
X84335Y-43566D01*
X84341Y-43573D01*
X84336Y-43571D01*
X84167Y-43570D01*
X84162Y-43573D01*
X84168Y-43566D01*
X84206Y-43475D01*
X84206Y-43375D01*
X84206Y-42352D01*
X84168Y-42260D01*
X84098Y-42189D01*
X84044Y-42167D01*
X84080Y-42130D01*
X84547Y-42130D01*
X84547Y-42130D01*
X84662Y-42107D01*
X84662Y-42107D01*
X84759Y-42042D01*
X85054Y-41747D01*
X85119Y-41650D01*
X85142Y-41535D01*
X85142Y-41535D01*
X85142Y-41509D01*
X85187Y-41509D01*
X85279Y-41471D01*
X85349Y-41401D01*
X85387Y-41309D01*
X85387Y-41210D01*
X85387Y-40186D01*
X85349Y-40094D01*
X85279Y-40024D01*
X85187Y-39986D01*
X85088Y-39986D01*
X84532Y-39986D01*
X84554Y-39963D01*
X84662Y-39942D01*
X84662Y-39942D01*
X84759Y-39877D01*
X85054Y-39582D01*
X85119Y-39484D01*
X85142Y-39370D01*
X85142Y-39370D01*
X85142Y-39344D01*
X85187Y-39344D01*
X85279Y-39306D01*
X85349Y-39236D01*
X85387Y-39144D01*
X85387Y-39044D01*
X85387Y-38021D01*
X85349Y-37929D01*
X85279Y-37859D01*
X85187Y-37820D01*
X85088Y-37820D01*
X84497Y-37820D01*
X84405Y-37858D01*
X84335Y-37929D01*
X84297Y-38020D01*
X84297Y-38120D01*
X84297Y-39143D01*
X84335Y-39235D01*
X84341Y-39242D01*
X84336Y-39240D01*
X84167Y-39240D01*
X84162Y-39242D01*
X84168Y-39236D01*
X84206Y-39144D01*
X84206Y-39044D01*
X84206Y-38021D01*
X84168Y-37929D01*
X84098Y-37859D01*
X84044Y-37836D01*
X84080Y-37800D01*
X84547Y-37800D01*
X84547Y-37799D01*
X84662Y-37777D01*
X84662Y-37777D01*
X84759Y-37712D01*
X85054Y-37416D01*
X85119Y-37319D01*
X85142Y-37204D01*
X85142Y-37204D01*
X85142Y-37179D01*
X85187Y-37179D01*
X85279Y-37141D01*
X85349Y-37070D01*
X85387Y-36979D01*
X85387Y-36879D01*
X85387Y-35856D01*
X85349Y-35764D01*
X85281Y-35695D01*
X85281Y-34721D01*
X85270Y-34512D01*
X85212Y-34372D01*
X85119Y-34348D01*
X85049Y-34419D01*
X85049Y-34277D01*
X85024Y-34185D01*
X84827Y-34115D01*
X84619Y-34127D01*
X84479Y-34185D01*
X84454Y-34277D01*
X84751Y-34574D01*
X85049Y-34277D01*
X85049Y-34419D01*
X84822Y-34645D01*
X85119Y-34942D01*
X85212Y-34918D01*
X85281Y-34721D01*
X85281Y-35695D01*
X85279Y-35693D01*
X85187Y-35655D01*
X85088Y-35655D01*
X85049Y-35655D01*
X85049Y-35013D01*
X84751Y-34716D01*
X84454Y-35013D01*
X84479Y-35106D01*
X84676Y-35175D01*
X84884Y-35164D01*
X85024Y-35106D01*
X85049Y-35013D01*
X85049Y-35655D01*
X84497Y-35655D01*
X84405Y-35693D01*
X84335Y-35763D01*
X84297Y-35855D01*
X84297Y-35955D01*
X84297Y-36978D01*
X84335Y-37070D01*
X84405Y-37140D01*
X84459Y-37163D01*
X84422Y-37200D01*
X83956Y-37200D01*
X83841Y-37222D01*
X83744Y-37287D01*
X83449Y-37583D01*
X83384Y-37680D01*
X83361Y-37795D01*
X83361Y-37820D01*
X83316Y-37820D01*
X83224Y-37858D01*
X83174Y-37909D01*
X83174Y-37525D01*
X83520Y-37179D01*
X84006Y-37179D01*
X84098Y-37141D01*
X84168Y-37070D01*
X84206Y-36979D01*
X84206Y-36879D01*
X84206Y-35856D01*
X84168Y-35764D01*
X84098Y-35693D01*
X84051Y-35674D01*
X84051Y-35170D01*
X84076Y-35170D01*
X84168Y-35132D01*
X84238Y-35062D01*
X84276Y-34970D01*
X84277Y-34883D01*
X84291Y-34918D01*
X84384Y-34942D01*
X84681Y-34645D01*
X84384Y-34348D01*
X84291Y-34372D01*
X84277Y-34413D01*
X84277Y-34321D01*
X84239Y-34229D01*
X84168Y-34158D01*
X84076Y-34120D01*
X83977Y-34120D01*
X83427Y-34120D01*
X83335Y-34158D01*
X83265Y-34228D01*
X83227Y-34320D01*
X83226Y-34420D01*
X83226Y-34970D01*
X83264Y-35062D01*
X83335Y-35132D01*
X83427Y-35170D01*
X83451Y-35170D01*
X83451Y-35655D01*
X83316Y-35655D01*
X83224Y-35693D01*
X83154Y-35763D01*
X83116Y-35855D01*
X83116Y-35955D01*
X83116Y-36735D01*
X82661Y-37189D01*
X82596Y-37286D01*
X82574Y-37401D01*
X82574Y-39763D01*
X82596Y-39878D01*
X82661Y-39975D01*
X83116Y-40430D01*
X83116Y-41065D01*
X82661Y-41520D01*
X82596Y-41617D01*
X82574Y-41732D01*
X82574Y-43897D01*
X82574Y-44094D01*
X82596Y-44209D01*
X82661Y-44306D01*
X83116Y-44760D01*
X83116Y-45396D01*
X82760Y-45752D01*
X82695Y-45849D01*
X82672Y-45964D01*
X82672Y-48523D01*
X82695Y-48638D01*
X82760Y-48735D01*
X83116Y-49091D01*
X83116Y-49970D01*
X83154Y-50062D01*
X83224Y-50133D01*
X83316Y-50171D01*
X83415Y-50171D01*
X84006Y-50171D01*
X84098Y-50133D01*
X84168Y-50063D01*
X84206Y-49971D01*
X84206Y-49871D01*
X84206Y-48848D01*
X84168Y-48756D01*
X84162Y-48749D01*
X84167Y-48751D01*
X84336Y-48751D01*
X84341Y-48749D01*
X84335Y-48755D01*
X84297Y-48847D01*
X84297Y-48947D01*
X84297Y-49970D01*
X84335Y-50062D01*
X84405Y-50133D01*
X84459Y-50155D01*
X84422Y-50192D01*
X83956Y-50192D01*
X83841Y-50214D01*
X83744Y-50279D01*
X83449Y-50575D01*
X83384Y-50672D01*
X83361Y-50787D01*
X83361Y-50812D01*
X83316Y-50812D01*
X83224Y-50850D01*
X83154Y-50921D01*
X83116Y-51013D01*
X83116Y-51112D01*
X83116Y-52136D01*
X83154Y-52228D01*
X83224Y-52298D01*
X83316Y-52336D01*
X83415Y-52336D01*
X83971Y-52336D01*
X83891Y-52416D01*
X83827Y-52572D01*
X83826Y-52741D01*
X83884Y-52879D01*
X82553Y-52879D01*
X82553Y-33734D01*
X85950Y-33734D01*
X85950Y-52879D01*
X85950Y-52879D01*
G37*
G54D18*
X85950Y-52879D02*
X84743Y-52879D01*
X84759Y-52869D01*
X85054Y-52574D01*
X85119Y-52477D01*
X85142Y-52362D01*
X85142Y-52362D01*
X85142Y-52336D01*
X85187Y-52336D01*
X85279Y-52298D01*
X85349Y-52228D01*
X85387Y-52136D01*
X85387Y-52037D01*
X85387Y-51013D01*
X85349Y-50921D01*
X85279Y-50851D01*
X85187Y-50813D01*
X85088Y-50812D01*
X84497Y-50812D01*
X84405Y-50850D01*
X84335Y-50921D01*
X84297Y-51013D01*
X84297Y-51112D01*
X84297Y-52136D01*
X84335Y-52228D01*
X84341Y-52234D01*
X84336Y-52232D01*
X84167Y-52232D01*
X84162Y-52234D01*
X84168Y-52228D01*
X84206Y-52136D01*
X84206Y-52037D01*
X84206Y-51013D01*
X84168Y-50921D01*
X84098Y-50851D01*
X84044Y-50828D01*
X84080Y-50792D01*
X84547Y-50792D01*
X84547Y-50792D01*
X84662Y-50769D01*
X84662Y-50769D01*
X84759Y-50704D01*
X85054Y-50408D01*
X85119Y-50311D01*
X85142Y-50196D01*
X85142Y-50196D01*
X85142Y-50171D01*
X85187Y-50171D01*
X85279Y-50133D01*
X85349Y-50063D01*
X85387Y-49971D01*
X85387Y-49871D01*
X85387Y-48848D01*
X85349Y-48756D01*
X85279Y-48685D01*
X85187Y-48647D01*
X85088Y-48647D01*
X84532Y-48647D01*
X84554Y-48625D01*
X84662Y-48603D01*
X84662Y-48603D01*
X84759Y-48538D01*
X85054Y-48243D01*
X85119Y-48146D01*
X85142Y-48031D01*
X85142Y-48031D01*
X85142Y-48005D01*
X85187Y-48005D01*
X85279Y-47967D01*
X85349Y-47897D01*
X85387Y-47805D01*
X85387Y-47706D01*
X85387Y-46682D01*
X85349Y-46590D01*
X85279Y-46520D01*
X85187Y-46482D01*
X85088Y-46482D01*
X84497Y-46482D01*
X84405Y-46520D01*
X84335Y-46590D01*
X84297Y-46682D01*
X84297Y-46781D01*
X84297Y-47805D01*
X84335Y-47897D01*
X84341Y-47903D01*
X84336Y-47901D01*
X84167Y-47901D01*
X84162Y-47904D01*
X84168Y-47897D01*
X84206Y-47805D01*
X84206Y-47706D01*
X84206Y-46682D01*
X84168Y-46590D01*
X84098Y-46520D01*
X84044Y-46497D01*
X84080Y-46461D01*
X84547Y-46461D01*
X84547Y-46461D01*
X84662Y-46438D01*
X84662Y-46438D01*
X84759Y-46373D01*
X85054Y-46078D01*
X85119Y-45980D01*
X85142Y-45866D01*
X85142Y-45866D01*
X85142Y-45840D01*
X85187Y-45840D01*
X85279Y-45802D01*
X85349Y-45732D01*
X85387Y-45640D01*
X85387Y-45541D01*
X85387Y-44517D01*
X85349Y-44425D01*
X85279Y-44355D01*
X85187Y-44316D01*
X85088Y-44316D01*
X84532Y-44316D01*
X84554Y-44294D01*
X84662Y-44273D01*
X84662Y-44273D01*
X84759Y-44208D01*
X85054Y-43912D01*
X85119Y-43815D01*
X85142Y-43700D01*
X85142Y-43700D01*
X85142Y-43675D01*
X85187Y-43675D01*
X85279Y-43637D01*
X85349Y-43566D01*
X85387Y-43475D01*
X85387Y-43375D01*
X85387Y-42352D01*
X85349Y-42260D01*
X85279Y-42189D01*
X85187Y-42151D01*
X85088Y-42151D01*
X84497Y-42151D01*
X84405Y-42189D01*
X84335Y-42259D01*
X84297Y-42351D01*
X84297Y-42451D01*
X84297Y-43474D01*
X84335Y-43566D01*
X84341Y-43573D01*
X84336Y-43571D01*
X84167Y-43570D01*
X84162Y-43573D01*
X84168Y-43566D01*
X84206Y-43475D01*
X84206Y-43375D01*
X84206Y-42352D01*
X84168Y-42260D01*
X84098Y-42189D01*
X84044Y-42167D01*
X84080Y-42130D01*
X84547Y-42130D01*
X84547Y-42130D01*
X84662Y-42107D01*
X84662Y-42107D01*
X84759Y-42042D01*
X85054Y-41747D01*
X85119Y-41650D01*
X85142Y-41535D01*
X85142Y-41535D01*
X85142Y-41509D01*
X85187Y-41509D01*
X85279Y-41471D01*
X85349Y-41401D01*
X85387Y-41309D01*
X85387Y-41210D01*
X85387Y-40186D01*
X85349Y-40094D01*
X85279Y-40024D01*
X85187Y-39986D01*
X85088Y-39986D01*
X84532Y-39986D01*
X84554Y-39963D01*
X84662Y-39942D01*
X84662Y-39942D01*
X84759Y-39877D01*
X85054Y-39582D01*
X85119Y-39484D01*
X85142Y-39370D01*
X85142Y-39370D01*
X85142Y-39344D01*
X85187Y-39344D01*
X85279Y-39306D01*
X85349Y-39236D01*
X85387Y-39144D01*
X85387Y-39044D01*
X85387Y-38021D01*
X85349Y-37929D01*
X85279Y-37859D01*
X85187Y-37820D01*
X85088Y-37820D01*
X84497Y-37820D01*
X84405Y-37858D01*
X84335Y-37929D01*
X84297Y-38020D01*
X84297Y-38120D01*
X84297Y-39143D01*
X84335Y-39235D01*
X84341Y-39242D01*
X84336Y-39240D01*
X84167Y-39240D01*
X84162Y-39242D01*
X84168Y-39236D01*
X84206Y-39144D01*
X84206Y-39044D01*
X84206Y-38021D01*
X84168Y-37929D01*
X84098Y-37859D01*
X84044Y-37836D01*
X84080Y-37800D01*
X84547Y-37800D01*
X84547Y-37799D01*
X84662Y-37777D01*
X84662Y-37777D01*
X84759Y-37712D01*
X85054Y-37416D01*
X85119Y-37319D01*
X85142Y-37204D01*
X85142Y-37204D01*
X85142Y-37179D01*
X85187Y-37179D01*
X85279Y-37141D01*
X85349Y-37070D01*
X85387Y-36979D01*
X85387Y-36879D01*
X85387Y-35856D01*
X85349Y-35764D01*
X85281Y-35695D01*
X85281Y-34721D01*
X85270Y-34512D01*
X85212Y-34372D01*
X85119Y-34348D01*
X85049Y-34419D01*
X85049Y-34277D01*
X85024Y-34185D01*
X84827Y-34115D01*
X84619Y-34127D01*
X84479Y-34185D01*
X84454Y-34277D01*
X84751Y-34574D01*
X85049Y-34277D01*
X85049Y-34419D01*
X84822Y-34645D01*
X85119Y-34942D01*
X85212Y-34918D01*
X85281Y-34721D01*
X85281Y-35695D01*
X85279Y-35693D01*
X85187Y-35655D01*
X85088Y-35655D01*
X85049Y-35655D01*
X85049Y-35013D01*
X84751Y-34716D01*
X84454Y-35013D01*
X84479Y-35106D01*
X84676Y-35175D01*
X84884Y-35164D01*
X85024Y-35106D01*
X85049Y-35013D01*
X85049Y-35655D01*
X84497Y-35655D01*
X84405Y-35693D01*
X84335Y-35763D01*
X84297Y-35855D01*
X84297Y-35955D01*
X84297Y-36978D01*
X84335Y-37070D01*
X84405Y-37140D01*
X84459Y-37163D01*
X84422Y-37200D01*
X83956Y-37200D01*
X83841Y-37222D01*
X83744Y-37287D01*
X83449Y-37583D01*
X83384Y-37680D01*
X83361Y-37795D01*
X83361Y-37820D01*
X83316Y-37820D01*
X83224Y-37858D01*
X83174Y-37909D01*
X83174Y-37525D01*
X83520Y-37179D01*
X84006Y-37179D01*
X84098Y-37141D01*
X84168Y-37070D01*
X84206Y-36979D01*
X84206Y-36879D01*
X84206Y-35856D01*
X84168Y-35764D01*
X84098Y-35693D01*
X84051Y-35674D01*
X84051Y-35170D01*
X84076Y-35170D01*
X84168Y-35132D01*
X84238Y-35062D01*
X84276Y-34970D01*
X84277Y-34883D01*
X84291Y-34918D01*
X84384Y-34942D01*
X84681Y-34645D01*
X84384Y-34348D01*
X84291Y-34372D01*
X84277Y-34413D01*
X84277Y-34321D01*
X84239Y-34229D01*
X84168Y-34158D01*
X84076Y-34120D01*
X83977Y-34120D01*
X83427Y-34120D01*
X83335Y-34158D01*
X83265Y-34228D01*
X83227Y-34320D01*
X83226Y-34420D01*
X83226Y-34970D01*
X83264Y-35062D01*
X83335Y-35132D01*
X83427Y-35170D01*
X83451Y-35170D01*
X83451Y-35655D01*
X83316Y-35655D01*
X83224Y-35693D01*
X83154Y-35763D01*
X83116Y-35855D01*
X83116Y-35955D01*
X83116Y-36735D01*
X82661Y-37189D01*
X82596Y-37286D01*
X82574Y-37401D01*
X82574Y-39763D01*
X82596Y-39878D01*
X82661Y-39975D01*
X83116Y-40430D01*
X83116Y-41065D01*
X82661Y-41520D01*
X82596Y-41617D01*
X82574Y-41732D01*
X82574Y-43897D01*
X82574Y-44094D01*
X82596Y-44209D01*
X82661Y-44306D01*
X83116Y-44760D01*
X83116Y-45396D01*
X82760Y-45752D01*
X82695Y-45849D01*
X82672Y-45964D01*
X82672Y-48523D01*
X82695Y-48638D01*
X82760Y-48735D01*
X83116Y-49091D01*
X83116Y-49970D01*
X83154Y-50062D01*
X83224Y-50133D01*
X83316Y-50171D01*
X83415Y-50171D01*
X84006Y-50171D01*
X84098Y-50133D01*
X84168Y-50063D01*
X84206Y-49971D01*
X84206Y-49871D01*
X84206Y-48848D01*
X84168Y-48756D01*
X84162Y-48749D01*
X84167Y-48751D01*
X84336Y-48751D01*
X84341Y-48749D01*
X84335Y-48755D01*
X84297Y-48847D01*
X84297Y-48947D01*
X84297Y-49970D01*
X84335Y-50062D01*
X84405Y-50133D01*
X84459Y-50155D01*
X84422Y-50192D01*
X83956Y-50192D01*
X83841Y-50214D01*
X83744Y-50279D01*
X83449Y-50575D01*
X83384Y-50672D01*
X83361Y-50787D01*
X83361Y-50812D01*
X83316Y-50812D01*
X83224Y-50850D01*
X83154Y-50921D01*
X83116Y-51013D01*
X83116Y-51112D01*
X83116Y-52136D01*
X83154Y-52228D01*
X83224Y-52298D01*
X83316Y-52336D01*
X83415Y-52336D01*
X83971Y-52336D01*
X83891Y-52416D01*
X83827Y-52572D01*
X83826Y-52741D01*
X83884Y-52879D01*
X82553Y-52879D01*
X82553Y-33734D01*
X85950Y-33734D01*
X85950Y-52879D01*
G54D10*
G36*
X82013Y-52879D02*
X80806Y-52879D01*
X80822Y-52869D01*
X81117Y-52574D01*
X81182Y-52477D01*
X81205Y-52362D01*
X81205Y-52362D01*
X81205Y-52336D01*
X81250Y-52336D01*
X81342Y-52298D01*
X81412Y-52228D01*
X81450Y-52136D01*
X81450Y-52037D01*
X81450Y-51013D01*
X81412Y-50921D01*
X81342Y-50851D01*
X81250Y-50813D01*
X81151Y-50812D01*
X80560Y-50812D01*
X80468Y-50850D01*
X80398Y-50921D01*
X80360Y-51013D01*
X80360Y-51112D01*
X80360Y-52136D01*
X80398Y-52228D01*
X80404Y-52234D01*
X80399Y-52232D01*
X80230Y-52232D01*
X80225Y-52234D01*
X80231Y-52228D01*
X80269Y-52136D01*
X80269Y-52037D01*
X80269Y-51013D01*
X80231Y-50921D01*
X80161Y-50851D01*
X80107Y-50828D01*
X80143Y-50792D01*
X80610Y-50792D01*
X80610Y-50792D01*
X80725Y-50769D01*
X80725Y-50769D01*
X80822Y-50704D01*
X81117Y-50408D01*
X81182Y-50311D01*
X81205Y-50196D01*
X81205Y-50196D01*
X81205Y-50171D01*
X81250Y-50171D01*
X81342Y-50133D01*
X81412Y-50063D01*
X81450Y-49971D01*
X81450Y-49871D01*
X81450Y-48848D01*
X81412Y-48756D01*
X81342Y-48685D01*
X81250Y-48647D01*
X81151Y-48647D01*
X80595Y-48647D01*
X80617Y-48625D01*
X80725Y-48603D01*
X80725Y-48603D01*
X80822Y-48538D01*
X81117Y-48243D01*
X81182Y-48146D01*
X81205Y-48031D01*
X81205Y-48031D01*
X81205Y-48005D01*
X81250Y-48005D01*
X81342Y-47967D01*
X81412Y-47897D01*
X81450Y-47805D01*
X81450Y-47706D01*
X81450Y-46682D01*
X81412Y-46590D01*
X81342Y-46520D01*
X81250Y-46482D01*
X81151Y-46482D01*
X80560Y-46482D01*
X80468Y-46520D01*
X80398Y-46590D01*
X80360Y-46682D01*
X80360Y-46781D01*
X80360Y-47805D01*
X80398Y-47897D01*
X80404Y-47903D01*
X80399Y-47901D01*
X80230Y-47901D01*
X80225Y-47904D01*
X80231Y-47897D01*
X80269Y-47805D01*
X80269Y-47706D01*
X80269Y-46682D01*
X80231Y-46590D01*
X80161Y-46520D01*
X80107Y-46497D01*
X80143Y-46461D01*
X80610Y-46461D01*
X80610Y-46461D01*
X80725Y-46438D01*
X80725Y-46438D01*
X80822Y-46373D01*
X81117Y-46078D01*
X81182Y-45980D01*
X81205Y-45866D01*
X81205Y-45866D01*
X81205Y-45840D01*
X81250Y-45840D01*
X81342Y-45802D01*
X81412Y-45732D01*
X81450Y-45640D01*
X81450Y-45541D01*
X81450Y-44517D01*
X81412Y-44425D01*
X81342Y-44355D01*
X81250Y-44316D01*
X81151Y-44316D01*
X80595Y-44316D01*
X80617Y-44294D01*
X80725Y-44273D01*
X80725Y-44273D01*
X80822Y-44208D01*
X81117Y-43912D01*
X81182Y-43815D01*
X81205Y-43700D01*
X81205Y-43700D01*
X81205Y-43675D01*
X81250Y-43675D01*
X81342Y-43637D01*
X81412Y-43566D01*
X81450Y-43475D01*
X81450Y-43375D01*
X81450Y-42352D01*
X81412Y-42260D01*
X81342Y-42189D01*
X81250Y-42151D01*
X81151Y-42151D01*
X80560Y-42151D01*
X80468Y-42189D01*
X80398Y-42259D01*
X80360Y-42351D01*
X80360Y-42451D01*
X80360Y-43474D01*
X80398Y-43566D01*
X80404Y-43573D01*
X80399Y-43571D01*
X80230Y-43570D01*
X80225Y-43573D01*
X80231Y-43566D01*
X80269Y-43475D01*
X80269Y-43375D01*
X80269Y-42352D01*
X80231Y-42260D01*
X80161Y-42189D01*
X80107Y-42167D01*
X80143Y-42130D01*
X80610Y-42130D01*
X80610Y-42130D01*
X80725Y-42107D01*
X80725Y-42107D01*
X80822Y-42042D01*
X81117Y-41747D01*
X81182Y-41650D01*
X81205Y-41535D01*
X81205Y-41535D01*
X81205Y-41509D01*
X81250Y-41509D01*
X81342Y-41471D01*
X81412Y-41401D01*
X81450Y-41309D01*
X81450Y-41210D01*
X81450Y-40186D01*
X81412Y-40094D01*
X81342Y-40024D01*
X81250Y-39986D01*
X81151Y-39986D01*
X80595Y-39986D01*
X80617Y-39963D01*
X80725Y-39942D01*
X80725Y-39942D01*
X80822Y-39877D01*
X81117Y-39582D01*
X81182Y-39484D01*
X81205Y-39370D01*
X81205Y-39370D01*
X81205Y-39344D01*
X81250Y-39344D01*
X81342Y-39306D01*
X81412Y-39236D01*
X81450Y-39144D01*
X81450Y-39044D01*
X81450Y-38021D01*
X81412Y-37929D01*
X81342Y-37859D01*
X81250Y-37820D01*
X81151Y-37820D01*
X80560Y-37820D01*
X80468Y-37858D01*
X80398Y-37929D01*
X80360Y-38020D01*
X80360Y-38120D01*
X80360Y-39143D01*
X80398Y-39235D01*
X80404Y-39242D01*
X80399Y-39240D01*
X80230Y-39240D01*
X80225Y-39242D01*
X80231Y-39236D01*
X80269Y-39144D01*
X80269Y-39044D01*
X80269Y-38021D01*
X80231Y-37929D01*
X80161Y-37859D01*
X80107Y-37836D01*
X80143Y-37800D01*
X80610Y-37800D01*
X80610Y-37799D01*
X80725Y-37777D01*
X80725Y-37777D01*
X80822Y-37712D01*
X81117Y-37416D01*
X81182Y-37319D01*
X81205Y-37204D01*
X81205Y-37204D01*
X81205Y-37179D01*
X81250Y-37179D01*
X81342Y-37141D01*
X81412Y-37070D01*
X81450Y-36979D01*
X81450Y-36879D01*
X81450Y-35856D01*
X81412Y-35764D01*
X81344Y-35695D01*
X81344Y-34721D01*
X81333Y-34512D01*
X81275Y-34372D01*
X81182Y-34348D01*
X81112Y-34419D01*
X81112Y-34277D01*
X81087Y-34185D01*
X80890Y-34115D01*
X80682Y-34127D01*
X80542Y-34185D01*
X80517Y-34277D01*
X80814Y-34574D01*
X81112Y-34277D01*
X81112Y-34419D01*
X80885Y-34645D01*
X81182Y-34942D01*
X81275Y-34918D01*
X81344Y-34721D01*
X81344Y-35695D01*
X81342Y-35693D01*
X81250Y-35655D01*
X81151Y-35655D01*
X81112Y-35655D01*
X81112Y-35013D01*
X80814Y-34716D01*
X80517Y-35013D01*
X80542Y-35106D01*
X80739Y-35175D01*
X80947Y-35164D01*
X81087Y-35106D01*
X81112Y-35013D01*
X81112Y-35655D01*
X80560Y-35655D01*
X80468Y-35693D01*
X80398Y-35763D01*
X80360Y-35855D01*
X80360Y-35955D01*
X80360Y-36978D01*
X80398Y-37070D01*
X80468Y-37140D01*
X80522Y-37163D01*
X80485Y-37200D01*
X80019Y-37200D01*
X79904Y-37222D01*
X79807Y-37287D01*
X79512Y-37583D01*
X79447Y-37680D01*
X79424Y-37795D01*
X79424Y-37820D01*
X79379Y-37820D01*
X79287Y-37858D01*
X79237Y-37909D01*
X79237Y-37525D01*
X79583Y-37179D01*
X80069Y-37179D01*
X80161Y-37141D01*
X80231Y-37070D01*
X80269Y-36979D01*
X80269Y-36879D01*
X80269Y-35856D01*
X80231Y-35764D01*
X80161Y-35693D01*
X80114Y-35674D01*
X80114Y-35170D01*
X80139Y-35170D01*
X80231Y-35132D01*
X80301Y-35062D01*
X80339Y-34970D01*
X80339Y-34883D01*
X80354Y-34918D01*
X80447Y-34942D01*
X80744Y-34645D01*
X80447Y-34348D01*
X80354Y-34372D01*
X80340Y-34413D01*
X80340Y-34321D01*
X80302Y-34229D01*
X80231Y-34158D01*
X80139Y-34120D01*
X80040Y-34120D01*
X79490Y-34120D01*
X79398Y-34158D01*
X79328Y-34228D01*
X79290Y-34320D01*
X79289Y-34420D01*
X79289Y-34970D01*
X79327Y-35062D01*
X79398Y-35132D01*
X79490Y-35170D01*
X79514Y-35170D01*
X79514Y-35655D01*
X79379Y-35655D01*
X79287Y-35693D01*
X79217Y-35763D01*
X79179Y-35855D01*
X79179Y-35955D01*
X79179Y-36735D01*
X78724Y-37189D01*
X78659Y-37286D01*
X78637Y-37401D01*
X78637Y-39763D01*
X78659Y-39878D01*
X78724Y-39975D01*
X79179Y-40430D01*
X79179Y-41065D01*
X78724Y-41520D01*
X78659Y-41617D01*
X78637Y-41732D01*
X78637Y-43897D01*
X78637Y-44094D01*
X78659Y-44209D01*
X78724Y-44306D01*
X79179Y-44760D01*
X79179Y-45396D01*
X78823Y-45752D01*
X78758Y-45849D01*
X78735Y-45964D01*
X78735Y-48523D01*
X78758Y-48638D01*
X78823Y-48735D01*
X79179Y-49091D01*
X79179Y-49970D01*
X79217Y-50062D01*
X79287Y-50133D01*
X79379Y-50171D01*
X79478Y-50171D01*
X80069Y-50171D01*
X80161Y-50133D01*
X80231Y-50063D01*
X80269Y-49971D01*
X80269Y-49871D01*
X80269Y-48848D01*
X80231Y-48756D01*
X80225Y-48749D01*
X80230Y-48751D01*
X80399Y-48751D01*
X80404Y-48749D01*
X80398Y-48755D01*
X80360Y-48847D01*
X80360Y-48947D01*
X80360Y-49970D01*
X80398Y-50062D01*
X80468Y-50133D01*
X80522Y-50155D01*
X80485Y-50192D01*
X80019Y-50192D01*
X79904Y-50214D01*
X79807Y-50279D01*
X79512Y-50575D01*
X79447Y-50672D01*
X79424Y-50787D01*
X79424Y-50812D01*
X79379Y-50812D01*
X79287Y-50850D01*
X79217Y-50921D01*
X79179Y-51013D01*
X79179Y-51112D01*
X79179Y-52136D01*
X79217Y-52228D01*
X79287Y-52298D01*
X79379Y-52336D01*
X79478Y-52336D01*
X80034Y-52336D01*
X79954Y-52416D01*
X79890Y-52572D01*
X79889Y-52741D01*
X79947Y-52879D01*
X78616Y-52879D01*
X78616Y-33734D01*
X82013Y-33734D01*
X82013Y-52879D01*
X82013Y-52879D01*
G37*
G54D18*
X82013Y-52879D02*
X80806Y-52879D01*
X80822Y-52869D01*
X81117Y-52574D01*
X81182Y-52477D01*
X81205Y-52362D01*
X81205Y-52362D01*
X81205Y-52336D01*
X81250Y-52336D01*
X81342Y-52298D01*
X81412Y-52228D01*
X81450Y-52136D01*
X81450Y-52037D01*
X81450Y-51013D01*
X81412Y-50921D01*
X81342Y-50851D01*
X81250Y-50813D01*
X81151Y-50812D01*
X80560Y-50812D01*
X80468Y-50850D01*
X80398Y-50921D01*
X80360Y-51013D01*
X80360Y-51112D01*
X80360Y-52136D01*
X80398Y-52228D01*
X80404Y-52234D01*
X80399Y-52232D01*
X80230Y-52232D01*
X80225Y-52234D01*
X80231Y-52228D01*
X80269Y-52136D01*
X80269Y-52037D01*
X80269Y-51013D01*
X80231Y-50921D01*
X80161Y-50851D01*
X80107Y-50828D01*
X80143Y-50792D01*
X80610Y-50792D01*
X80610Y-50792D01*
X80725Y-50769D01*
X80725Y-50769D01*
X80822Y-50704D01*
X81117Y-50408D01*
X81182Y-50311D01*
X81205Y-50196D01*
X81205Y-50196D01*
X81205Y-50171D01*
X81250Y-50171D01*
X81342Y-50133D01*
X81412Y-50063D01*
X81450Y-49971D01*
X81450Y-49871D01*
X81450Y-48848D01*
X81412Y-48756D01*
X81342Y-48685D01*
X81250Y-48647D01*
X81151Y-48647D01*
X80595Y-48647D01*
X80617Y-48625D01*
X80725Y-48603D01*
X80725Y-48603D01*
X80822Y-48538D01*
X81117Y-48243D01*
X81182Y-48146D01*
X81205Y-48031D01*
X81205Y-48031D01*
X81205Y-48005D01*
X81250Y-48005D01*
X81342Y-47967D01*
X81412Y-47897D01*
X81450Y-47805D01*
X81450Y-47706D01*
X81450Y-46682D01*
X81412Y-46590D01*
X81342Y-46520D01*
X81250Y-46482D01*
X81151Y-46482D01*
X80560Y-46482D01*
X80468Y-46520D01*
X80398Y-46590D01*
X80360Y-46682D01*
X80360Y-46781D01*
X80360Y-47805D01*
X80398Y-47897D01*
X80404Y-47903D01*
X80399Y-47901D01*
X80230Y-47901D01*
X80225Y-47904D01*
X80231Y-47897D01*
X80269Y-47805D01*
X80269Y-47706D01*
X80269Y-46682D01*
X80231Y-46590D01*
X80161Y-46520D01*
X80107Y-46497D01*
X80143Y-46461D01*
X80610Y-46461D01*
X80610Y-46461D01*
X80725Y-46438D01*
X80725Y-46438D01*
X80822Y-46373D01*
X81117Y-46078D01*
X81182Y-45980D01*
X81205Y-45866D01*
X81205Y-45866D01*
X81205Y-45840D01*
X81250Y-45840D01*
X81342Y-45802D01*
X81412Y-45732D01*
X81450Y-45640D01*
X81450Y-45541D01*
X81450Y-44517D01*
X81412Y-44425D01*
X81342Y-44355D01*
X81250Y-44316D01*
X81151Y-44316D01*
X80595Y-44316D01*
X80617Y-44294D01*
X80725Y-44273D01*
X80725Y-44273D01*
X80822Y-44208D01*
X81117Y-43912D01*
X81182Y-43815D01*
X81205Y-43700D01*
X81205Y-43700D01*
X81205Y-43675D01*
X81250Y-43675D01*
X81342Y-43637D01*
X81412Y-43566D01*
X81450Y-43475D01*
X81450Y-43375D01*
X81450Y-42352D01*
X81412Y-42260D01*
X81342Y-42189D01*
X81250Y-42151D01*
X81151Y-42151D01*
X80560Y-42151D01*
X80468Y-42189D01*
X80398Y-42259D01*
X80360Y-42351D01*
X80360Y-42451D01*
X80360Y-43474D01*
X80398Y-43566D01*
X80404Y-43573D01*
X80399Y-43571D01*
X80230Y-43570D01*
X80225Y-43573D01*
X80231Y-43566D01*
X80269Y-43475D01*
X80269Y-43375D01*
X80269Y-42352D01*
X80231Y-42260D01*
X80161Y-42189D01*
X80107Y-42167D01*
X80143Y-42130D01*
X80610Y-42130D01*
X80610Y-42130D01*
X80725Y-42107D01*
X80725Y-42107D01*
X80822Y-42042D01*
X81117Y-41747D01*
X81182Y-41650D01*
X81205Y-41535D01*
X81205Y-41535D01*
X81205Y-41509D01*
X81250Y-41509D01*
X81342Y-41471D01*
X81412Y-41401D01*
X81450Y-41309D01*
X81450Y-41210D01*
X81450Y-40186D01*
X81412Y-40094D01*
X81342Y-40024D01*
X81250Y-39986D01*
X81151Y-39986D01*
X80595Y-39986D01*
X80617Y-39963D01*
X80725Y-39942D01*
X80725Y-39942D01*
X80822Y-39877D01*
X81117Y-39582D01*
X81182Y-39484D01*
X81205Y-39370D01*
X81205Y-39370D01*
X81205Y-39344D01*
X81250Y-39344D01*
X81342Y-39306D01*
X81412Y-39236D01*
X81450Y-39144D01*
X81450Y-39044D01*
X81450Y-38021D01*
X81412Y-37929D01*
X81342Y-37859D01*
X81250Y-37820D01*
X81151Y-37820D01*
X80560Y-37820D01*
X80468Y-37858D01*
X80398Y-37929D01*
X80360Y-38020D01*
X80360Y-38120D01*
X80360Y-39143D01*
X80398Y-39235D01*
X80404Y-39242D01*
X80399Y-39240D01*
X80230Y-39240D01*
X80225Y-39242D01*
X80231Y-39236D01*
X80269Y-39144D01*
X80269Y-39044D01*
X80269Y-38021D01*
X80231Y-37929D01*
X80161Y-37859D01*
X80107Y-37836D01*
X80143Y-37800D01*
X80610Y-37800D01*
X80610Y-37799D01*
X80725Y-37777D01*
X80725Y-37777D01*
X80822Y-37712D01*
X81117Y-37416D01*
X81182Y-37319D01*
X81205Y-37204D01*
X81205Y-37204D01*
X81205Y-37179D01*
X81250Y-37179D01*
X81342Y-37141D01*
X81412Y-37070D01*
X81450Y-36979D01*
X81450Y-36879D01*
X81450Y-35856D01*
X81412Y-35764D01*
X81344Y-35695D01*
X81344Y-34721D01*
X81333Y-34512D01*
X81275Y-34372D01*
X81182Y-34348D01*
X81112Y-34419D01*
X81112Y-34277D01*
X81087Y-34185D01*
X80890Y-34115D01*
X80682Y-34127D01*
X80542Y-34185D01*
X80517Y-34277D01*
X80814Y-34574D01*
X81112Y-34277D01*
X81112Y-34419D01*
X80885Y-34645D01*
X81182Y-34942D01*
X81275Y-34918D01*
X81344Y-34721D01*
X81344Y-35695D01*
X81342Y-35693D01*
X81250Y-35655D01*
X81151Y-35655D01*
X81112Y-35655D01*
X81112Y-35013D01*
X80814Y-34716D01*
X80517Y-35013D01*
X80542Y-35106D01*
X80739Y-35175D01*
X80947Y-35164D01*
X81087Y-35106D01*
X81112Y-35013D01*
X81112Y-35655D01*
X80560Y-35655D01*
X80468Y-35693D01*
X80398Y-35763D01*
X80360Y-35855D01*
X80360Y-35955D01*
X80360Y-36978D01*
X80398Y-37070D01*
X80468Y-37140D01*
X80522Y-37163D01*
X80485Y-37200D01*
X80019Y-37200D01*
X79904Y-37222D01*
X79807Y-37287D01*
X79512Y-37583D01*
X79447Y-37680D01*
X79424Y-37795D01*
X79424Y-37820D01*
X79379Y-37820D01*
X79287Y-37858D01*
X79237Y-37909D01*
X79237Y-37525D01*
X79583Y-37179D01*
X80069Y-37179D01*
X80161Y-37141D01*
X80231Y-37070D01*
X80269Y-36979D01*
X80269Y-36879D01*
X80269Y-35856D01*
X80231Y-35764D01*
X80161Y-35693D01*
X80114Y-35674D01*
X80114Y-35170D01*
X80139Y-35170D01*
X80231Y-35132D01*
X80301Y-35062D01*
X80339Y-34970D01*
X80339Y-34883D01*
X80354Y-34918D01*
X80447Y-34942D01*
X80744Y-34645D01*
X80447Y-34348D01*
X80354Y-34372D01*
X80340Y-34413D01*
X80340Y-34321D01*
X80302Y-34229D01*
X80231Y-34158D01*
X80139Y-34120D01*
X80040Y-34120D01*
X79490Y-34120D01*
X79398Y-34158D01*
X79328Y-34228D01*
X79290Y-34320D01*
X79289Y-34420D01*
X79289Y-34970D01*
X79327Y-35062D01*
X79398Y-35132D01*
X79490Y-35170D01*
X79514Y-35170D01*
X79514Y-35655D01*
X79379Y-35655D01*
X79287Y-35693D01*
X79217Y-35763D01*
X79179Y-35855D01*
X79179Y-35955D01*
X79179Y-36735D01*
X78724Y-37189D01*
X78659Y-37286D01*
X78637Y-37401D01*
X78637Y-39763D01*
X78659Y-39878D01*
X78724Y-39975D01*
X79179Y-40430D01*
X79179Y-41065D01*
X78724Y-41520D01*
X78659Y-41617D01*
X78637Y-41732D01*
X78637Y-43897D01*
X78637Y-44094D01*
X78659Y-44209D01*
X78724Y-44306D01*
X79179Y-44760D01*
X79179Y-45396D01*
X78823Y-45752D01*
X78758Y-45849D01*
X78735Y-45964D01*
X78735Y-48523D01*
X78758Y-48638D01*
X78823Y-48735D01*
X79179Y-49091D01*
X79179Y-49970D01*
X79217Y-50062D01*
X79287Y-50133D01*
X79379Y-50171D01*
X79478Y-50171D01*
X80069Y-50171D01*
X80161Y-50133D01*
X80231Y-50063D01*
X80269Y-49971D01*
X80269Y-49871D01*
X80269Y-48848D01*
X80231Y-48756D01*
X80225Y-48749D01*
X80230Y-48751D01*
X80399Y-48751D01*
X80404Y-48749D01*
X80398Y-48755D01*
X80360Y-48847D01*
X80360Y-48947D01*
X80360Y-49970D01*
X80398Y-50062D01*
X80468Y-50133D01*
X80522Y-50155D01*
X80485Y-50192D01*
X80019Y-50192D01*
X79904Y-50214D01*
X79807Y-50279D01*
X79512Y-50575D01*
X79447Y-50672D01*
X79424Y-50787D01*
X79424Y-50812D01*
X79379Y-50812D01*
X79287Y-50850D01*
X79217Y-50921D01*
X79179Y-51013D01*
X79179Y-51112D01*
X79179Y-52136D01*
X79217Y-52228D01*
X79287Y-52298D01*
X79379Y-52336D01*
X79478Y-52336D01*
X80034Y-52336D01*
X79954Y-52416D01*
X79890Y-52572D01*
X79889Y-52741D01*
X79947Y-52879D01*
X78616Y-52879D01*
X78616Y-33734D01*
X82013Y-33734D01*
X82013Y-52879D01*
G54D10*
G36*
X78076Y-52879D02*
X76869Y-52879D01*
X76885Y-52869D01*
X77180Y-52574D01*
X77245Y-52477D01*
X77268Y-52362D01*
X77268Y-52362D01*
X77268Y-52336D01*
X77313Y-52336D01*
X77405Y-52298D01*
X77475Y-52228D01*
X77513Y-52136D01*
X77513Y-52037D01*
X77513Y-51013D01*
X77475Y-50921D01*
X77405Y-50851D01*
X77313Y-50813D01*
X77214Y-50812D01*
X76623Y-50812D01*
X76531Y-50850D01*
X76461Y-50921D01*
X76423Y-51013D01*
X76423Y-51112D01*
X76423Y-52136D01*
X76461Y-52228D01*
X76467Y-52234D01*
X76462Y-52232D01*
X76293Y-52232D01*
X76288Y-52234D01*
X76294Y-52228D01*
X76332Y-52136D01*
X76332Y-52037D01*
X76332Y-51013D01*
X76294Y-50921D01*
X76224Y-50851D01*
X76170Y-50828D01*
X76206Y-50792D01*
X76673Y-50792D01*
X76673Y-50792D01*
X76788Y-50769D01*
X76788Y-50769D01*
X76885Y-50704D01*
X77180Y-50408D01*
X77245Y-50311D01*
X77268Y-50196D01*
X77268Y-50196D01*
X77268Y-50171D01*
X77313Y-50171D01*
X77405Y-50133D01*
X77475Y-50063D01*
X77513Y-49971D01*
X77513Y-49871D01*
X77513Y-48848D01*
X77475Y-48756D01*
X77405Y-48685D01*
X77313Y-48647D01*
X77214Y-48647D01*
X76658Y-48647D01*
X76680Y-48625D01*
X76788Y-48603D01*
X76788Y-48603D01*
X76885Y-48538D01*
X77180Y-48243D01*
X77245Y-48146D01*
X77268Y-48031D01*
X77268Y-48031D01*
X77268Y-48005D01*
X77313Y-48005D01*
X77405Y-47967D01*
X77475Y-47897D01*
X77513Y-47805D01*
X77513Y-47706D01*
X77513Y-46682D01*
X77475Y-46590D01*
X77405Y-46520D01*
X77313Y-46482D01*
X77214Y-46482D01*
X76623Y-46482D01*
X76531Y-46520D01*
X76461Y-46590D01*
X76423Y-46682D01*
X76423Y-46781D01*
X76423Y-47805D01*
X76461Y-47897D01*
X76467Y-47903D01*
X76462Y-47901D01*
X76293Y-47901D01*
X76288Y-47904D01*
X76294Y-47897D01*
X76332Y-47805D01*
X76332Y-47706D01*
X76332Y-46682D01*
X76294Y-46590D01*
X76224Y-46520D01*
X76170Y-46497D01*
X76206Y-46461D01*
X76673Y-46461D01*
X76673Y-46461D01*
X76788Y-46438D01*
X76788Y-46438D01*
X76885Y-46373D01*
X77180Y-46078D01*
X77245Y-45980D01*
X77268Y-45866D01*
X77268Y-45866D01*
X77268Y-45840D01*
X77313Y-45840D01*
X77405Y-45802D01*
X77475Y-45732D01*
X77513Y-45640D01*
X77513Y-45541D01*
X77513Y-44517D01*
X77475Y-44425D01*
X77405Y-44355D01*
X77313Y-44316D01*
X77214Y-44316D01*
X76658Y-44316D01*
X76680Y-44294D01*
X76788Y-44273D01*
X76788Y-44273D01*
X76885Y-44208D01*
X77180Y-43912D01*
X77245Y-43815D01*
X77268Y-43700D01*
X77268Y-43700D01*
X77268Y-43675D01*
X77313Y-43675D01*
X77405Y-43637D01*
X77475Y-43566D01*
X77513Y-43475D01*
X77513Y-43375D01*
X77513Y-42352D01*
X77475Y-42260D01*
X77405Y-42189D01*
X77313Y-42151D01*
X77214Y-42151D01*
X76623Y-42151D01*
X76531Y-42189D01*
X76461Y-42259D01*
X76423Y-42351D01*
X76423Y-42451D01*
X76423Y-43474D01*
X76461Y-43566D01*
X76467Y-43573D01*
X76462Y-43571D01*
X76293Y-43570D01*
X76288Y-43573D01*
X76294Y-43566D01*
X76332Y-43475D01*
X76332Y-43375D01*
X76332Y-42352D01*
X76294Y-42260D01*
X76224Y-42189D01*
X76170Y-42167D01*
X76206Y-42130D01*
X76673Y-42130D01*
X76673Y-42130D01*
X76788Y-42107D01*
X76788Y-42107D01*
X76885Y-42042D01*
X77180Y-41747D01*
X77245Y-41650D01*
X77268Y-41535D01*
X77268Y-41535D01*
X77268Y-41509D01*
X77313Y-41509D01*
X77405Y-41471D01*
X77475Y-41401D01*
X77513Y-41309D01*
X77513Y-41210D01*
X77513Y-40186D01*
X77475Y-40094D01*
X77405Y-40024D01*
X77313Y-39986D01*
X77214Y-39986D01*
X76658Y-39986D01*
X76680Y-39963D01*
X76788Y-39942D01*
X76788Y-39942D01*
X76885Y-39877D01*
X77180Y-39582D01*
X77245Y-39484D01*
X77268Y-39370D01*
X77268Y-39370D01*
X77268Y-39344D01*
X77313Y-39344D01*
X77405Y-39306D01*
X77475Y-39236D01*
X77513Y-39144D01*
X77513Y-39044D01*
X77513Y-38021D01*
X77475Y-37929D01*
X77405Y-37859D01*
X77313Y-37820D01*
X77214Y-37820D01*
X76623Y-37820D01*
X76531Y-37858D01*
X76461Y-37929D01*
X76423Y-38020D01*
X76423Y-38120D01*
X76423Y-39143D01*
X76461Y-39235D01*
X76467Y-39242D01*
X76462Y-39240D01*
X76293Y-39240D01*
X76288Y-39242D01*
X76294Y-39236D01*
X76332Y-39144D01*
X76332Y-39044D01*
X76332Y-38021D01*
X76294Y-37929D01*
X76224Y-37859D01*
X76170Y-37836D01*
X76206Y-37800D01*
X76673Y-37800D01*
X76673Y-37799D01*
X76788Y-37777D01*
X76788Y-37777D01*
X76885Y-37712D01*
X77180Y-37416D01*
X77245Y-37319D01*
X77268Y-37204D01*
X77268Y-37204D01*
X77268Y-37179D01*
X77313Y-37179D01*
X77405Y-37141D01*
X77475Y-37070D01*
X77513Y-36979D01*
X77513Y-36879D01*
X77513Y-35856D01*
X77475Y-35764D01*
X77407Y-35695D01*
X77407Y-34721D01*
X77396Y-34512D01*
X77338Y-34372D01*
X77245Y-34348D01*
X77175Y-34419D01*
X77175Y-34277D01*
X77150Y-34185D01*
X76953Y-34115D01*
X76745Y-34127D01*
X76605Y-34185D01*
X76580Y-34277D01*
X76877Y-34574D01*
X77175Y-34277D01*
X77175Y-34419D01*
X76948Y-34645D01*
X77245Y-34942D01*
X77338Y-34918D01*
X77407Y-34721D01*
X77407Y-35695D01*
X77405Y-35693D01*
X77313Y-35655D01*
X77214Y-35655D01*
X77175Y-35655D01*
X77175Y-35013D01*
X76877Y-34716D01*
X76580Y-35013D01*
X76605Y-35106D01*
X76802Y-35175D01*
X77010Y-35164D01*
X77150Y-35106D01*
X77175Y-35013D01*
X77175Y-35655D01*
X76623Y-35655D01*
X76531Y-35693D01*
X76461Y-35763D01*
X76423Y-35855D01*
X76423Y-35955D01*
X76423Y-36978D01*
X76461Y-37070D01*
X76531Y-37140D01*
X76585Y-37163D01*
X76548Y-37200D01*
X76082Y-37200D01*
X75967Y-37222D01*
X75870Y-37287D01*
X75575Y-37583D01*
X75510Y-37680D01*
X75487Y-37795D01*
X75487Y-37820D01*
X75442Y-37820D01*
X75350Y-37858D01*
X75300Y-37909D01*
X75300Y-37525D01*
X75646Y-37179D01*
X76132Y-37179D01*
X76224Y-37141D01*
X76294Y-37070D01*
X76332Y-36979D01*
X76332Y-36879D01*
X76332Y-35856D01*
X76294Y-35764D01*
X76224Y-35693D01*
X76177Y-35674D01*
X76177Y-35170D01*
X76202Y-35170D01*
X76294Y-35132D01*
X76364Y-35062D01*
X76402Y-34970D01*
X76402Y-34883D01*
X76417Y-34918D01*
X76510Y-34942D01*
X76807Y-34645D01*
X76510Y-34348D01*
X76417Y-34372D01*
X76402Y-34413D01*
X76402Y-34321D01*
X76365Y-34229D01*
X76294Y-34158D01*
X76202Y-34120D01*
X76103Y-34120D01*
X75553Y-34120D01*
X75461Y-34158D01*
X75391Y-34228D01*
X75352Y-34320D01*
X75352Y-34420D01*
X75352Y-34970D01*
X75390Y-35062D01*
X75461Y-35132D01*
X75553Y-35170D01*
X75577Y-35170D01*
X75577Y-35655D01*
X75442Y-35655D01*
X75350Y-35693D01*
X75280Y-35763D01*
X75242Y-35855D01*
X75242Y-35955D01*
X75242Y-36735D01*
X74787Y-37189D01*
X74722Y-37286D01*
X74700Y-37401D01*
X74700Y-39763D01*
X74722Y-39878D01*
X74787Y-39975D01*
X75242Y-40430D01*
X75242Y-41065D01*
X74787Y-41520D01*
X74722Y-41617D01*
X74700Y-41732D01*
X74700Y-43897D01*
X74700Y-44094D01*
X74722Y-44209D01*
X74787Y-44306D01*
X75242Y-44760D01*
X75242Y-45396D01*
X74886Y-45752D01*
X74821Y-45849D01*
X74798Y-45964D01*
X74798Y-48523D01*
X74821Y-48638D01*
X74886Y-48735D01*
X75242Y-49091D01*
X75242Y-49970D01*
X75280Y-50062D01*
X75350Y-50133D01*
X75442Y-50171D01*
X75541Y-50171D01*
X76132Y-50171D01*
X76224Y-50133D01*
X76294Y-50063D01*
X76332Y-49971D01*
X76332Y-49871D01*
X76332Y-48848D01*
X76294Y-48756D01*
X76288Y-48749D01*
X76293Y-48751D01*
X76462Y-48751D01*
X76467Y-48749D01*
X76461Y-48755D01*
X76423Y-48847D01*
X76423Y-48947D01*
X76423Y-49970D01*
X76461Y-50062D01*
X76531Y-50133D01*
X76585Y-50155D01*
X76548Y-50192D01*
X76082Y-50192D01*
X75967Y-50214D01*
X75870Y-50279D01*
X75575Y-50575D01*
X75510Y-50672D01*
X75487Y-50787D01*
X75487Y-50812D01*
X75442Y-50812D01*
X75350Y-50850D01*
X75280Y-50921D01*
X75242Y-51013D01*
X75242Y-51112D01*
X75242Y-52136D01*
X75280Y-52228D01*
X75350Y-52298D01*
X75442Y-52336D01*
X75541Y-52336D01*
X76097Y-52336D01*
X76017Y-52416D01*
X75953Y-52572D01*
X75952Y-52741D01*
X76010Y-52879D01*
X74679Y-52879D01*
X74679Y-33734D01*
X78076Y-33734D01*
X78076Y-52879D01*
X78076Y-52879D01*
G37*
G54D18*
X78076Y-52879D02*
X76869Y-52879D01*
X76885Y-52869D01*
X77180Y-52574D01*
X77245Y-52477D01*
X77268Y-52362D01*
X77268Y-52362D01*
X77268Y-52336D01*
X77313Y-52336D01*
X77405Y-52298D01*
X77475Y-52228D01*
X77513Y-52136D01*
X77513Y-52037D01*
X77513Y-51013D01*
X77475Y-50921D01*
X77405Y-50851D01*
X77313Y-50813D01*
X77214Y-50812D01*
X76623Y-50812D01*
X76531Y-50850D01*
X76461Y-50921D01*
X76423Y-51013D01*
X76423Y-51112D01*
X76423Y-52136D01*
X76461Y-52228D01*
X76467Y-52234D01*
X76462Y-52232D01*
X76293Y-52232D01*
X76288Y-52234D01*
X76294Y-52228D01*
X76332Y-52136D01*
X76332Y-52037D01*
X76332Y-51013D01*
X76294Y-50921D01*
X76224Y-50851D01*
X76170Y-50828D01*
X76206Y-50792D01*
X76673Y-50792D01*
X76673Y-50792D01*
X76788Y-50769D01*
X76788Y-50769D01*
X76885Y-50704D01*
X77180Y-50408D01*
X77245Y-50311D01*
X77268Y-50196D01*
X77268Y-50196D01*
X77268Y-50171D01*
X77313Y-50171D01*
X77405Y-50133D01*
X77475Y-50063D01*
X77513Y-49971D01*
X77513Y-49871D01*
X77513Y-48848D01*
X77475Y-48756D01*
X77405Y-48685D01*
X77313Y-48647D01*
X77214Y-48647D01*
X76658Y-48647D01*
X76680Y-48625D01*
X76788Y-48603D01*
X76788Y-48603D01*
X76885Y-48538D01*
X77180Y-48243D01*
X77245Y-48146D01*
X77268Y-48031D01*
X77268Y-48031D01*
X77268Y-48005D01*
X77313Y-48005D01*
X77405Y-47967D01*
X77475Y-47897D01*
X77513Y-47805D01*
X77513Y-47706D01*
X77513Y-46682D01*
X77475Y-46590D01*
X77405Y-46520D01*
X77313Y-46482D01*
X77214Y-46482D01*
X76623Y-46482D01*
X76531Y-46520D01*
X76461Y-46590D01*
X76423Y-46682D01*
X76423Y-46781D01*
X76423Y-47805D01*
X76461Y-47897D01*
X76467Y-47903D01*
X76462Y-47901D01*
X76293Y-47901D01*
X76288Y-47904D01*
X76294Y-47897D01*
X76332Y-47805D01*
X76332Y-47706D01*
X76332Y-46682D01*
X76294Y-46590D01*
X76224Y-46520D01*
X76170Y-46497D01*
X76206Y-46461D01*
X76673Y-46461D01*
X76673Y-46461D01*
X76788Y-46438D01*
X76788Y-46438D01*
X76885Y-46373D01*
X77180Y-46078D01*
X77245Y-45980D01*
X77268Y-45866D01*
X77268Y-45866D01*
X77268Y-45840D01*
X77313Y-45840D01*
X77405Y-45802D01*
X77475Y-45732D01*
X77513Y-45640D01*
X77513Y-45541D01*
X77513Y-44517D01*
X77475Y-44425D01*
X77405Y-44355D01*
X77313Y-44316D01*
X77214Y-44316D01*
X76658Y-44316D01*
X76680Y-44294D01*
X76788Y-44273D01*
X76788Y-44273D01*
X76885Y-44208D01*
X77180Y-43912D01*
X77245Y-43815D01*
X77268Y-43700D01*
X77268Y-43700D01*
X77268Y-43675D01*
X77313Y-43675D01*
X77405Y-43637D01*
X77475Y-43566D01*
X77513Y-43475D01*
X77513Y-43375D01*
X77513Y-42352D01*
X77475Y-42260D01*
X77405Y-42189D01*
X77313Y-42151D01*
X77214Y-42151D01*
X76623Y-42151D01*
X76531Y-42189D01*
X76461Y-42259D01*
X76423Y-42351D01*
X76423Y-42451D01*
X76423Y-43474D01*
X76461Y-43566D01*
X76467Y-43573D01*
X76462Y-43571D01*
X76293Y-43570D01*
X76288Y-43573D01*
X76294Y-43566D01*
X76332Y-43475D01*
X76332Y-43375D01*
X76332Y-42352D01*
X76294Y-42260D01*
X76224Y-42189D01*
X76170Y-42167D01*
X76206Y-42130D01*
X76673Y-42130D01*
X76673Y-42130D01*
X76788Y-42107D01*
X76788Y-42107D01*
X76885Y-42042D01*
X77180Y-41747D01*
X77245Y-41650D01*
X77268Y-41535D01*
X77268Y-41535D01*
X77268Y-41509D01*
X77313Y-41509D01*
X77405Y-41471D01*
X77475Y-41401D01*
X77513Y-41309D01*
X77513Y-41210D01*
X77513Y-40186D01*
X77475Y-40094D01*
X77405Y-40024D01*
X77313Y-39986D01*
X77214Y-39986D01*
X76658Y-39986D01*
X76680Y-39963D01*
X76788Y-39942D01*
X76788Y-39942D01*
X76885Y-39877D01*
X77180Y-39582D01*
X77245Y-39484D01*
X77268Y-39370D01*
X77268Y-39370D01*
X77268Y-39344D01*
X77313Y-39344D01*
X77405Y-39306D01*
X77475Y-39236D01*
X77513Y-39144D01*
X77513Y-39044D01*
X77513Y-38021D01*
X77475Y-37929D01*
X77405Y-37859D01*
X77313Y-37820D01*
X77214Y-37820D01*
X76623Y-37820D01*
X76531Y-37858D01*
X76461Y-37929D01*
X76423Y-38020D01*
X76423Y-38120D01*
X76423Y-39143D01*
X76461Y-39235D01*
X76467Y-39242D01*
X76462Y-39240D01*
X76293Y-39240D01*
X76288Y-39242D01*
X76294Y-39236D01*
X76332Y-39144D01*
X76332Y-39044D01*
X76332Y-38021D01*
X76294Y-37929D01*
X76224Y-37859D01*
X76170Y-37836D01*
X76206Y-37800D01*
X76673Y-37800D01*
X76673Y-37799D01*
X76788Y-37777D01*
X76788Y-37777D01*
X76885Y-37712D01*
X77180Y-37416D01*
X77245Y-37319D01*
X77268Y-37204D01*
X77268Y-37204D01*
X77268Y-37179D01*
X77313Y-37179D01*
X77405Y-37141D01*
X77475Y-37070D01*
X77513Y-36979D01*
X77513Y-36879D01*
X77513Y-35856D01*
X77475Y-35764D01*
X77407Y-35695D01*
X77407Y-34721D01*
X77396Y-34512D01*
X77338Y-34372D01*
X77245Y-34348D01*
X77175Y-34419D01*
X77175Y-34277D01*
X77150Y-34185D01*
X76953Y-34115D01*
X76745Y-34127D01*
X76605Y-34185D01*
X76580Y-34277D01*
X76877Y-34574D01*
X77175Y-34277D01*
X77175Y-34419D01*
X76948Y-34645D01*
X77245Y-34942D01*
X77338Y-34918D01*
X77407Y-34721D01*
X77407Y-35695D01*
X77405Y-35693D01*
X77313Y-35655D01*
X77214Y-35655D01*
X77175Y-35655D01*
X77175Y-35013D01*
X76877Y-34716D01*
X76580Y-35013D01*
X76605Y-35106D01*
X76802Y-35175D01*
X77010Y-35164D01*
X77150Y-35106D01*
X77175Y-35013D01*
X77175Y-35655D01*
X76623Y-35655D01*
X76531Y-35693D01*
X76461Y-35763D01*
X76423Y-35855D01*
X76423Y-35955D01*
X76423Y-36978D01*
X76461Y-37070D01*
X76531Y-37140D01*
X76585Y-37163D01*
X76548Y-37200D01*
X76082Y-37200D01*
X75967Y-37222D01*
X75870Y-37287D01*
X75575Y-37583D01*
X75510Y-37680D01*
X75487Y-37795D01*
X75487Y-37820D01*
X75442Y-37820D01*
X75350Y-37858D01*
X75300Y-37909D01*
X75300Y-37525D01*
X75646Y-37179D01*
X76132Y-37179D01*
X76224Y-37141D01*
X76294Y-37070D01*
X76332Y-36979D01*
X76332Y-36879D01*
X76332Y-35856D01*
X76294Y-35764D01*
X76224Y-35693D01*
X76177Y-35674D01*
X76177Y-35170D01*
X76202Y-35170D01*
X76294Y-35132D01*
X76364Y-35062D01*
X76402Y-34970D01*
X76402Y-34883D01*
X76417Y-34918D01*
X76510Y-34942D01*
X76807Y-34645D01*
X76510Y-34348D01*
X76417Y-34372D01*
X76402Y-34413D01*
X76402Y-34321D01*
X76365Y-34229D01*
X76294Y-34158D01*
X76202Y-34120D01*
X76103Y-34120D01*
X75553Y-34120D01*
X75461Y-34158D01*
X75391Y-34228D01*
X75352Y-34320D01*
X75352Y-34420D01*
X75352Y-34970D01*
X75390Y-35062D01*
X75461Y-35132D01*
X75553Y-35170D01*
X75577Y-35170D01*
X75577Y-35655D01*
X75442Y-35655D01*
X75350Y-35693D01*
X75280Y-35763D01*
X75242Y-35855D01*
X75242Y-35955D01*
X75242Y-36735D01*
X74787Y-37189D01*
X74722Y-37286D01*
X74700Y-37401D01*
X74700Y-39763D01*
X74722Y-39878D01*
X74787Y-39975D01*
X75242Y-40430D01*
X75242Y-41065D01*
X74787Y-41520D01*
X74722Y-41617D01*
X74700Y-41732D01*
X74700Y-43897D01*
X74700Y-44094D01*
X74722Y-44209D01*
X74787Y-44306D01*
X75242Y-44760D01*
X75242Y-45396D01*
X74886Y-45752D01*
X74821Y-45849D01*
X74798Y-45964D01*
X74798Y-48523D01*
X74821Y-48638D01*
X74886Y-48735D01*
X75242Y-49091D01*
X75242Y-49970D01*
X75280Y-50062D01*
X75350Y-50133D01*
X75442Y-50171D01*
X75541Y-50171D01*
X76132Y-50171D01*
X76224Y-50133D01*
X76294Y-50063D01*
X76332Y-49971D01*
X76332Y-49871D01*
X76332Y-48848D01*
X76294Y-48756D01*
X76288Y-48749D01*
X76293Y-48751D01*
X76462Y-48751D01*
X76467Y-48749D01*
X76461Y-48755D01*
X76423Y-48847D01*
X76423Y-48947D01*
X76423Y-49970D01*
X76461Y-50062D01*
X76531Y-50133D01*
X76585Y-50155D01*
X76548Y-50192D01*
X76082Y-50192D01*
X75967Y-50214D01*
X75870Y-50279D01*
X75575Y-50575D01*
X75510Y-50672D01*
X75487Y-50787D01*
X75487Y-50812D01*
X75442Y-50812D01*
X75350Y-50850D01*
X75280Y-50921D01*
X75242Y-51013D01*
X75242Y-51112D01*
X75242Y-52136D01*
X75280Y-52228D01*
X75350Y-52298D01*
X75442Y-52336D01*
X75541Y-52336D01*
X76097Y-52336D01*
X76017Y-52416D01*
X75953Y-52572D01*
X75952Y-52741D01*
X76010Y-52879D01*
X74679Y-52879D01*
X74679Y-33734D01*
X78076Y-33734D01*
X78076Y-52879D01*
G54D10*
G36*
X89291Y-52870D02*
X87718Y-52870D01*
X87718Y-50788D01*
X87718Y-47788D01*
X87707Y-47579D01*
X87649Y-47439D01*
X87556Y-47415D01*
X87486Y-47486D01*
X87486Y-47344D01*
X87461Y-47252D01*
X87264Y-47182D01*
X87056Y-47194D01*
X86916Y-47252D01*
X86891Y-47344D01*
X87188Y-47641D01*
X87486Y-47344D01*
X87486Y-47486D01*
X87259Y-47712D01*
X87556Y-48009D01*
X87649Y-47985D01*
X87718Y-47788D01*
X87718Y-50788D01*
X87707Y-50579D01*
X87649Y-50439D01*
X87556Y-50415D01*
X87486Y-50486D01*
X87486Y-50344D01*
X87486Y-48080D01*
X87188Y-47783D01*
X87118Y-47854D01*
X87118Y-47712D01*
X86821Y-47415D01*
X86728Y-47439D01*
X86659Y-47636D01*
X86670Y-47845D01*
X86728Y-47985D01*
X86821Y-48009D01*
X87118Y-47712D01*
X87118Y-47854D01*
X86891Y-48080D01*
X86916Y-48173D01*
X87113Y-48242D01*
X87321Y-48231D01*
X87461Y-48173D01*
X87486Y-48080D01*
X87486Y-50344D01*
X87461Y-50252D01*
X87264Y-50182D01*
X87056Y-50194D01*
X86916Y-50252D01*
X86891Y-50344D01*
X87188Y-50641D01*
X87486Y-50344D01*
X87486Y-50486D01*
X87259Y-50712D01*
X87556Y-51009D01*
X87649Y-50985D01*
X87718Y-50788D01*
X87718Y-52870D01*
X87486Y-52870D01*
X87486Y-51080D01*
X87188Y-50783D01*
X87118Y-50854D01*
X87118Y-50712D01*
X86821Y-50415D01*
X86728Y-50439D01*
X86659Y-50636D01*
X86670Y-50845D01*
X86728Y-50985D01*
X86821Y-51009D01*
X87118Y-50712D01*
X87118Y-50854D01*
X86891Y-51080D01*
X86916Y-51173D01*
X87113Y-51242D01*
X87321Y-51231D01*
X87461Y-51173D01*
X87486Y-51080D01*
X87486Y-52870D01*
X86500Y-52870D01*
X86500Y-45555D01*
X87291Y-45555D01*
X87241Y-45575D01*
X87170Y-45646D01*
X87132Y-45738D01*
X87132Y-45837D01*
X87132Y-46387D01*
X87170Y-46479D01*
X87240Y-46549D01*
X87328Y-46586D01*
X87328Y-46712D01*
X87353Y-46838D01*
X87425Y-46945D01*
X87860Y-47380D01*
X87860Y-51968D01*
X87885Y-52094D01*
X87956Y-52200D01*
X88350Y-52594D01*
X88350Y-52594D01*
X88456Y-52665D01*
X88582Y-52690D01*
X89134Y-52690D01*
X89170Y-52778D01*
X89240Y-52849D01*
X89291Y-52870D01*
X89291Y-52870D01*
G37*
G54D18*
X89291Y-52870D02*
X87718Y-52870D01*
X87718Y-50788D01*
X87718Y-47788D01*
X87707Y-47579D01*
X87649Y-47439D01*
X87556Y-47415D01*
X87486Y-47486D01*
X87486Y-47344D01*
X87461Y-47252D01*
X87264Y-47182D01*
X87056Y-47194D01*
X86916Y-47252D01*
X86891Y-47344D01*
X87188Y-47641D01*
X87486Y-47344D01*
X87486Y-47486D01*
X87259Y-47712D01*
X87556Y-48009D01*
X87649Y-47985D01*
X87718Y-47788D01*
X87718Y-50788D01*
X87707Y-50579D01*
X87649Y-50439D01*
X87556Y-50415D01*
X87486Y-50486D01*
X87486Y-50344D01*
X87486Y-48080D01*
X87188Y-47783D01*
X87118Y-47854D01*
X87118Y-47712D01*
X86821Y-47415D01*
X86728Y-47439D01*
X86659Y-47636D01*
X86670Y-47845D01*
X86728Y-47985D01*
X86821Y-48009D01*
X87118Y-47712D01*
X87118Y-47854D01*
X86891Y-48080D01*
X86916Y-48173D01*
X87113Y-48242D01*
X87321Y-48231D01*
X87461Y-48173D01*
X87486Y-48080D01*
X87486Y-50344D01*
X87461Y-50252D01*
X87264Y-50182D01*
X87056Y-50194D01*
X86916Y-50252D01*
X86891Y-50344D01*
X87188Y-50641D01*
X87486Y-50344D01*
X87486Y-50486D01*
X87259Y-50712D01*
X87556Y-51009D01*
X87649Y-50985D01*
X87718Y-50788D01*
X87718Y-52870D01*
X87486Y-52870D01*
X87486Y-51080D01*
X87188Y-50783D01*
X87118Y-50854D01*
X87118Y-50712D01*
X86821Y-50415D01*
X86728Y-50439D01*
X86659Y-50636D01*
X86670Y-50845D01*
X86728Y-50985D01*
X86821Y-51009D01*
X87118Y-50712D01*
X87118Y-50854D01*
X86891Y-51080D01*
X86916Y-51173D01*
X87113Y-51242D01*
X87321Y-51231D01*
X87461Y-51173D01*
X87486Y-51080D01*
X87486Y-52870D01*
X86500Y-52870D01*
X86500Y-45555D01*
X87291Y-45555D01*
X87241Y-45575D01*
X87170Y-45646D01*
X87132Y-45738D01*
X87132Y-45837D01*
X87132Y-46387D01*
X87170Y-46479D01*
X87240Y-46549D01*
X87328Y-46586D01*
X87328Y-46712D01*
X87353Y-46838D01*
X87425Y-46945D01*
X87860Y-47380D01*
X87860Y-51968D01*
X87885Y-52094D01*
X87956Y-52200D01*
X88350Y-52594D01*
X88350Y-52594D01*
X88456Y-52665D01*
X88582Y-52690D01*
X89134Y-52690D01*
X89170Y-52778D01*
X89240Y-52849D01*
X89291Y-52870D01*
G54D10*
G36*
X91873Y-52870D02*
X91187Y-52870D01*
X91187Y-52438D01*
X91176Y-52229D01*
X91118Y-52089D01*
X91025Y-52065D01*
X90728Y-52362D01*
X91025Y-52659D01*
X91118Y-52635D01*
X91187Y-52438D01*
X91187Y-52870D01*
X90816Y-52870D01*
X90930Y-52822D01*
X90954Y-52729D01*
X90657Y-52432D01*
X90360Y-52729D01*
X90384Y-52822D01*
X90519Y-52870D01*
X90023Y-52870D01*
X90073Y-52849D01*
X90144Y-52779D01*
X90182Y-52687D01*
X90182Y-52600D01*
X90196Y-52635D01*
X90289Y-52659D01*
X90586Y-52362D01*
X90289Y-52065D01*
X90196Y-52089D01*
X90182Y-52130D01*
X90182Y-52037D01*
X90163Y-51992D01*
X90281Y-51874D01*
X90449Y-51874D01*
X90384Y-51901D01*
X90360Y-51994D01*
X90657Y-52291D01*
X90954Y-51994D01*
X90930Y-51901D01*
X90853Y-51874D01*
X91108Y-51874D01*
X91494Y-52261D01*
X91494Y-52466D01*
X91574Y-52659D01*
X91721Y-52807D01*
X91873Y-52870D01*
X91873Y-52870D01*
G37*
G54D18*
X91873Y-52870D02*
X91187Y-52870D01*
X91187Y-52438D01*
X91176Y-52229D01*
X91118Y-52089D01*
X91025Y-52065D01*
X90728Y-52362D01*
X91025Y-52659D01*
X91118Y-52635D01*
X91187Y-52438D01*
X91187Y-52870D01*
X90816Y-52870D01*
X90930Y-52822D01*
X90954Y-52729D01*
X90657Y-52432D01*
X90360Y-52729D01*
X90384Y-52822D01*
X90519Y-52870D01*
X90023Y-52870D01*
X90073Y-52849D01*
X90144Y-52779D01*
X90182Y-52687D01*
X90182Y-52600D01*
X90196Y-52635D01*
X90289Y-52659D01*
X90586Y-52362D01*
X90289Y-52065D01*
X90196Y-52089D01*
X90182Y-52130D01*
X90182Y-52037D01*
X90163Y-51992D01*
X90281Y-51874D01*
X90449Y-51874D01*
X90384Y-51901D01*
X90360Y-51994D01*
X90657Y-52291D01*
X90954Y-51994D01*
X90930Y-51901D01*
X90853Y-51874D01*
X91108Y-51874D01*
X91494Y-52261D01*
X91494Y-52466D01*
X91574Y-52659D01*
X91721Y-52807D01*
X91873Y-52870D01*
G54D10*
G36*
X93814Y-52870D02*
X93549Y-52870D01*
X93549Y-52438D01*
X93538Y-52229D01*
X93480Y-52089D01*
X93387Y-52065D01*
X93316Y-52135D01*
X93316Y-51994D01*
X93292Y-51901D01*
X93095Y-51832D01*
X92886Y-51843D01*
X92746Y-51901D01*
X92722Y-51994D01*
X93019Y-52291D01*
X93316Y-51994D01*
X93316Y-52135D01*
X93090Y-52362D01*
X93387Y-52659D01*
X93480Y-52635D01*
X93549Y-52438D01*
X93549Y-52870D01*
X93178Y-52870D01*
X93292Y-52822D01*
X93316Y-52729D01*
X93019Y-52432D01*
X92722Y-52729D01*
X92746Y-52822D01*
X92881Y-52870D01*
X92165Y-52870D01*
X92316Y-52807D01*
X92464Y-52659D01*
X92517Y-52533D01*
X92559Y-52635D01*
X92651Y-52659D01*
X92948Y-52362D01*
X92651Y-52065D01*
X92559Y-52089D01*
X92520Y-52199D01*
X92465Y-52065D01*
X92319Y-51919D01*
X92319Y-48655D01*
X92876Y-48099D01*
X92934Y-48157D01*
X93067Y-48212D01*
X92935Y-48267D01*
X92787Y-48414D01*
X92707Y-48607D01*
X92707Y-48816D01*
X92786Y-49009D01*
X92934Y-49157D01*
X93067Y-49212D01*
X92935Y-49267D01*
X92787Y-49414D01*
X92707Y-49607D01*
X92707Y-49816D01*
X92786Y-50009D01*
X92934Y-50157D01*
X93067Y-50212D01*
X92935Y-50267D01*
X92787Y-50414D01*
X92707Y-50607D01*
X92707Y-50816D01*
X92786Y-51009D01*
X92934Y-51157D01*
X93127Y-51237D01*
X93336Y-51237D01*
X93529Y-51157D01*
X93677Y-51010D01*
X93757Y-50817D01*
X93757Y-50608D01*
X93677Y-50415D01*
X93530Y-50267D01*
X93397Y-50212D01*
X93529Y-50157D01*
X93677Y-50010D01*
X93757Y-49817D01*
X93757Y-49608D01*
X93677Y-49415D01*
X93530Y-49267D01*
X93397Y-49212D01*
X93529Y-49157D01*
X93677Y-49010D01*
X93757Y-48817D01*
X93757Y-48608D01*
X93677Y-48415D01*
X93530Y-48267D01*
X93397Y-48212D01*
X93529Y-48157D01*
X93677Y-48010D01*
X93757Y-47817D01*
X93757Y-47608D01*
X93677Y-47415D01*
X93530Y-47267D01*
X93337Y-47187D01*
X93128Y-47187D01*
X92935Y-47267D01*
X92787Y-47414D01*
X92783Y-47423D01*
X92723Y-47435D01*
X92626Y-47500D01*
X91807Y-48319D01*
X91742Y-48416D01*
X91719Y-48531D01*
X91719Y-51637D01*
X91444Y-51362D01*
X91347Y-51297D01*
X91232Y-51274D01*
X90762Y-51274D01*
X90762Y-50788D01*
X90750Y-50579D01*
X90692Y-50439D01*
X90600Y-50415D01*
X90302Y-50712D01*
X90600Y-51009D01*
X90692Y-50985D01*
X90762Y-50788D01*
X90762Y-51274D01*
X90529Y-51274D01*
X90529Y-51080D01*
X90232Y-50783D01*
X89935Y-51080D01*
X89959Y-51173D01*
X90156Y-51242D01*
X90365Y-51231D01*
X90505Y-51173D01*
X90529Y-51080D01*
X90529Y-51274D01*
X90157Y-51274D01*
X90042Y-51297D01*
X89945Y-51362D01*
X89470Y-51837D01*
X89332Y-51837D01*
X89241Y-51875D01*
X89170Y-51945D01*
X89134Y-52033D01*
X88718Y-52033D01*
X88517Y-51832D01*
X88517Y-47244D01*
X88492Y-47118D01*
X88492Y-47118D01*
X88421Y-47011D01*
X87993Y-46583D01*
X88073Y-46550D01*
X88144Y-46479D01*
X88182Y-46387D01*
X88182Y-46300D01*
X88196Y-46335D01*
X88289Y-46360D01*
X88586Y-46062D01*
X88289Y-45765D01*
X88196Y-45790D01*
X88182Y-45831D01*
X88182Y-45738D01*
X88144Y-45646D01*
X88074Y-45576D01*
X88023Y-45555D01*
X88498Y-45555D01*
X88384Y-45602D01*
X88360Y-45695D01*
X88657Y-45992D01*
X88954Y-45695D01*
X88930Y-45602D01*
X88795Y-45555D01*
X89511Y-45555D01*
X89360Y-45617D01*
X89212Y-45765D01*
X89160Y-45891D01*
X89118Y-45790D01*
X89025Y-45765D01*
X88728Y-46062D01*
X89025Y-46360D01*
X89118Y-46335D01*
X89156Y-46225D01*
X89212Y-46359D01*
X89359Y-46507D01*
X89552Y-46587D01*
X89761Y-46588D01*
X89954Y-46508D01*
X90102Y-46360D01*
X90157Y-46227D01*
X90212Y-46359D01*
X90359Y-46507D01*
X90552Y-46587D01*
X90761Y-46588D01*
X90954Y-46508D01*
X91102Y-46360D01*
X91157Y-46227D01*
X91212Y-46359D01*
X91359Y-46507D01*
X91552Y-46587D01*
X91761Y-46588D01*
X91954Y-46508D01*
X92102Y-46360D01*
X92157Y-46227D01*
X92212Y-46359D01*
X92357Y-46505D01*
X92357Y-46588D01*
X91533Y-47412D01*
X90757Y-47412D01*
X90757Y-47388D01*
X90719Y-47296D01*
X90649Y-47225D01*
X90557Y-47187D01*
X90457Y-47187D01*
X89907Y-47187D01*
X89815Y-47225D01*
X89745Y-47295D01*
X89707Y-47387D01*
X89707Y-47412D01*
X89631Y-47412D01*
X89486Y-47267D01*
X89293Y-47187D01*
X89085Y-47187D01*
X88954Y-47241D01*
X88954Y-46430D01*
X88657Y-46133D01*
X88360Y-46430D01*
X88384Y-46523D01*
X88581Y-46592D01*
X88790Y-46581D01*
X88930Y-46523D01*
X88954Y-46430D01*
X88954Y-47241D01*
X88891Y-47267D01*
X88744Y-47414D01*
X88664Y-47607D01*
X88663Y-47816D01*
X88743Y-48009D01*
X88888Y-48155D01*
X88888Y-50270D01*
X88744Y-50414D01*
X88664Y-50607D01*
X88663Y-50816D01*
X88743Y-51009D01*
X88891Y-51157D01*
X89084Y-51237D01*
X89292Y-51237D01*
X89485Y-51157D01*
X89633Y-51010D01*
X89712Y-50821D01*
X89713Y-50845D01*
X89771Y-50985D01*
X89864Y-51009D01*
X90161Y-50712D01*
X89864Y-50415D01*
X89771Y-50439D01*
X89713Y-50606D01*
X89634Y-50415D01*
X89488Y-50270D01*
X89488Y-48154D01*
X89631Y-48012D01*
X89707Y-48012D01*
X89707Y-48037D01*
X89745Y-48129D01*
X89815Y-48199D01*
X89907Y-48237D01*
X90006Y-48237D01*
X90006Y-48237D01*
X89935Y-48267D01*
X89787Y-48414D01*
X89707Y-48607D01*
X89707Y-48816D01*
X89786Y-49009D01*
X89934Y-49157D01*
X90067Y-49212D01*
X89935Y-49267D01*
X89787Y-49414D01*
X89707Y-49607D01*
X89707Y-49816D01*
X89786Y-50009D01*
X89934Y-50157D01*
X90061Y-50209D01*
X89959Y-50252D01*
X89935Y-50344D01*
X90232Y-50641D01*
X90529Y-50344D01*
X90505Y-50252D01*
X90395Y-50213D01*
X90529Y-50157D01*
X90677Y-50010D01*
X90757Y-49817D01*
X90757Y-49608D01*
X90677Y-49415D01*
X90530Y-49267D01*
X90397Y-49212D01*
X90529Y-49157D01*
X90677Y-49010D01*
X90757Y-48817D01*
X90757Y-48608D01*
X90677Y-48415D01*
X90530Y-48267D01*
X90457Y-48237D01*
X90556Y-48237D01*
X90648Y-48199D01*
X90719Y-48129D01*
X90757Y-48037D01*
X90757Y-48012D01*
X91657Y-48012D01*
X91657Y-48012D01*
X91772Y-47989D01*
X91772Y-47989D01*
X91869Y-47924D01*
X92869Y-46924D01*
X92869Y-46924D01*
X92934Y-46827D01*
X92957Y-46712D01*
X92957Y-46712D01*
X92957Y-46505D01*
X93102Y-46360D01*
X93182Y-46167D01*
X93182Y-45959D01*
X93102Y-45765D01*
X92955Y-45618D01*
X92803Y-45555D01*
X93814Y-45555D01*
X93814Y-52870D01*
X93814Y-52870D01*
G37*
G54D18*
X93814Y-52870D02*
X93549Y-52870D01*
X93549Y-52438D01*
X93538Y-52229D01*
X93480Y-52089D01*
X93387Y-52065D01*
X93316Y-52135D01*
X93316Y-51994D01*
X93292Y-51901D01*
X93095Y-51832D01*
X92886Y-51843D01*
X92746Y-51901D01*
X92722Y-51994D01*
X93019Y-52291D01*
X93316Y-51994D01*
X93316Y-52135D01*
X93090Y-52362D01*
X93387Y-52659D01*
X93480Y-52635D01*
X93549Y-52438D01*
X93549Y-52870D01*
X93178Y-52870D01*
X93292Y-52822D01*
X93316Y-52729D01*
X93019Y-52432D01*
X92722Y-52729D01*
X92746Y-52822D01*
X92881Y-52870D01*
X92165Y-52870D01*
X92316Y-52807D01*
X92464Y-52659D01*
X92517Y-52533D01*
X92559Y-52635D01*
X92651Y-52659D01*
X92948Y-52362D01*
X92651Y-52065D01*
X92559Y-52089D01*
X92520Y-52199D01*
X92465Y-52065D01*
X92319Y-51919D01*
X92319Y-48655D01*
X92876Y-48099D01*
X92934Y-48157D01*
X93067Y-48212D01*
X92935Y-48267D01*
X92787Y-48414D01*
X92707Y-48607D01*
X92707Y-48816D01*
X92786Y-49009D01*
X92934Y-49157D01*
X93067Y-49212D01*
X92935Y-49267D01*
X92787Y-49414D01*
X92707Y-49607D01*
X92707Y-49816D01*
X92786Y-50009D01*
X92934Y-50157D01*
X93067Y-50212D01*
X92935Y-50267D01*
X92787Y-50414D01*
X92707Y-50607D01*
X92707Y-50816D01*
X92786Y-51009D01*
X92934Y-51157D01*
X93127Y-51237D01*
X93336Y-51237D01*
X93529Y-51157D01*
X93677Y-51010D01*
X93757Y-50817D01*
X93757Y-50608D01*
X93677Y-50415D01*
X93530Y-50267D01*
X93397Y-50212D01*
X93529Y-50157D01*
X93677Y-50010D01*
X93757Y-49817D01*
X93757Y-49608D01*
X93677Y-49415D01*
X93530Y-49267D01*
X93397Y-49212D01*
X93529Y-49157D01*
X93677Y-49010D01*
X93757Y-48817D01*
X93757Y-48608D01*
X93677Y-48415D01*
X93530Y-48267D01*
X93397Y-48212D01*
X93529Y-48157D01*
X93677Y-48010D01*
X93757Y-47817D01*
X93757Y-47608D01*
X93677Y-47415D01*
X93530Y-47267D01*
X93337Y-47187D01*
X93128Y-47187D01*
X92935Y-47267D01*
X92787Y-47414D01*
X92783Y-47423D01*
X92723Y-47435D01*
X92626Y-47500D01*
X91807Y-48319D01*
X91742Y-48416D01*
X91719Y-48531D01*
X91719Y-51637D01*
X91444Y-51362D01*
X91347Y-51297D01*
X91232Y-51274D01*
X90762Y-51274D01*
X90762Y-50788D01*
X90750Y-50579D01*
X90692Y-50439D01*
X90600Y-50415D01*
X90302Y-50712D01*
X90600Y-51009D01*
X90692Y-50985D01*
X90762Y-50788D01*
X90762Y-51274D01*
X90529Y-51274D01*
X90529Y-51080D01*
X90232Y-50783D01*
X89935Y-51080D01*
X89959Y-51173D01*
X90156Y-51242D01*
X90365Y-51231D01*
X90505Y-51173D01*
X90529Y-51080D01*
X90529Y-51274D01*
X90157Y-51274D01*
X90042Y-51297D01*
X89945Y-51362D01*
X89470Y-51837D01*
X89332Y-51837D01*
X89241Y-51875D01*
X89170Y-51945D01*
X89134Y-52033D01*
X88718Y-52033D01*
X88517Y-51832D01*
X88517Y-47244D01*
X88492Y-47118D01*
X88492Y-47118D01*
X88421Y-47011D01*
X87993Y-46583D01*
X88073Y-46550D01*
X88144Y-46479D01*
X88182Y-46387D01*
X88182Y-46300D01*
X88196Y-46335D01*
X88289Y-46360D01*
X88586Y-46062D01*
X88289Y-45765D01*
X88196Y-45790D01*
X88182Y-45831D01*
X88182Y-45738D01*
X88144Y-45646D01*
X88074Y-45576D01*
X88023Y-45555D01*
X88498Y-45555D01*
X88384Y-45602D01*
X88360Y-45695D01*
X88657Y-45992D01*
X88954Y-45695D01*
X88930Y-45602D01*
X88795Y-45555D01*
X89511Y-45555D01*
X89360Y-45617D01*
X89212Y-45765D01*
X89160Y-45891D01*
X89118Y-45790D01*
X89025Y-45765D01*
X88728Y-46062D01*
X89025Y-46360D01*
X89118Y-46335D01*
X89156Y-46225D01*
X89212Y-46359D01*
X89359Y-46507D01*
X89552Y-46587D01*
X89761Y-46588D01*
X89954Y-46508D01*
X90102Y-46360D01*
X90157Y-46227D01*
X90212Y-46359D01*
X90359Y-46507D01*
X90552Y-46587D01*
X90761Y-46588D01*
X90954Y-46508D01*
X91102Y-46360D01*
X91157Y-46227D01*
X91212Y-46359D01*
X91359Y-46507D01*
X91552Y-46587D01*
X91761Y-46588D01*
X91954Y-46508D01*
X92102Y-46360D01*
X92157Y-46227D01*
X92212Y-46359D01*
X92357Y-46505D01*
X92357Y-46588D01*
X91533Y-47412D01*
X90757Y-47412D01*
X90757Y-47388D01*
X90719Y-47296D01*
X90649Y-47225D01*
X90557Y-47187D01*
X90457Y-47187D01*
X89907Y-47187D01*
X89815Y-47225D01*
X89745Y-47295D01*
X89707Y-47387D01*
X89707Y-47412D01*
X89631Y-47412D01*
X89486Y-47267D01*
X89293Y-47187D01*
X89085Y-47187D01*
X88954Y-47241D01*
X88954Y-46430D01*
X88657Y-46133D01*
X88360Y-46430D01*
X88384Y-46523D01*
X88581Y-46592D01*
X88790Y-46581D01*
X88930Y-46523D01*
X88954Y-46430D01*
X88954Y-47241D01*
X88891Y-47267D01*
X88744Y-47414D01*
X88664Y-47607D01*
X88663Y-47816D01*
X88743Y-48009D01*
X88888Y-48155D01*
X88888Y-50270D01*
X88744Y-50414D01*
X88664Y-50607D01*
X88663Y-50816D01*
X88743Y-51009D01*
X88891Y-51157D01*
X89084Y-51237D01*
X89292Y-51237D01*
X89485Y-51157D01*
X89633Y-51010D01*
X89712Y-50821D01*
X89713Y-50845D01*
X89771Y-50985D01*
X89864Y-51009D01*
X90161Y-50712D01*
X89864Y-50415D01*
X89771Y-50439D01*
X89713Y-50606D01*
X89634Y-50415D01*
X89488Y-50270D01*
X89488Y-48154D01*
X89631Y-48012D01*
X89707Y-48012D01*
X89707Y-48037D01*
X89745Y-48129D01*
X89815Y-48199D01*
X89907Y-48237D01*
X90006Y-48237D01*
X90006Y-48237D01*
X89935Y-48267D01*
X89787Y-48414D01*
X89707Y-48607D01*
X89707Y-48816D01*
X89786Y-49009D01*
X89934Y-49157D01*
X90067Y-49212D01*
X89935Y-49267D01*
X89787Y-49414D01*
X89707Y-49607D01*
X89707Y-49816D01*
X89786Y-50009D01*
X89934Y-50157D01*
X90061Y-50209D01*
X89959Y-50252D01*
X89935Y-50344D01*
X90232Y-50641D01*
X90529Y-50344D01*
X90505Y-50252D01*
X90395Y-50213D01*
X90529Y-50157D01*
X90677Y-50010D01*
X90757Y-49817D01*
X90757Y-49608D01*
X90677Y-49415D01*
X90530Y-49267D01*
X90397Y-49212D01*
X90529Y-49157D01*
X90677Y-49010D01*
X90757Y-48817D01*
X90757Y-48608D01*
X90677Y-48415D01*
X90530Y-48267D01*
X90457Y-48237D01*
X90556Y-48237D01*
X90648Y-48199D01*
X90719Y-48129D01*
X90757Y-48037D01*
X90757Y-48012D01*
X91657Y-48012D01*
X91657Y-48012D01*
X91772Y-47989D01*
X91772Y-47989D01*
X91869Y-47924D01*
X92869Y-46924D01*
X92869Y-46924D01*
X92934Y-46827D01*
X92957Y-46712D01*
X92957Y-46712D01*
X92957Y-46505D01*
X93102Y-46360D01*
X93182Y-46167D01*
X93182Y-45959D01*
X93102Y-45765D01*
X92955Y-45618D01*
X92803Y-45555D01*
X93814Y-45555D01*
X93814Y-52870D01*
G54D10*
G36*
X93814Y-44996D02*
X92868Y-44996D01*
X92968Y-44954D01*
X93123Y-44800D01*
X93207Y-44598D01*
X93207Y-44379D01*
X93124Y-44177D01*
X92969Y-44022D01*
X92767Y-43938D01*
X92548Y-43938D01*
X92346Y-44021D01*
X92191Y-44176D01*
X92157Y-44258D01*
X92124Y-44177D01*
X91969Y-44022D01*
X91767Y-43938D01*
X91548Y-43938D01*
X91519Y-43949D01*
X90595Y-43025D01*
X90664Y-43049D01*
X90872Y-43038D01*
X91012Y-42980D01*
X91037Y-42887D01*
X90740Y-42590D01*
X90734Y-42595D01*
X90663Y-42525D01*
X90669Y-42519D01*
X90372Y-42222D01*
X90279Y-42246D01*
X90210Y-42443D01*
X90221Y-42651D01*
X90090Y-42520D01*
X90090Y-42435D01*
X90025Y-42279D01*
X89906Y-42159D01*
X89750Y-42094D01*
X89581Y-42094D01*
X89424Y-42159D01*
X89305Y-42278D01*
X89240Y-42434D01*
X89240Y-42488D01*
X89187Y-42488D01*
X89031Y-42552D01*
X88911Y-42672D01*
X88846Y-42828D01*
X88846Y-42997D01*
X88885Y-43092D01*
X88813Y-43164D01*
X88757Y-43298D01*
X88757Y-41670D01*
X88757Y-41470D01*
X88719Y-41378D01*
X88710Y-41370D01*
X88719Y-41361D01*
X88757Y-41269D01*
X88757Y-41232D01*
X88694Y-41170D01*
X88307Y-41170D01*
X88307Y-41177D01*
X88207Y-41177D01*
X88207Y-41170D01*
X87819Y-41170D01*
X87757Y-41232D01*
X87757Y-41269D01*
X87795Y-41361D01*
X87803Y-41370D01*
X87795Y-41378D01*
X87757Y-41470D01*
X87757Y-41569D01*
X87757Y-41769D01*
X87795Y-41861D01*
X87865Y-41931D01*
X87957Y-41970D01*
X88056Y-41970D01*
X88556Y-41970D01*
X88648Y-41932D01*
X88719Y-41861D01*
X88757Y-41770D01*
X88757Y-41670D01*
X88757Y-43298D01*
X88748Y-43320D01*
X88748Y-43489D01*
X88812Y-43645D01*
X88932Y-43765D01*
X89088Y-43830D01*
X89173Y-43830D01*
X89357Y-44014D01*
X89357Y-44017D01*
X89346Y-44021D01*
X89191Y-44176D01*
X89160Y-44251D01*
X89138Y-44200D01*
X89043Y-44172D01*
X88972Y-44243D01*
X88972Y-44102D01*
X88945Y-44006D01*
X88739Y-43933D01*
X88520Y-43944D01*
X88369Y-44006D01*
X88342Y-44102D01*
X88657Y-44417D01*
X88972Y-44102D01*
X88972Y-44243D01*
X88728Y-44488D01*
X89043Y-44803D01*
X89138Y-44776D01*
X89158Y-44720D01*
X89190Y-44799D01*
X89345Y-44954D01*
X89446Y-44996D01*
X88881Y-44996D01*
X88945Y-44969D01*
X88972Y-44874D01*
X88657Y-44558D01*
X88342Y-44874D01*
X88369Y-44969D01*
X88444Y-44996D01*
X88103Y-44996D01*
X88169Y-44929D01*
X88207Y-44838D01*
X88207Y-44785D01*
X88271Y-44803D01*
X88586Y-44488D01*
X88271Y-44172D01*
X88207Y-44191D01*
X88207Y-44138D01*
X88169Y-44046D01*
X88099Y-43976D01*
X88007Y-43938D01*
X87907Y-43938D01*
X87307Y-43938D01*
X87216Y-43976D01*
X87145Y-44046D01*
X87107Y-44138D01*
X87107Y-44237D01*
X87107Y-44837D01*
X87145Y-44929D01*
X87211Y-44996D01*
X86500Y-44996D01*
X86500Y-43329D01*
X86541Y-43429D01*
X86695Y-43584D01*
X86897Y-43668D01*
X87116Y-43668D01*
X87319Y-43584D01*
X87473Y-43430D01*
X87478Y-43418D01*
X87797Y-43418D01*
X87849Y-43470D01*
X88005Y-43535D01*
X88174Y-43535D01*
X88330Y-43470D01*
X88450Y-43351D01*
X88515Y-43195D01*
X88515Y-43026D01*
X88451Y-42869D01*
X88331Y-42750D01*
X88175Y-42685D01*
X88006Y-42685D01*
X87850Y-42749D01*
X87781Y-42818D01*
X87479Y-42818D01*
X87474Y-42806D01*
X87335Y-42668D01*
X87357Y-42668D01*
X87449Y-42630D01*
X87519Y-42559D01*
X87557Y-42468D01*
X87557Y-42368D01*
X87557Y-41768D01*
X87519Y-41676D01*
X87449Y-41606D01*
X87357Y-41568D01*
X87258Y-41568D01*
X86658Y-41568D01*
X86566Y-41606D01*
X86500Y-41672D01*
X86500Y-41163D01*
X86541Y-41263D01*
X86695Y-41418D01*
X86897Y-41502D01*
X87116Y-41502D01*
X87319Y-41419D01*
X87473Y-41264D01*
X87478Y-41252D01*
X87492Y-41252D01*
X87492Y-41252D01*
X87606Y-41229D01*
X87606Y-41229D01*
X87704Y-41164D01*
X87809Y-41059D01*
X87819Y-41070D01*
X88207Y-41070D01*
X88207Y-41062D01*
X88307Y-41062D01*
X88307Y-41070D01*
X88694Y-41070D01*
X88757Y-41007D01*
X88757Y-40970D01*
X88736Y-40920D01*
X89334Y-40920D01*
X89424Y-41009D01*
X89580Y-41074D01*
X89749Y-41074D01*
X89905Y-41010D01*
X90025Y-40890D01*
X90090Y-40734D01*
X90090Y-40565D01*
X90025Y-40409D01*
X89906Y-40289D01*
X89750Y-40224D01*
X89598Y-40224D01*
X89598Y-40073D01*
X89533Y-39917D01*
X89414Y-39797D01*
X89258Y-39732D01*
X89089Y-39732D01*
X88932Y-39796D01*
X88909Y-39820D01*
X88736Y-39820D01*
X88757Y-39770D01*
X88757Y-39670D01*
X88757Y-39470D01*
X88719Y-39378D01*
X88711Y-39370D01*
X88719Y-39361D01*
X88757Y-39270D01*
X88757Y-39170D01*
X88757Y-38970D01*
X88719Y-38878D01*
X88711Y-38870D01*
X88719Y-38861D01*
X88757Y-38770D01*
X88757Y-38670D01*
X88757Y-38470D01*
X88736Y-38420D01*
X90181Y-38420D01*
X90211Y-38450D01*
X90367Y-38515D01*
X90536Y-38515D01*
X90693Y-38451D01*
X90812Y-38331D01*
X90877Y-38175D01*
X90877Y-38023D01*
X90930Y-38023D01*
X91086Y-37958D01*
X91206Y-37839D01*
X91271Y-37683D01*
X91271Y-37514D01*
X91206Y-37357D01*
X91087Y-37238D01*
X90931Y-37173D01*
X90762Y-37173D01*
X90606Y-37237D01*
X90523Y-37320D01*
X88972Y-37320D01*
X88972Y-34637D01*
X88657Y-34322D01*
X88342Y-34637D01*
X88369Y-34733D01*
X88575Y-34806D01*
X88794Y-34795D01*
X88945Y-34733D01*
X88972Y-34637D01*
X88972Y-37320D01*
X88736Y-37320D01*
X88757Y-37269D01*
X88757Y-36970D01*
X88719Y-36878D01*
X88649Y-36808D01*
X88557Y-36770D01*
X88457Y-36770D01*
X88369Y-36770D01*
X88307Y-36832D01*
X88307Y-37070D01*
X88694Y-37070D01*
X88757Y-37007D01*
X88757Y-36970D01*
X88757Y-37269D01*
X88757Y-37232D01*
X88694Y-37170D01*
X88307Y-37170D01*
X88307Y-37177D01*
X88207Y-37177D01*
X88207Y-37170D01*
X88199Y-37170D01*
X88199Y-37070D01*
X88207Y-37070D01*
X88207Y-36832D01*
X88144Y-36770D01*
X88056Y-36770D01*
X87957Y-36770D01*
X87957Y-36770D01*
X87908Y-36697D01*
X87908Y-36697D01*
X87621Y-36409D01*
X87524Y-36344D01*
X87485Y-36337D01*
X87474Y-36310D01*
X87335Y-36172D01*
X87357Y-36172D01*
X87449Y-36134D01*
X87519Y-36063D01*
X87557Y-35971D01*
X87557Y-35872D01*
X87557Y-35272D01*
X87519Y-35180D01*
X87449Y-35110D01*
X87357Y-35072D01*
X87258Y-35072D01*
X86658Y-35072D01*
X86566Y-35109D01*
X86500Y-35176D01*
X86500Y-33744D01*
X87211Y-33744D01*
X87145Y-33810D01*
X87107Y-33902D01*
X87107Y-34001D01*
X87107Y-34601D01*
X87145Y-34693D01*
X87215Y-34763D01*
X87307Y-34801D01*
X87406Y-34802D01*
X88006Y-34802D01*
X88098Y-34764D01*
X88169Y-34693D01*
X88207Y-34601D01*
X88207Y-34548D01*
X88271Y-34567D01*
X88586Y-34251D01*
X88271Y-33936D01*
X88207Y-33955D01*
X88207Y-33902D01*
X88169Y-33810D01*
X88103Y-33744D01*
X88433Y-33744D01*
X88369Y-33770D01*
X88342Y-33866D01*
X88657Y-34181D01*
X88972Y-33866D01*
X88945Y-33770D01*
X88870Y-33744D01*
X89446Y-33744D01*
X89346Y-33785D01*
X89191Y-33940D01*
X89160Y-34015D01*
X89138Y-33964D01*
X89043Y-33936D01*
X88728Y-34251D01*
X89043Y-34567D01*
X89138Y-34539D01*
X89158Y-34484D01*
X89190Y-34563D01*
X89345Y-34717D01*
X89547Y-34801D01*
X89766Y-34802D01*
X89968Y-34718D01*
X90123Y-34563D01*
X90157Y-34482D01*
X90190Y-34563D01*
X90345Y-34717D01*
X90547Y-34801D01*
X90766Y-34802D01*
X90968Y-34718D01*
X91123Y-34563D01*
X91157Y-34482D01*
X91190Y-34563D01*
X91345Y-34717D01*
X91547Y-34801D01*
X91766Y-34802D01*
X91968Y-34718D01*
X92123Y-34563D01*
X92157Y-34482D01*
X92190Y-34563D01*
X92345Y-34717D01*
X92547Y-34801D01*
X92766Y-34802D01*
X92968Y-34718D01*
X93123Y-34563D01*
X93207Y-34361D01*
X93207Y-34143D01*
X93124Y-33940D01*
X92969Y-33785D01*
X92868Y-33744D01*
X93814Y-33744D01*
X93814Y-35410D01*
X93773Y-35310D01*
X93619Y-35156D01*
X93416Y-35072D01*
X93198Y-35071D01*
X92995Y-35155D01*
X92841Y-35310D01*
X92757Y-35512D01*
X92756Y-35730D01*
X92840Y-35933D01*
X92979Y-36072D01*
X92957Y-36072D01*
X92865Y-36109D01*
X92795Y-36180D01*
X92757Y-36272D01*
X92757Y-36367D01*
X92693Y-36409D01*
X92405Y-36697D01*
X92357Y-36770D01*
X92257Y-36770D01*
X92169Y-36770D01*
X92107Y-36832D01*
X92107Y-37070D01*
X92115Y-37070D01*
X92115Y-37170D01*
X92107Y-37170D01*
X92107Y-37332D01*
X92107Y-37407D01*
X92107Y-37570D01*
X92115Y-37570D01*
X92115Y-37670D01*
X92107Y-37670D01*
X92107Y-37677D01*
X92007Y-37677D01*
X92007Y-37670D01*
X92007Y-37570D01*
X92007Y-37407D01*
X92007Y-37332D01*
X92007Y-37170D01*
X92007Y-37070D01*
X92007Y-36832D01*
X91944Y-36770D01*
X91856Y-36770D01*
X91757Y-36770D01*
X91665Y-36808D01*
X91595Y-36878D01*
X91557Y-36970D01*
X91557Y-37007D01*
X91619Y-37070D01*
X92007Y-37070D01*
X92007Y-37170D01*
X91619Y-37170D01*
X91557Y-37232D01*
X91557Y-37269D01*
X91595Y-37361D01*
X91603Y-37370D01*
X91595Y-37378D01*
X91557Y-37470D01*
X91557Y-37507D01*
X91619Y-37570D01*
X92007Y-37570D01*
X92007Y-37670D01*
X91619Y-37670D01*
X91557Y-37732D01*
X91557Y-37769D01*
X91595Y-37861D01*
X91603Y-37870D01*
X91595Y-37878D01*
X91557Y-37970D01*
X91557Y-38069D01*
X91557Y-38269D01*
X91568Y-38296D01*
X91423Y-38236D01*
X91254Y-38236D01*
X91098Y-38300D01*
X90978Y-38420D01*
X90913Y-38576D01*
X90913Y-38745D01*
X90978Y-38901D01*
X91097Y-39021D01*
X91253Y-39086D01*
X91422Y-39086D01*
X91557Y-39030D01*
X91557Y-39069D01*
X91557Y-39269D01*
X91595Y-39361D01*
X91603Y-39370D01*
X91595Y-39378D01*
X91557Y-39470D01*
X91557Y-39569D01*
X91557Y-39769D01*
X91595Y-39861D01*
X91603Y-39870D01*
X91595Y-39878D01*
X91557Y-39970D01*
X91557Y-40069D01*
X91557Y-40269D01*
X91578Y-40320D01*
X91511Y-40320D01*
X91481Y-40289D01*
X91325Y-40224D01*
X91155Y-40224D01*
X90999Y-40289D01*
X90880Y-40408D01*
X90815Y-40564D01*
X90815Y-40733D01*
X90879Y-40890D01*
X90999Y-41009D01*
X91155Y-41074D01*
X91276Y-41074D01*
X91224Y-41126D01*
X91159Y-41223D01*
X91137Y-41338D01*
X91137Y-42224D01*
X91138Y-42230D01*
X91107Y-42222D01*
X91037Y-42293D01*
X91037Y-42151D01*
X91012Y-42059D01*
X90815Y-41989D01*
X90607Y-42001D01*
X90467Y-42059D01*
X90443Y-42151D01*
X90740Y-42448D01*
X91037Y-42151D01*
X91037Y-42293D01*
X90810Y-42519D01*
X91107Y-42816D01*
X91200Y-42792D01*
X91239Y-42682D01*
X91294Y-42816D01*
X91442Y-42964D01*
X91635Y-43044D01*
X91844Y-43044D01*
X92037Y-42965D01*
X92184Y-42817D01*
X92265Y-42624D01*
X92265Y-42415D01*
X92185Y-42222D01*
X92037Y-42074D01*
X91845Y-41994D01*
X91737Y-41994D01*
X91737Y-41961D01*
X91757Y-41970D01*
X91856Y-41970D01*
X92356Y-41970D01*
X92409Y-41948D01*
X92791Y-42330D01*
X92791Y-42330D01*
X92802Y-42337D01*
X92840Y-42429D01*
X92979Y-42568D01*
X92957Y-42568D01*
X92865Y-42606D01*
X92795Y-42676D01*
X92757Y-42768D01*
X92757Y-42867D01*
X92757Y-43467D01*
X92795Y-43559D01*
X92865Y-43629D01*
X92957Y-43668D01*
X93056Y-43668D01*
X93656Y-43668D01*
X93748Y-43630D01*
X93814Y-43563D01*
X93814Y-44996D01*
X93814Y-44996D01*
G37*
G54D18*
X93814Y-44996D02*
X92868Y-44996D01*
X92968Y-44954D01*
X93123Y-44800D01*
X93207Y-44598D01*
X93207Y-44379D01*
X93124Y-44177D01*
X92969Y-44022D01*
X92767Y-43938D01*
X92548Y-43938D01*
X92346Y-44021D01*
X92191Y-44176D01*
X92157Y-44258D01*
X92124Y-44177D01*
X91969Y-44022D01*
X91767Y-43938D01*
X91548Y-43938D01*
X91519Y-43949D01*
X90595Y-43025D01*
X90664Y-43049D01*
X90872Y-43038D01*
X91012Y-42980D01*
X91037Y-42887D01*
X90740Y-42590D01*
X90734Y-42595D01*
X90663Y-42525D01*
X90669Y-42519D01*
X90372Y-42222D01*
X90279Y-42246D01*
X90210Y-42443D01*
X90221Y-42651D01*
X90090Y-42520D01*
X90090Y-42435D01*
X90025Y-42279D01*
X89906Y-42159D01*
X89750Y-42094D01*
X89581Y-42094D01*
X89424Y-42159D01*
X89305Y-42278D01*
X89240Y-42434D01*
X89240Y-42488D01*
X89187Y-42488D01*
X89031Y-42552D01*
X88911Y-42672D01*
X88846Y-42828D01*
X88846Y-42997D01*
X88885Y-43092D01*
X88813Y-43164D01*
X88757Y-43298D01*
X88757Y-41670D01*
X88757Y-41470D01*
X88719Y-41378D01*
X88710Y-41370D01*
X88719Y-41361D01*
X88757Y-41269D01*
X88757Y-41232D01*
X88694Y-41170D01*
X88307Y-41170D01*
X88307Y-41177D01*
X88207Y-41177D01*
X88207Y-41170D01*
X87819Y-41170D01*
X87757Y-41232D01*
X87757Y-41269D01*
X87795Y-41361D01*
X87803Y-41370D01*
X87795Y-41378D01*
X87757Y-41470D01*
X87757Y-41569D01*
X87757Y-41769D01*
X87795Y-41861D01*
X87865Y-41931D01*
X87957Y-41970D01*
X88056Y-41970D01*
X88556Y-41970D01*
X88648Y-41932D01*
X88719Y-41861D01*
X88757Y-41770D01*
X88757Y-41670D01*
X88757Y-43298D01*
X88748Y-43320D01*
X88748Y-43489D01*
X88812Y-43645D01*
X88932Y-43765D01*
X89088Y-43830D01*
X89173Y-43830D01*
X89357Y-44014D01*
X89357Y-44017D01*
X89346Y-44021D01*
X89191Y-44176D01*
X89160Y-44251D01*
X89138Y-44200D01*
X89043Y-44172D01*
X88972Y-44243D01*
X88972Y-44102D01*
X88945Y-44006D01*
X88739Y-43933D01*
X88520Y-43944D01*
X88369Y-44006D01*
X88342Y-44102D01*
X88657Y-44417D01*
X88972Y-44102D01*
X88972Y-44243D01*
X88728Y-44488D01*
X89043Y-44803D01*
X89138Y-44776D01*
X89158Y-44720D01*
X89190Y-44799D01*
X89345Y-44954D01*
X89446Y-44996D01*
X88881Y-44996D01*
X88945Y-44969D01*
X88972Y-44874D01*
X88657Y-44558D01*
X88342Y-44874D01*
X88369Y-44969D01*
X88444Y-44996D01*
X88103Y-44996D01*
X88169Y-44929D01*
X88207Y-44838D01*
X88207Y-44785D01*
X88271Y-44803D01*
X88586Y-44488D01*
X88271Y-44172D01*
X88207Y-44191D01*
X88207Y-44138D01*
X88169Y-44046D01*
X88099Y-43976D01*
X88007Y-43938D01*
X87907Y-43938D01*
X87307Y-43938D01*
X87216Y-43976D01*
X87145Y-44046D01*
X87107Y-44138D01*
X87107Y-44237D01*
X87107Y-44837D01*
X87145Y-44929D01*
X87211Y-44996D01*
X86500Y-44996D01*
X86500Y-43329D01*
X86541Y-43429D01*
X86695Y-43584D01*
X86897Y-43668D01*
X87116Y-43668D01*
X87319Y-43584D01*
X87473Y-43430D01*
X87478Y-43418D01*
X87797Y-43418D01*
X87849Y-43470D01*
X88005Y-43535D01*
X88174Y-43535D01*
X88330Y-43470D01*
X88450Y-43351D01*
X88515Y-43195D01*
X88515Y-43026D01*
X88451Y-42869D01*
X88331Y-42750D01*
X88175Y-42685D01*
X88006Y-42685D01*
X87850Y-42749D01*
X87781Y-42818D01*
X87479Y-42818D01*
X87474Y-42806D01*
X87335Y-42668D01*
X87357Y-42668D01*
X87449Y-42630D01*
X87519Y-42559D01*
X87557Y-42468D01*
X87557Y-42368D01*
X87557Y-41768D01*
X87519Y-41676D01*
X87449Y-41606D01*
X87357Y-41568D01*
X87258Y-41568D01*
X86658Y-41568D01*
X86566Y-41606D01*
X86500Y-41672D01*
X86500Y-41163D01*
X86541Y-41263D01*
X86695Y-41418D01*
X86897Y-41502D01*
X87116Y-41502D01*
X87319Y-41419D01*
X87473Y-41264D01*
X87478Y-41252D01*
X87492Y-41252D01*
X87492Y-41252D01*
X87606Y-41229D01*
X87606Y-41229D01*
X87704Y-41164D01*
X87809Y-41059D01*
X87819Y-41070D01*
X88207Y-41070D01*
X88207Y-41062D01*
X88307Y-41062D01*
X88307Y-41070D01*
X88694Y-41070D01*
X88757Y-41007D01*
X88757Y-40970D01*
X88736Y-40920D01*
X89334Y-40920D01*
X89424Y-41009D01*
X89580Y-41074D01*
X89749Y-41074D01*
X89905Y-41010D01*
X90025Y-40890D01*
X90090Y-40734D01*
X90090Y-40565D01*
X90025Y-40409D01*
X89906Y-40289D01*
X89750Y-40224D01*
X89598Y-40224D01*
X89598Y-40073D01*
X89533Y-39917D01*
X89414Y-39797D01*
X89258Y-39732D01*
X89089Y-39732D01*
X88932Y-39796D01*
X88909Y-39820D01*
X88736Y-39820D01*
X88757Y-39770D01*
X88757Y-39670D01*
X88757Y-39470D01*
X88719Y-39378D01*
X88711Y-39370D01*
X88719Y-39361D01*
X88757Y-39270D01*
X88757Y-39170D01*
X88757Y-38970D01*
X88719Y-38878D01*
X88711Y-38870D01*
X88719Y-38861D01*
X88757Y-38770D01*
X88757Y-38670D01*
X88757Y-38470D01*
X88736Y-38420D01*
X90181Y-38420D01*
X90211Y-38450D01*
X90367Y-38515D01*
X90536Y-38515D01*
X90693Y-38451D01*
X90812Y-38331D01*
X90877Y-38175D01*
X90877Y-38023D01*
X90930Y-38023D01*
X91086Y-37958D01*
X91206Y-37839D01*
X91271Y-37683D01*
X91271Y-37514D01*
X91206Y-37357D01*
X91087Y-37238D01*
X90931Y-37173D01*
X90762Y-37173D01*
X90606Y-37237D01*
X90523Y-37320D01*
X88972Y-37320D01*
X88972Y-34637D01*
X88657Y-34322D01*
X88342Y-34637D01*
X88369Y-34733D01*
X88575Y-34806D01*
X88794Y-34795D01*
X88945Y-34733D01*
X88972Y-34637D01*
X88972Y-37320D01*
X88736Y-37320D01*
X88757Y-37269D01*
X88757Y-36970D01*
X88719Y-36878D01*
X88649Y-36808D01*
X88557Y-36770D01*
X88457Y-36770D01*
X88369Y-36770D01*
X88307Y-36832D01*
X88307Y-37070D01*
X88694Y-37070D01*
X88757Y-37007D01*
X88757Y-36970D01*
X88757Y-37269D01*
X88757Y-37232D01*
X88694Y-37170D01*
X88307Y-37170D01*
X88307Y-37177D01*
X88207Y-37177D01*
X88207Y-37170D01*
X88199Y-37170D01*
X88199Y-37070D01*
X88207Y-37070D01*
X88207Y-36832D01*
X88144Y-36770D01*
X88056Y-36770D01*
X87957Y-36770D01*
X87957Y-36770D01*
X87908Y-36697D01*
X87908Y-36697D01*
X87621Y-36409D01*
X87524Y-36344D01*
X87485Y-36337D01*
X87474Y-36310D01*
X87335Y-36172D01*
X87357Y-36172D01*
X87449Y-36134D01*
X87519Y-36063D01*
X87557Y-35971D01*
X87557Y-35872D01*
X87557Y-35272D01*
X87519Y-35180D01*
X87449Y-35110D01*
X87357Y-35072D01*
X87258Y-35072D01*
X86658Y-35072D01*
X86566Y-35109D01*
X86500Y-35176D01*
X86500Y-33744D01*
X87211Y-33744D01*
X87145Y-33810D01*
X87107Y-33902D01*
X87107Y-34001D01*
X87107Y-34601D01*
X87145Y-34693D01*
X87215Y-34763D01*
X87307Y-34801D01*
X87406Y-34802D01*
X88006Y-34802D01*
X88098Y-34764D01*
X88169Y-34693D01*
X88207Y-34601D01*
X88207Y-34548D01*
X88271Y-34567D01*
X88586Y-34251D01*
X88271Y-33936D01*
X88207Y-33955D01*
X88207Y-33902D01*
X88169Y-33810D01*
X88103Y-33744D01*
X88433Y-33744D01*
X88369Y-33770D01*
X88342Y-33866D01*
X88657Y-34181D01*
X88972Y-33866D01*
X88945Y-33770D01*
X88870Y-33744D01*
X89446Y-33744D01*
X89346Y-33785D01*
X89191Y-33940D01*
X89160Y-34015D01*
X89138Y-33964D01*
X89043Y-33936D01*
X88728Y-34251D01*
X89043Y-34567D01*
X89138Y-34539D01*
X89158Y-34484D01*
X89190Y-34563D01*
X89345Y-34717D01*
X89547Y-34801D01*
X89766Y-34802D01*
X89968Y-34718D01*
X90123Y-34563D01*
X90157Y-34482D01*
X90190Y-34563D01*
X90345Y-34717D01*
X90547Y-34801D01*
X90766Y-34802D01*
X90968Y-34718D01*
X91123Y-34563D01*
X91157Y-34482D01*
X91190Y-34563D01*
X91345Y-34717D01*
X91547Y-34801D01*
X91766Y-34802D01*
X91968Y-34718D01*
X92123Y-34563D01*
X92157Y-34482D01*
X92190Y-34563D01*
X92345Y-34717D01*
X92547Y-34801D01*
X92766Y-34802D01*
X92968Y-34718D01*
X93123Y-34563D01*
X93207Y-34361D01*
X93207Y-34143D01*
X93124Y-33940D01*
X92969Y-33785D01*
X92868Y-33744D01*
X93814Y-33744D01*
X93814Y-35410D01*
X93773Y-35310D01*
X93619Y-35156D01*
X93416Y-35072D01*
X93198Y-35071D01*
X92995Y-35155D01*
X92841Y-35310D01*
X92757Y-35512D01*
X92756Y-35730D01*
X92840Y-35933D01*
X92979Y-36072D01*
X92957Y-36072D01*
X92865Y-36109D01*
X92795Y-36180D01*
X92757Y-36272D01*
X92757Y-36367D01*
X92693Y-36409D01*
X92405Y-36697D01*
X92357Y-36770D01*
X92257Y-36770D01*
X92169Y-36770D01*
X92107Y-36832D01*
X92107Y-37070D01*
X92115Y-37070D01*
X92115Y-37170D01*
X92107Y-37170D01*
X92107Y-37332D01*
X92107Y-37407D01*
X92107Y-37570D01*
X92115Y-37570D01*
X92115Y-37670D01*
X92107Y-37670D01*
X92107Y-37677D01*
X92007Y-37677D01*
X92007Y-37670D01*
X92007Y-37570D01*
X92007Y-37407D01*
X92007Y-37332D01*
X92007Y-37170D01*
X92007Y-37070D01*
X92007Y-36832D01*
X91944Y-36770D01*
X91856Y-36770D01*
X91757Y-36770D01*
X91665Y-36808D01*
X91595Y-36878D01*
X91557Y-36970D01*
X91557Y-37007D01*
X91619Y-37070D01*
X92007Y-37070D01*
X92007Y-37170D01*
X91619Y-37170D01*
X91557Y-37232D01*
X91557Y-37269D01*
X91595Y-37361D01*
X91603Y-37370D01*
X91595Y-37378D01*
X91557Y-37470D01*
X91557Y-37507D01*
X91619Y-37570D01*
X92007Y-37570D01*
X92007Y-37670D01*
X91619Y-37670D01*
X91557Y-37732D01*
X91557Y-37769D01*
X91595Y-37861D01*
X91603Y-37870D01*
X91595Y-37878D01*
X91557Y-37970D01*
X91557Y-38069D01*
X91557Y-38269D01*
X91568Y-38296D01*
X91423Y-38236D01*
X91254Y-38236D01*
X91098Y-38300D01*
X90978Y-38420D01*
X90913Y-38576D01*
X90913Y-38745D01*
X90978Y-38901D01*
X91097Y-39021D01*
X91253Y-39086D01*
X91422Y-39086D01*
X91557Y-39030D01*
X91557Y-39069D01*
X91557Y-39269D01*
X91595Y-39361D01*
X91603Y-39370D01*
X91595Y-39378D01*
X91557Y-39470D01*
X91557Y-39569D01*
X91557Y-39769D01*
X91595Y-39861D01*
X91603Y-39870D01*
X91595Y-39878D01*
X91557Y-39970D01*
X91557Y-40069D01*
X91557Y-40269D01*
X91578Y-40320D01*
X91511Y-40320D01*
X91481Y-40289D01*
X91325Y-40224D01*
X91155Y-40224D01*
X90999Y-40289D01*
X90880Y-40408D01*
X90815Y-40564D01*
X90815Y-40733D01*
X90879Y-40890D01*
X90999Y-41009D01*
X91155Y-41074D01*
X91276Y-41074D01*
X91224Y-41126D01*
X91159Y-41223D01*
X91137Y-41338D01*
X91137Y-42224D01*
X91138Y-42230D01*
X91107Y-42222D01*
X91037Y-42293D01*
X91037Y-42151D01*
X91012Y-42059D01*
X90815Y-41989D01*
X90607Y-42001D01*
X90467Y-42059D01*
X90443Y-42151D01*
X90740Y-42448D01*
X91037Y-42151D01*
X91037Y-42293D01*
X90810Y-42519D01*
X91107Y-42816D01*
X91200Y-42792D01*
X91239Y-42682D01*
X91294Y-42816D01*
X91442Y-42964D01*
X91635Y-43044D01*
X91844Y-43044D01*
X92037Y-42965D01*
X92184Y-42817D01*
X92265Y-42624D01*
X92265Y-42415D01*
X92185Y-42222D01*
X92037Y-42074D01*
X91845Y-41994D01*
X91737Y-41994D01*
X91737Y-41961D01*
X91757Y-41970D01*
X91856Y-41970D01*
X92356Y-41970D01*
X92409Y-41948D01*
X92791Y-42330D01*
X92791Y-42330D01*
X92802Y-42337D01*
X92840Y-42429D01*
X92979Y-42568D01*
X92957Y-42568D01*
X92865Y-42606D01*
X92795Y-42676D01*
X92757Y-42768D01*
X92757Y-42867D01*
X92757Y-43467D01*
X92795Y-43559D01*
X92865Y-43629D01*
X92957Y-43668D01*
X93056Y-43668D01*
X93656Y-43668D01*
X93748Y-43630D01*
X93814Y-43563D01*
X93814Y-44996D01*
M02*
