M48
;DRILL file {Pcbnew (2013-04-19 BZR 4011)-stable} date 9/19/2013 12:36:00 AM
;FORMAT={-:-/ absolute / inch / decimal}
FMAT,2
INCH,TZ
T1C0.025
T2C0.032
T3C0.040
%
G90
G05
M72
T1
X7.6378Y-3.9665
X7.6378Y-4.3996
X7.6378Y-4.8327
X7.6378Y-5.2657
X8.0315Y-3.9665
X8.0315Y-4.3996
X8.0315Y-4.8327
X8.0315Y-5.2657
X8.4252Y-3.9665
X8.4252Y-4.3996
X8.4252Y-4.8327
X8.4252Y-5.2657
X8.8091Y-4.311
X8.9173Y-4.0157
X8.9173Y-4.3406
X8.9272Y-4.2913
X8.9665Y-4.065
X8.9665Y-4.252
X9.0453Y-3.8091
X9.0846Y-3.7598
X9.124Y-4.065
X9.1339Y-3.8661
T2
X7.5878Y-3.4646
X7.6878Y-3.4646
X7.9815Y-3.4646
X8.0815Y-3.4646
X8.3752Y-3.4646
X8.4752Y-3.4646
X8.7189Y-4.7713
X8.7189Y-5.0713
X8.7657Y-4.6063
X8.8657Y-4.6063
X8.9189Y-4.7713
X8.9189Y-5.0713
X8.9657Y-4.6063
X8.9657Y-5.2362
X9.0232Y-4.7713
X9.0232Y-4.8713
X9.0232Y-4.9713
X9.0232Y-5.0713
X9.0657Y-4.6063
X9.0657Y-5.2362
X9.074Y-4.252
X9.1657Y-4.6063
X9.174Y-4.252
X9.202Y-5.2362
X9.2657Y-4.6063
X9.302Y-5.2362
X9.3232Y-4.7713
X9.3232Y-4.8713
X9.3232Y-4.9713
X9.3232Y-5.0713
T3
X8.7008Y-3.5622
X8.7008Y-3.6622
X8.7008Y-3.7787
X8.7008Y-3.8787
X8.7008Y-3.9953
X8.7008Y-4.0953
X8.7008Y-4.2118
X8.7008Y-4.3118
X8.7657Y-3.4252
X8.7657Y-4.4488
X8.8657Y-3.4252
X8.8657Y-4.4488
X8.9657Y-3.4252
X8.9657Y-4.4488
X9.0657Y-3.4252
X9.0657Y-4.4488
X9.1657Y-3.4252
X9.1657Y-4.4488
X9.2657Y-3.4252
X9.2657Y-4.4488
X9.3307Y-3.5622
X9.3307Y-3.6622
X9.3307Y-3.7787
X9.3307Y-3.8787
X9.3307Y-3.9953
X9.3307Y-4.0953
X9.3307Y-4.2118
X9.3307Y-4.3118
T0
M30
