G04 (created by PCBNEW (2013-04-19 BZR 4011)-stable) date 9/19/2013 12:32:27 AM*
%MOIN*%
G04 Gerber Fmt 3.4, Leading zero omitted, Abs format*
%FSLAX34Y34*%
G01*
G70*
G90*
G04 APERTURE LIST*
%ADD10C,0.00393701*%
%ADD11R,0.08X0.06*%
%ADD12R,0.055X0.055*%
%ADD13C,0.055*%
%ADD14R,0.06X0.06*%
%ADD15C,0.06*%
%ADD16C,0.035*%
%ADD17C,0.01*%
%ADD18C,0.015748*%
G04 APERTURE END LIST*
G54D10*
G54D11*
X84251Y-36850D03*
X84251Y-38150D03*
X84251Y-41180D03*
X84251Y-42480D03*
X84251Y-45511D03*
X84251Y-46811D03*
X84251Y-49842D03*
X84251Y-51142D03*
G54D12*
X83751Y-34645D03*
G54D13*
X84751Y-34645D03*
G54D11*
X80314Y-36850D03*
X80314Y-38150D03*
X80314Y-41180D03*
X80314Y-42480D03*
X80314Y-45511D03*
X80314Y-46811D03*
X80314Y-49842D03*
X80314Y-51142D03*
G54D12*
X79814Y-34645D03*
G54D13*
X80814Y-34645D03*
G54D11*
X76377Y-36850D03*
X76377Y-38150D03*
X76377Y-41180D03*
X76377Y-42480D03*
X76377Y-45511D03*
X76377Y-46811D03*
X76377Y-49842D03*
X76377Y-51142D03*
G54D12*
X75877Y-34645D03*
G54D13*
X76877Y-34645D03*
X87188Y-47712D03*
X89188Y-47712D03*
X87188Y-50712D03*
X89188Y-50712D03*
G54D12*
X87657Y-46062D03*
G54D13*
X88657Y-46062D03*
X89657Y-46062D03*
X90657Y-46062D03*
X91657Y-46062D03*
X92657Y-46062D03*
G54D12*
X89657Y-52362D03*
G54D13*
X90657Y-52362D03*
G54D12*
X90232Y-47712D03*
G54D13*
X90232Y-48712D03*
X90232Y-49712D03*
X90232Y-50712D03*
X93232Y-50712D03*
X93232Y-49712D03*
X93232Y-48712D03*
X93232Y-47712D03*
X92019Y-52362D03*
X93019Y-52362D03*
G54D14*
X93307Y-43118D03*
G54D15*
X93307Y-42118D03*
G54D14*
X93307Y-40952D03*
G54D15*
X93307Y-39952D03*
G54D14*
X93307Y-38787D03*
G54D15*
X93307Y-37787D03*
G54D14*
X93307Y-36622D03*
G54D15*
X93307Y-35622D03*
G54D14*
X87007Y-35622D03*
G54D15*
X87007Y-36622D03*
G54D14*
X87007Y-37787D03*
G54D15*
X87007Y-38787D03*
G54D14*
X87007Y-39952D03*
G54D15*
X87007Y-40952D03*
G54D14*
X87007Y-42118D03*
G54D15*
X87007Y-43118D03*
G54D14*
X87657Y-44488D03*
G54D15*
X88657Y-44488D03*
X89657Y-44488D03*
X90657Y-44488D03*
X91657Y-44488D03*
X92657Y-44488D03*
G54D14*
X87657Y-34251D03*
G54D15*
X88657Y-34251D03*
X89657Y-34251D03*
X90657Y-34251D03*
X91657Y-34251D03*
X92657Y-34251D03*
G54D13*
X90740Y-42519D03*
X91740Y-42519D03*
G54D16*
X90846Y-37598D03*
X89665Y-42519D03*
X91240Y-40649D03*
X89173Y-43405D03*
X89665Y-40649D03*
X90452Y-38090D03*
X89271Y-42913D03*
X91338Y-38661D03*
X84251Y-39665D03*
X80314Y-39665D03*
X76377Y-39665D03*
X84251Y-43996D03*
X80314Y-43996D03*
X76377Y-43996D03*
X84251Y-48326D03*
X80314Y-48326D03*
X76377Y-48326D03*
X89173Y-40157D03*
X88090Y-43110D03*
X84251Y-52657D03*
X80314Y-52657D03*
X76377Y-52657D03*
G54D17*
X93232Y-49712D02*
X93019Y-49712D01*
X90657Y-46562D02*
X90657Y-46062D01*
X92519Y-48425D02*
X90657Y-46562D01*
X92519Y-49212D02*
X92519Y-48425D01*
X93019Y-49712D02*
X92519Y-49212D01*
X93232Y-50712D02*
X92125Y-49606D01*
X89657Y-46350D02*
X89657Y-46062D01*
X90157Y-46850D02*
X89657Y-46350D01*
X90551Y-46850D02*
X90157Y-46850D01*
X92125Y-48425D02*
X90551Y-46850D01*
X92125Y-49606D02*
X92125Y-48425D01*
X91657Y-35311D02*
X91657Y-34251D01*
X90846Y-36122D02*
X91657Y-35311D01*
X90846Y-40551D02*
X90846Y-37598D01*
X90846Y-37598D02*
X90846Y-36122D01*
X89665Y-41732D02*
X90846Y-40551D01*
X89665Y-42519D02*
X89665Y-41732D01*
X93232Y-48712D02*
X93200Y-48712D01*
X91657Y-47169D02*
X91657Y-46062D01*
X93200Y-48712D02*
X91657Y-47169D01*
X90059Y-41830D02*
X91240Y-40649D01*
X90059Y-43011D02*
X90059Y-41830D01*
X89665Y-43405D02*
X90059Y-43011D01*
X89173Y-43405D02*
X89665Y-43405D01*
X89665Y-40649D02*
X89763Y-40649D01*
X89657Y-35523D02*
X89657Y-34251D01*
X90059Y-35925D02*
X89657Y-35523D01*
X90059Y-40354D02*
X90059Y-35925D01*
X89763Y-40649D02*
X90059Y-40354D01*
X89657Y-40641D02*
X89665Y-40649D01*
X90657Y-35720D02*
X90657Y-34251D01*
X90452Y-35925D02*
X90657Y-35720D01*
X90452Y-40452D02*
X90452Y-38090D01*
X90452Y-38090D02*
X90452Y-35925D01*
X89271Y-41633D02*
X90452Y-40452D01*
X89271Y-42913D02*
X89271Y-41633D01*
X91338Y-37007D02*
X91338Y-36929D01*
X91338Y-37007D02*
X91338Y-38661D01*
X92645Y-35622D02*
X93307Y-35622D01*
X91338Y-36929D02*
X92645Y-35622D01*
X84251Y-38150D02*
X84251Y-39665D01*
X80314Y-38150D02*
X80314Y-39665D01*
X76377Y-38150D02*
X76377Y-39665D01*
X84251Y-43996D02*
X84251Y-42480D01*
X80314Y-43996D02*
X80314Y-42480D01*
X76377Y-43996D02*
X76377Y-42480D01*
X84251Y-48326D02*
X84251Y-46811D01*
X80314Y-48326D02*
X80314Y-46811D01*
X76377Y-48326D02*
X76377Y-46811D01*
X89173Y-40157D02*
X89173Y-41240D01*
X88877Y-42322D02*
X88090Y-43110D01*
X88877Y-41535D02*
X88877Y-42322D01*
X89173Y-41240D02*
X88877Y-41535D01*
X84251Y-52657D02*
X84251Y-51142D01*
X80314Y-52657D02*
X80314Y-51142D01*
X76377Y-52657D02*
X76377Y-51142D01*
X92421Y-42519D02*
X91740Y-42519D01*
X87007Y-42118D02*
X87657Y-42118D01*
X87007Y-39952D02*
X87657Y-39952D01*
X87007Y-37787D02*
X87657Y-37787D01*
X87007Y-35622D02*
X87657Y-35622D01*
G54D18*
X87657Y-44488D02*
X87657Y-42118D01*
X87657Y-42118D02*
X87657Y-39952D01*
X87657Y-39952D02*
X87657Y-37787D01*
X87657Y-37787D02*
X87657Y-35622D01*
X87657Y-35622D02*
X87657Y-34251D01*
G54D17*
X87657Y-43799D02*
X92421Y-43799D01*
X92618Y-43307D02*
X92807Y-43118D01*
X92618Y-43602D02*
X92618Y-43307D01*
X92421Y-43799D02*
X92618Y-43602D01*
X92807Y-43118D02*
X93307Y-43118D01*
X92421Y-42519D02*
X92618Y-42716D01*
X92618Y-42716D02*
X92618Y-42913D01*
X92618Y-41255D02*
X92618Y-41437D01*
X92421Y-42519D02*
X92618Y-42322D01*
X92618Y-42322D02*
X92618Y-41437D01*
X92618Y-41255D02*
X92921Y-40952D01*
X92807Y-43118D02*
X92814Y-43118D01*
X92814Y-43118D02*
X93307Y-43118D01*
X92807Y-43118D02*
X93307Y-43118D01*
X92618Y-38385D02*
X92618Y-36909D01*
X92618Y-36909D02*
X92905Y-36622D01*
X92905Y-36622D02*
X93307Y-36622D01*
X93307Y-38787D02*
X93019Y-38787D01*
X93019Y-38787D02*
X92618Y-38385D01*
X93307Y-40952D02*
X92921Y-40952D01*
X92822Y-43118D02*
X92807Y-43118D01*
X92618Y-42913D02*
X92618Y-42913D01*
X92822Y-43118D02*
X93307Y-43118D01*
X92618Y-42913D02*
X92822Y-43118D01*
X93003Y-38787D02*
X93307Y-38787D01*
X92921Y-40952D02*
X92618Y-40649D01*
X92618Y-40649D02*
X92618Y-39173D01*
X92618Y-39173D02*
X93003Y-38787D01*
X93307Y-40952D02*
X92905Y-40952D01*
G54D10*
G36*
X85950Y-52879D02*
X85281Y-52879D01*
X85281Y-34721D01*
X85270Y-34512D01*
X85212Y-34372D01*
X85119Y-34348D01*
X85049Y-34419D01*
X85049Y-34277D01*
X85024Y-34185D01*
X84827Y-34115D01*
X84619Y-34127D01*
X84479Y-34185D01*
X84454Y-34277D01*
X84751Y-34574D01*
X85049Y-34277D01*
X85049Y-34419D01*
X84822Y-34645D01*
X85119Y-34942D01*
X85212Y-34918D01*
X85281Y-34721D01*
X85281Y-52879D01*
X85049Y-52879D01*
X85049Y-35013D01*
X84751Y-34716D01*
X84681Y-34787D01*
X84681Y-34645D01*
X84384Y-34348D01*
X84291Y-34372D01*
X84277Y-34413D01*
X84277Y-34321D01*
X84239Y-34229D01*
X84168Y-34158D01*
X84076Y-34120D01*
X83977Y-34120D01*
X83427Y-34120D01*
X83335Y-34158D01*
X83265Y-34228D01*
X83227Y-34320D01*
X83226Y-34420D01*
X83226Y-34970D01*
X83264Y-35062D01*
X83335Y-35132D01*
X83427Y-35170D01*
X83526Y-35170D01*
X84076Y-35170D01*
X84168Y-35132D01*
X84238Y-35062D01*
X84276Y-34970D01*
X84277Y-34883D01*
X84291Y-34918D01*
X84384Y-34942D01*
X84681Y-34645D01*
X84681Y-34787D01*
X84454Y-35013D01*
X84479Y-35106D01*
X84676Y-35175D01*
X84884Y-35164D01*
X85024Y-35106D01*
X85049Y-35013D01*
X85049Y-52879D01*
X84619Y-52879D01*
X84676Y-52742D01*
X84677Y-52573D01*
X84612Y-52417D01*
X84551Y-52356D01*
X84551Y-51692D01*
X84701Y-51692D01*
X84793Y-51654D01*
X84863Y-51583D01*
X84901Y-51492D01*
X84902Y-51392D01*
X84902Y-50792D01*
X84902Y-50191D01*
X84902Y-49492D01*
X84902Y-47061D01*
X84902Y-46461D01*
X84902Y-45860D01*
X84902Y-45161D01*
X84902Y-42731D01*
X84902Y-42131D01*
X84902Y-41530D01*
X84902Y-40831D01*
X84902Y-38400D01*
X84902Y-37800D01*
X84902Y-37199D01*
X84902Y-36500D01*
X84864Y-36408D01*
X84793Y-36338D01*
X84701Y-36300D01*
X84602Y-36299D01*
X84364Y-36300D01*
X84301Y-36362D01*
X84301Y-36800D01*
X84839Y-36800D01*
X84901Y-36737D01*
X84902Y-36500D01*
X84902Y-37199D01*
X84901Y-36962D01*
X84839Y-36900D01*
X84301Y-36900D01*
X84301Y-37337D01*
X84364Y-37400D01*
X84602Y-37400D01*
X84701Y-37399D01*
X84793Y-37361D01*
X84864Y-37291D01*
X84902Y-37199D01*
X84902Y-37800D01*
X84864Y-37708D01*
X84793Y-37638D01*
X84701Y-37600D01*
X84602Y-37599D01*
X84201Y-37599D01*
X84201Y-37337D01*
X84201Y-36900D01*
X84201Y-36800D01*
X84201Y-36362D01*
X84139Y-36300D01*
X83901Y-36299D01*
X83802Y-36300D01*
X83710Y-36338D01*
X83639Y-36408D01*
X83601Y-36500D01*
X83601Y-36737D01*
X83664Y-36800D01*
X84201Y-36800D01*
X84201Y-36900D01*
X83664Y-36900D01*
X83601Y-36962D01*
X83601Y-37199D01*
X83639Y-37291D01*
X83710Y-37361D01*
X83802Y-37399D01*
X83901Y-37400D01*
X84139Y-37400D01*
X84201Y-37337D01*
X84201Y-37599D01*
X83802Y-37599D01*
X83710Y-37637D01*
X83640Y-37708D01*
X83602Y-37800D01*
X83601Y-37899D01*
X83601Y-38499D01*
X83639Y-38591D01*
X83710Y-38661D01*
X83802Y-38699D01*
X83901Y-38700D01*
X83951Y-38700D01*
X83951Y-39364D01*
X83891Y-39424D01*
X83827Y-39580D01*
X83826Y-39749D01*
X83891Y-39905D01*
X84010Y-40025D01*
X84167Y-40090D01*
X84336Y-40090D01*
X84492Y-40025D01*
X84612Y-39906D01*
X84676Y-39750D01*
X84677Y-39581D01*
X84612Y-39424D01*
X84551Y-39364D01*
X84551Y-38700D01*
X84701Y-38700D01*
X84793Y-38662D01*
X84863Y-38591D01*
X84901Y-38499D01*
X84902Y-38400D01*
X84902Y-40831D01*
X84864Y-40739D01*
X84793Y-40668D01*
X84701Y-40630D01*
X84602Y-40630D01*
X84364Y-40630D01*
X84301Y-40693D01*
X84301Y-41130D01*
X84839Y-41130D01*
X84901Y-41068D01*
X84902Y-40831D01*
X84902Y-41530D01*
X84901Y-41293D01*
X84839Y-41230D01*
X84301Y-41230D01*
X84301Y-41668D01*
X84364Y-41730D01*
X84602Y-41730D01*
X84701Y-41730D01*
X84793Y-41692D01*
X84864Y-41622D01*
X84902Y-41530D01*
X84902Y-42131D01*
X84864Y-42039D01*
X84793Y-41968D01*
X84701Y-41930D01*
X84602Y-41930D01*
X84201Y-41930D01*
X84201Y-41668D01*
X84201Y-41230D01*
X84201Y-41130D01*
X84201Y-40693D01*
X84139Y-40630D01*
X83901Y-40630D01*
X83802Y-40630D01*
X83710Y-40668D01*
X83639Y-40739D01*
X83601Y-40831D01*
X83601Y-41068D01*
X83664Y-41130D01*
X84201Y-41130D01*
X84201Y-41230D01*
X83664Y-41230D01*
X83601Y-41293D01*
X83601Y-41530D01*
X83639Y-41622D01*
X83710Y-41692D01*
X83802Y-41730D01*
X83901Y-41730D01*
X84139Y-41730D01*
X84201Y-41668D01*
X84201Y-41930D01*
X83802Y-41930D01*
X83710Y-41968D01*
X83640Y-42038D01*
X83602Y-42130D01*
X83601Y-42230D01*
X83601Y-42830D01*
X83639Y-42922D01*
X83710Y-42992D01*
X83802Y-43030D01*
X83901Y-43030D01*
X83951Y-43030D01*
X83951Y-43695D01*
X83891Y-43755D01*
X83827Y-43911D01*
X83826Y-44080D01*
X83891Y-44236D01*
X84010Y-44356D01*
X84167Y-44420D01*
X84336Y-44421D01*
X84492Y-44356D01*
X84612Y-44237D01*
X84676Y-44080D01*
X84677Y-43911D01*
X84612Y-43755D01*
X84551Y-43695D01*
X84551Y-43030D01*
X84701Y-43030D01*
X84793Y-42992D01*
X84863Y-42922D01*
X84901Y-42830D01*
X84902Y-42731D01*
X84902Y-45161D01*
X84864Y-45069D01*
X84793Y-44999D01*
X84701Y-44961D01*
X84602Y-44961D01*
X84364Y-44961D01*
X84301Y-45023D01*
X84301Y-45461D01*
X84839Y-45461D01*
X84901Y-45398D01*
X84902Y-45161D01*
X84902Y-45860D01*
X84901Y-45623D01*
X84839Y-45561D01*
X84301Y-45561D01*
X84301Y-45998D01*
X84364Y-46061D01*
X84602Y-46061D01*
X84701Y-46061D01*
X84793Y-46023D01*
X84864Y-45952D01*
X84902Y-45860D01*
X84902Y-46461D01*
X84864Y-46369D01*
X84793Y-46299D01*
X84701Y-46261D01*
X84602Y-46261D01*
X84201Y-46261D01*
X84201Y-45998D01*
X84201Y-45561D01*
X84201Y-45461D01*
X84201Y-45023D01*
X84139Y-44961D01*
X83901Y-44961D01*
X83802Y-44961D01*
X83710Y-44999D01*
X83639Y-45069D01*
X83601Y-45161D01*
X83601Y-45398D01*
X83664Y-45461D01*
X84201Y-45461D01*
X84201Y-45561D01*
X83664Y-45561D01*
X83601Y-45623D01*
X83601Y-45860D01*
X83639Y-45952D01*
X83710Y-46023D01*
X83802Y-46061D01*
X83901Y-46061D01*
X84139Y-46061D01*
X84201Y-45998D01*
X84201Y-46261D01*
X83802Y-46261D01*
X83710Y-46299D01*
X83640Y-46369D01*
X83602Y-46461D01*
X83601Y-46560D01*
X83601Y-47160D01*
X83639Y-47252D01*
X83710Y-47323D01*
X83802Y-47361D01*
X83901Y-47361D01*
X83951Y-47361D01*
X83951Y-48025D01*
X83891Y-48085D01*
X83827Y-48241D01*
X83826Y-48410D01*
X83891Y-48567D01*
X84010Y-48686D01*
X84167Y-48751D01*
X84336Y-48751D01*
X84492Y-48687D01*
X84612Y-48567D01*
X84676Y-48411D01*
X84677Y-48242D01*
X84612Y-48086D01*
X84551Y-48025D01*
X84551Y-47361D01*
X84701Y-47361D01*
X84793Y-47323D01*
X84863Y-47253D01*
X84901Y-47161D01*
X84902Y-47061D01*
X84902Y-49492D01*
X84864Y-49400D01*
X84793Y-49330D01*
X84701Y-49292D01*
X84602Y-49292D01*
X84364Y-49292D01*
X84301Y-49354D01*
X84301Y-49792D01*
X84839Y-49792D01*
X84901Y-49729D01*
X84902Y-49492D01*
X84902Y-50191D01*
X84901Y-49954D01*
X84839Y-49892D01*
X84301Y-49892D01*
X84301Y-50329D01*
X84364Y-50392D01*
X84602Y-50392D01*
X84701Y-50392D01*
X84793Y-50353D01*
X84864Y-50283D01*
X84902Y-50191D01*
X84902Y-50792D01*
X84864Y-50700D01*
X84793Y-50630D01*
X84701Y-50592D01*
X84602Y-50592D01*
X84201Y-50592D01*
X84201Y-50329D01*
X84201Y-49892D01*
X84201Y-49792D01*
X84201Y-49354D01*
X84139Y-49292D01*
X83901Y-49292D01*
X83802Y-49292D01*
X83710Y-49330D01*
X83639Y-49400D01*
X83601Y-49492D01*
X83601Y-49729D01*
X83664Y-49792D01*
X84201Y-49792D01*
X84201Y-49892D01*
X83664Y-49892D01*
X83601Y-49954D01*
X83601Y-50191D01*
X83639Y-50283D01*
X83710Y-50353D01*
X83802Y-50392D01*
X83901Y-50392D01*
X84139Y-50392D01*
X84201Y-50329D01*
X84201Y-50592D01*
X83802Y-50592D01*
X83710Y-50630D01*
X83640Y-50700D01*
X83602Y-50792D01*
X83601Y-50891D01*
X83601Y-51491D01*
X83639Y-51583D01*
X83710Y-51653D01*
X83802Y-51692D01*
X83901Y-51692D01*
X83951Y-51692D01*
X83951Y-52356D01*
X83891Y-52416D01*
X83827Y-52572D01*
X83826Y-52741D01*
X83884Y-52879D01*
X82553Y-52879D01*
X82553Y-33734D01*
X85950Y-33734D01*
X85950Y-52879D01*
X85950Y-52879D01*
G37*
G54D17*
X85950Y-52879D02*
X85281Y-52879D01*
X85281Y-34721D01*
X85270Y-34512D01*
X85212Y-34372D01*
X85119Y-34348D01*
X85049Y-34419D01*
X85049Y-34277D01*
X85024Y-34185D01*
X84827Y-34115D01*
X84619Y-34127D01*
X84479Y-34185D01*
X84454Y-34277D01*
X84751Y-34574D01*
X85049Y-34277D01*
X85049Y-34419D01*
X84822Y-34645D01*
X85119Y-34942D01*
X85212Y-34918D01*
X85281Y-34721D01*
X85281Y-52879D01*
X85049Y-52879D01*
X85049Y-35013D01*
X84751Y-34716D01*
X84681Y-34787D01*
X84681Y-34645D01*
X84384Y-34348D01*
X84291Y-34372D01*
X84277Y-34413D01*
X84277Y-34321D01*
X84239Y-34229D01*
X84168Y-34158D01*
X84076Y-34120D01*
X83977Y-34120D01*
X83427Y-34120D01*
X83335Y-34158D01*
X83265Y-34228D01*
X83227Y-34320D01*
X83226Y-34420D01*
X83226Y-34970D01*
X83264Y-35062D01*
X83335Y-35132D01*
X83427Y-35170D01*
X83526Y-35170D01*
X84076Y-35170D01*
X84168Y-35132D01*
X84238Y-35062D01*
X84276Y-34970D01*
X84277Y-34883D01*
X84291Y-34918D01*
X84384Y-34942D01*
X84681Y-34645D01*
X84681Y-34787D01*
X84454Y-35013D01*
X84479Y-35106D01*
X84676Y-35175D01*
X84884Y-35164D01*
X85024Y-35106D01*
X85049Y-35013D01*
X85049Y-52879D01*
X84619Y-52879D01*
X84676Y-52742D01*
X84677Y-52573D01*
X84612Y-52417D01*
X84551Y-52356D01*
X84551Y-51692D01*
X84701Y-51692D01*
X84793Y-51654D01*
X84863Y-51583D01*
X84901Y-51492D01*
X84902Y-51392D01*
X84902Y-50792D01*
X84902Y-50191D01*
X84902Y-49492D01*
X84902Y-47061D01*
X84902Y-46461D01*
X84902Y-45860D01*
X84902Y-45161D01*
X84902Y-42731D01*
X84902Y-42131D01*
X84902Y-41530D01*
X84902Y-40831D01*
X84902Y-38400D01*
X84902Y-37800D01*
X84902Y-37199D01*
X84902Y-36500D01*
X84864Y-36408D01*
X84793Y-36338D01*
X84701Y-36300D01*
X84602Y-36299D01*
X84364Y-36300D01*
X84301Y-36362D01*
X84301Y-36800D01*
X84839Y-36800D01*
X84901Y-36737D01*
X84902Y-36500D01*
X84902Y-37199D01*
X84901Y-36962D01*
X84839Y-36900D01*
X84301Y-36900D01*
X84301Y-37337D01*
X84364Y-37400D01*
X84602Y-37400D01*
X84701Y-37399D01*
X84793Y-37361D01*
X84864Y-37291D01*
X84902Y-37199D01*
X84902Y-37800D01*
X84864Y-37708D01*
X84793Y-37638D01*
X84701Y-37600D01*
X84602Y-37599D01*
X84201Y-37599D01*
X84201Y-37337D01*
X84201Y-36900D01*
X84201Y-36800D01*
X84201Y-36362D01*
X84139Y-36300D01*
X83901Y-36299D01*
X83802Y-36300D01*
X83710Y-36338D01*
X83639Y-36408D01*
X83601Y-36500D01*
X83601Y-36737D01*
X83664Y-36800D01*
X84201Y-36800D01*
X84201Y-36900D01*
X83664Y-36900D01*
X83601Y-36962D01*
X83601Y-37199D01*
X83639Y-37291D01*
X83710Y-37361D01*
X83802Y-37399D01*
X83901Y-37400D01*
X84139Y-37400D01*
X84201Y-37337D01*
X84201Y-37599D01*
X83802Y-37599D01*
X83710Y-37637D01*
X83640Y-37708D01*
X83602Y-37800D01*
X83601Y-37899D01*
X83601Y-38499D01*
X83639Y-38591D01*
X83710Y-38661D01*
X83802Y-38699D01*
X83901Y-38700D01*
X83951Y-38700D01*
X83951Y-39364D01*
X83891Y-39424D01*
X83827Y-39580D01*
X83826Y-39749D01*
X83891Y-39905D01*
X84010Y-40025D01*
X84167Y-40090D01*
X84336Y-40090D01*
X84492Y-40025D01*
X84612Y-39906D01*
X84676Y-39750D01*
X84677Y-39581D01*
X84612Y-39424D01*
X84551Y-39364D01*
X84551Y-38700D01*
X84701Y-38700D01*
X84793Y-38662D01*
X84863Y-38591D01*
X84901Y-38499D01*
X84902Y-38400D01*
X84902Y-40831D01*
X84864Y-40739D01*
X84793Y-40668D01*
X84701Y-40630D01*
X84602Y-40630D01*
X84364Y-40630D01*
X84301Y-40693D01*
X84301Y-41130D01*
X84839Y-41130D01*
X84901Y-41068D01*
X84902Y-40831D01*
X84902Y-41530D01*
X84901Y-41293D01*
X84839Y-41230D01*
X84301Y-41230D01*
X84301Y-41668D01*
X84364Y-41730D01*
X84602Y-41730D01*
X84701Y-41730D01*
X84793Y-41692D01*
X84864Y-41622D01*
X84902Y-41530D01*
X84902Y-42131D01*
X84864Y-42039D01*
X84793Y-41968D01*
X84701Y-41930D01*
X84602Y-41930D01*
X84201Y-41930D01*
X84201Y-41668D01*
X84201Y-41230D01*
X84201Y-41130D01*
X84201Y-40693D01*
X84139Y-40630D01*
X83901Y-40630D01*
X83802Y-40630D01*
X83710Y-40668D01*
X83639Y-40739D01*
X83601Y-40831D01*
X83601Y-41068D01*
X83664Y-41130D01*
X84201Y-41130D01*
X84201Y-41230D01*
X83664Y-41230D01*
X83601Y-41293D01*
X83601Y-41530D01*
X83639Y-41622D01*
X83710Y-41692D01*
X83802Y-41730D01*
X83901Y-41730D01*
X84139Y-41730D01*
X84201Y-41668D01*
X84201Y-41930D01*
X83802Y-41930D01*
X83710Y-41968D01*
X83640Y-42038D01*
X83602Y-42130D01*
X83601Y-42230D01*
X83601Y-42830D01*
X83639Y-42922D01*
X83710Y-42992D01*
X83802Y-43030D01*
X83901Y-43030D01*
X83951Y-43030D01*
X83951Y-43695D01*
X83891Y-43755D01*
X83827Y-43911D01*
X83826Y-44080D01*
X83891Y-44236D01*
X84010Y-44356D01*
X84167Y-44420D01*
X84336Y-44421D01*
X84492Y-44356D01*
X84612Y-44237D01*
X84676Y-44080D01*
X84677Y-43911D01*
X84612Y-43755D01*
X84551Y-43695D01*
X84551Y-43030D01*
X84701Y-43030D01*
X84793Y-42992D01*
X84863Y-42922D01*
X84901Y-42830D01*
X84902Y-42731D01*
X84902Y-45161D01*
X84864Y-45069D01*
X84793Y-44999D01*
X84701Y-44961D01*
X84602Y-44961D01*
X84364Y-44961D01*
X84301Y-45023D01*
X84301Y-45461D01*
X84839Y-45461D01*
X84901Y-45398D01*
X84902Y-45161D01*
X84902Y-45860D01*
X84901Y-45623D01*
X84839Y-45561D01*
X84301Y-45561D01*
X84301Y-45998D01*
X84364Y-46061D01*
X84602Y-46061D01*
X84701Y-46061D01*
X84793Y-46023D01*
X84864Y-45952D01*
X84902Y-45860D01*
X84902Y-46461D01*
X84864Y-46369D01*
X84793Y-46299D01*
X84701Y-46261D01*
X84602Y-46261D01*
X84201Y-46261D01*
X84201Y-45998D01*
X84201Y-45561D01*
X84201Y-45461D01*
X84201Y-45023D01*
X84139Y-44961D01*
X83901Y-44961D01*
X83802Y-44961D01*
X83710Y-44999D01*
X83639Y-45069D01*
X83601Y-45161D01*
X83601Y-45398D01*
X83664Y-45461D01*
X84201Y-45461D01*
X84201Y-45561D01*
X83664Y-45561D01*
X83601Y-45623D01*
X83601Y-45860D01*
X83639Y-45952D01*
X83710Y-46023D01*
X83802Y-46061D01*
X83901Y-46061D01*
X84139Y-46061D01*
X84201Y-45998D01*
X84201Y-46261D01*
X83802Y-46261D01*
X83710Y-46299D01*
X83640Y-46369D01*
X83602Y-46461D01*
X83601Y-46560D01*
X83601Y-47160D01*
X83639Y-47252D01*
X83710Y-47323D01*
X83802Y-47361D01*
X83901Y-47361D01*
X83951Y-47361D01*
X83951Y-48025D01*
X83891Y-48085D01*
X83827Y-48241D01*
X83826Y-48410D01*
X83891Y-48567D01*
X84010Y-48686D01*
X84167Y-48751D01*
X84336Y-48751D01*
X84492Y-48687D01*
X84612Y-48567D01*
X84676Y-48411D01*
X84677Y-48242D01*
X84612Y-48086D01*
X84551Y-48025D01*
X84551Y-47361D01*
X84701Y-47361D01*
X84793Y-47323D01*
X84863Y-47253D01*
X84901Y-47161D01*
X84902Y-47061D01*
X84902Y-49492D01*
X84864Y-49400D01*
X84793Y-49330D01*
X84701Y-49292D01*
X84602Y-49292D01*
X84364Y-49292D01*
X84301Y-49354D01*
X84301Y-49792D01*
X84839Y-49792D01*
X84901Y-49729D01*
X84902Y-49492D01*
X84902Y-50191D01*
X84901Y-49954D01*
X84839Y-49892D01*
X84301Y-49892D01*
X84301Y-50329D01*
X84364Y-50392D01*
X84602Y-50392D01*
X84701Y-50392D01*
X84793Y-50353D01*
X84864Y-50283D01*
X84902Y-50191D01*
X84902Y-50792D01*
X84864Y-50700D01*
X84793Y-50630D01*
X84701Y-50592D01*
X84602Y-50592D01*
X84201Y-50592D01*
X84201Y-50329D01*
X84201Y-49892D01*
X84201Y-49792D01*
X84201Y-49354D01*
X84139Y-49292D01*
X83901Y-49292D01*
X83802Y-49292D01*
X83710Y-49330D01*
X83639Y-49400D01*
X83601Y-49492D01*
X83601Y-49729D01*
X83664Y-49792D01*
X84201Y-49792D01*
X84201Y-49892D01*
X83664Y-49892D01*
X83601Y-49954D01*
X83601Y-50191D01*
X83639Y-50283D01*
X83710Y-50353D01*
X83802Y-50392D01*
X83901Y-50392D01*
X84139Y-50392D01*
X84201Y-50329D01*
X84201Y-50592D01*
X83802Y-50592D01*
X83710Y-50630D01*
X83640Y-50700D01*
X83602Y-50792D01*
X83601Y-50891D01*
X83601Y-51491D01*
X83639Y-51583D01*
X83710Y-51653D01*
X83802Y-51692D01*
X83901Y-51692D01*
X83951Y-51692D01*
X83951Y-52356D01*
X83891Y-52416D01*
X83827Y-52572D01*
X83826Y-52741D01*
X83884Y-52879D01*
X82553Y-52879D01*
X82553Y-33734D01*
X85950Y-33734D01*
X85950Y-52879D01*
G54D10*
G36*
X82013Y-52879D02*
X81344Y-52879D01*
X81344Y-34721D01*
X81333Y-34512D01*
X81275Y-34372D01*
X81182Y-34348D01*
X81112Y-34419D01*
X81112Y-34277D01*
X81087Y-34185D01*
X80890Y-34115D01*
X80682Y-34127D01*
X80542Y-34185D01*
X80517Y-34277D01*
X80814Y-34574D01*
X81112Y-34277D01*
X81112Y-34419D01*
X80885Y-34645D01*
X81182Y-34942D01*
X81275Y-34918D01*
X81344Y-34721D01*
X81344Y-52879D01*
X81112Y-52879D01*
X81112Y-35013D01*
X80814Y-34716D01*
X80744Y-34787D01*
X80744Y-34645D01*
X80447Y-34348D01*
X80354Y-34372D01*
X80340Y-34413D01*
X80340Y-34321D01*
X80302Y-34229D01*
X80231Y-34158D01*
X80139Y-34120D01*
X80040Y-34120D01*
X79490Y-34120D01*
X79398Y-34158D01*
X79328Y-34228D01*
X79290Y-34320D01*
X79289Y-34420D01*
X79289Y-34970D01*
X79327Y-35062D01*
X79398Y-35132D01*
X79490Y-35170D01*
X79589Y-35170D01*
X80139Y-35170D01*
X80231Y-35132D01*
X80301Y-35062D01*
X80339Y-34970D01*
X80339Y-34883D01*
X80354Y-34918D01*
X80447Y-34942D01*
X80744Y-34645D01*
X80744Y-34787D01*
X80517Y-35013D01*
X80542Y-35106D01*
X80739Y-35175D01*
X80947Y-35164D01*
X81087Y-35106D01*
X81112Y-35013D01*
X81112Y-52879D01*
X80682Y-52879D01*
X80739Y-52742D01*
X80740Y-52573D01*
X80675Y-52417D01*
X80614Y-52356D01*
X80614Y-51692D01*
X80764Y-51692D01*
X80856Y-51654D01*
X80926Y-51583D01*
X80964Y-51492D01*
X80965Y-51392D01*
X80965Y-50792D01*
X80965Y-50191D01*
X80965Y-49492D01*
X80965Y-47061D01*
X80965Y-46461D01*
X80965Y-45860D01*
X80965Y-45161D01*
X80965Y-42731D01*
X80965Y-42131D01*
X80965Y-41530D01*
X80965Y-40831D01*
X80965Y-38400D01*
X80965Y-37800D01*
X80965Y-37199D01*
X80965Y-36500D01*
X80927Y-36408D01*
X80856Y-36338D01*
X80764Y-36300D01*
X80665Y-36299D01*
X80427Y-36300D01*
X80364Y-36362D01*
X80364Y-36800D01*
X80902Y-36800D01*
X80964Y-36737D01*
X80965Y-36500D01*
X80965Y-37199D01*
X80964Y-36962D01*
X80902Y-36900D01*
X80364Y-36900D01*
X80364Y-37337D01*
X80427Y-37400D01*
X80665Y-37400D01*
X80764Y-37399D01*
X80856Y-37361D01*
X80927Y-37291D01*
X80965Y-37199D01*
X80965Y-37800D01*
X80927Y-37708D01*
X80856Y-37638D01*
X80764Y-37600D01*
X80665Y-37599D01*
X80264Y-37599D01*
X80264Y-37337D01*
X80264Y-36900D01*
X80264Y-36800D01*
X80264Y-36362D01*
X80202Y-36300D01*
X79964Y-36299D01*
X79865Y-36300D01*
X79773Y-36338D01*
X79702Y-36408D01*
X79664Y-36500D01*
X79664Y-36737D01*
X79727Y-36800D01*
X80264Y-36800D01*
X80264Y-36900D01*
X79727Y-36900D01*
X79664Y-36962D01*
X79664Y-37199D01*
X79702Y-37291D01*
X79773Y-37361D01*
X79865Y-37399D01*
X79964Y-37400D01*
X80202Y-37400D01*
X80264Y-37337D01*
X80264Y-37599D01*
X79865Y-37599D01*
X79773Y-37637D01*
X79703Y-37708D01*
X79665Y-37800D01*
X79664Y-37899D01*
X79664Y-38499D01*
X79702Y-38591D01*
X79773Y-38661D01*
X79865Y-38699D01*
X79964Y-38700D01*
X80014Y-38700D01*
X80014Y-39364D01*
X79954Y-39424D01*
X79890Y-39580D01*
X79889Y-39749D01*
X79954Y-39905D01*
X80073Y-40025D01*
X80230Y-40090D01*
X80399Y-40090D01*
X80555Y-40025D01*
X80675Y-39906D01*
X80739Y-39750D01*
X80740Y-39581D01*
X80675Y-39424D01*
X80614Y-39364D01*
X80614Y-38700D01*
X80764Y-38700D01*
X80856Y-38662D01*
X80926Y-38591D01*
X80964Y-38499D01*
X80965Y-38400D01*
X80965Y-40831D01*
X80927Y-40739D01*
X80856Y-40668D01*
X80764Y-40630D01*
X80665Y-40630D01*
X80427Y-40630D01*
X80364Y-40693D01*
X80364Y-41130D01*
X80902Y-41130D01*
X80964Y-41068D01*
X80965Y-40831D01*
X80965Y-41530D01*
X80964Y-41293D01*
X80902Y-41230D01*
X80364Y-41230D01*
X80364Y-41668D01*
X80427Y-41730D01*
X80665Y-41730D01*
X80764Y-41730D01*
X80856Y-41692D01*
X80927Y-41622D01*
X80965Y-41530D01*
X80965Y-42131D01*
X80927Y-42039D01*
X80856Y-41968D01*
X80764Y-41930D01*
X80665Y-41930D01*
X80264Y-41930D01*
X80264Y-41668D01*
X80264Y-41230D01*
X80264Y-41130D01*
X80264Y-40693D01*
X80202Y-40630D01*
X79964Y-40630D01*
X79865Y-40630D01*
X79773Y-40668D01*
X79702Y-40739D01*
X79664Y-40831D01*
X79664Y-41068D01*
X79727Y-41130D01*
X80264Y-41130D01*
X80264Y-41230D01*
X79727Y-41230D01*
X79664Y-41293D01*
X79664Y-41530D01*
X79702Y-41622D01*
X79773Y-41692D01*
X79865Y-41730D01*
X79964Y-41730D01*
X80202Y-41730D01*
X80264Y-41668D01*
X80264Y-41930D01*
X79865Y-41930D01*
X79773Y-41968D01*
X79703Y-42038D01*
X79665Y-42130D01*
X79664Y-42230D01*
X79664Y-42830D01*
X79702Y-42922D01*
X79773Y-42992D01*
X79865Y-43030D01*
X79964Y-43030D01*
X80014Y-43030D01*
X80014Y-43695D01*
X79954Y-43755D01*
X79890Y-43911D01*
X79889Y-44080D01*
X79954Y-44236D01*
X80073Y-44356D01*
X80230Y-44420D01*
X80399Y-44421D01*
X80555Y-44356D01*
X80675Y-44237D01*
X80739Y-44080D01*
X80740Y-43911D01*
X80675Y-43755D01*
X80614Y-43695D01*
X80614Y-43030D01*
X80764Y-43030D01*
X80856Y-42992D01*
X80926Y-42922D01*
X80964Y-42830D01*
X80965Y-42731D01*
X80965Y-45161D01*
X80927Y-45069D01*
X80856Y-44999D01*
X80764Y-44961D01*
X80665Y-44961D01*
X80427Y-44961D01*
X80364Y-45023D01*
X80364Y-45461D01*
X80902Y-45461D01*
X80964Y-45398D01*
X80965Y-45161D01*
X80965Y-45860D01*
X80964Y-45623D01*
X80902Y-45561D01*
X80364Y-45561D01*
X80364Y-45998D01*
X80427Y-46061D01*
X80665Y-46061D01*
X80764Y-46061D01*
X80856Y-46023D01*
X80927Y-45952D01*
X80965Y-45860D01*
X80965Y-46461D01*
X80927Y-46369D01*
X80856Y-46299D01*
X80764Y-46261D01*
X80665Y-46261D01*
X80264Y-46261D01*
X80264Y-45998D01*
X80264Y-45561D01*
X80264Y-45461D01*
X80264Y-45023D01*
X80202Y-44961D01*
X79964Y-44961D01*
X79865Y-44961D01*
X79773Y-44999D01*
X79702Y-45069D01*
X79664Y-45161D01*
X79664Y-45398D01*
X79727Y-45461D01*
X80264Y-45461D01*
X80264Y-45561D01*
X79727Y-45561D01*
X79664Y-45623D01*
X79664Y-45860D01*
X79702Y-45952D01*
X79773Y-46023D01*
X79865Y-46061D01*
X79964Y-46061D01*
X80202Y-46061D01*
X80264Y-45998D01*
X80264Y-46261D01*
X79865Y-46261D01*
X79773Y-46299D01*
X79703Y-46369D01*
X79665Y-46461D01*
X79664Y-46560D01*
X79664Y-47160D01*
X79702Y-47252D01*
X79773Y-47323D01*
X79865Y-47361D01*
X79964Y-47361D01*
X80014Y-47361D01*
X80014Y-48025D01*
X79954Y-48085D01*
X79890Y-48241D01*
X79889Y-48410D01*
X79954Y-48567D01*
X80073Y-48686D01*
X80230Y-48751D01*
X80399Y-48751D01*
X80555Y-48687D01*
X80675Y-48567D01*
X80739Y-48411D01*
X80740Y-48242D01*
X80675Y-48086D01*
X80614Y-48025D01*
X80614Y-47361D01*
X80764Y-47361D01*
X80856Y-47323D01*
X80926Y-47253D01*
X80964Y-47161D01*
X80965Y-47061D01*
X80965Y-49492D01*
X80927Y-49400D01*
X80856Y-49330D01*
X80764Y-49292D01*
X80665Y-49292D01*
X80427Y-49292D01*
X80364Y-49354D01*
X80364Y-49792D01*
X80902Y-49792D01*
X80964Y-49729D01*
X80965Y-49492D01*
X80965Y-50191D01*
X80964Y-49954D01*
X80902Y-49892D01*
X80364Y-49892D01*
X80364Y-50329D01*
X80427Y-50392D01*
X80665Y-50392D01*
X80764Y-50392D01*
X80856Y-50353D01*
X80927Y-50283D01*
X80965Y-50191D01*
X80965Y-50792D01*
X80927Y-50700D01*
X80856Y-50630D01*
X80764Y-50592D01*
X80665Y-50592D01*
X80264Y-50592D01*
X80264Y-50329D01*
X80264Y-49892D01*
X80264Y-49792D01*
X80264Y-49354D01*
X80202Y-49292D01*
X79964Y-49292D01*
X79865Y-49292D01*
X79773Y-49330D01*
X79702Y-49400D01*
X79664Y-49492D01*
X79664Y-49729D01*
X79727Y-49792D01*
X80264Y-49792D01*
X80264Y-49892D01*
X79727Y-49892D01*
X79664Y-49954D01*
X79664Y-50191D01*
X79702Y-50283D01*
X79773Y-50353D01*
X79865Y-50392D01*
X79964Y-50392D01*
X80202Y-50392D01*
X80264Y-50329D01*
X80264Y-50592D01*
X79865Y-50592D01*
X79773Y-50630D01*
X79703Y-50700D01*
X79665Y-50792D01*
X79664Y-50891D01*
X79664Y-51491D01*
X79702Y-51583D01*
X79773Y-51653D01*
X79865Y-51692D01*
X79964Y-51692D01*
X80014Y-51692D01*
X80014Y-52356D01*
X79954Y-52416D01*
X79890Y-52572D01*
X79889Y-52741D01*
X79947Y-52879D01*
X78616Y-52879D01*
X78616Y-33734D01*
X82013Y-33734D01*
X82013Y-52879D01*
X82013Y-52879D01*
G37*
G54D17*
X82013Y-52879D02*
X81344Y-52879D01*
X81344Y-34721D01*
X81333Y-34512D01*
X81275Y-34372D01*
X81182Y-34348D01*
X81112Y-34419D01*
X81112Y-34277D01*
X81087Y-34185D01*
X80890Y-34115D01*
X80682Y-34127D01*
X80542Y-34185D01*
X80517Y-34277D01*
X80814Y-34574D01*
X81112Y-34277D01*
X81112Y-34419D01*
X80885Y-34645D01*
X81182Y-34942D01*
X81275Y-34918D01*
X81344Y-34721D01*
X81344Y-52879D01*
X81112Y-52879D01*
X81112Y-35013D01*
X80814Y-34716D01*
X80744Y-34787D01*
X80744Y-34645D01*
X80447Y-34348D01*
X80354Y-34372D01*
X80340Y-34413D01*
X80340Y-34321D01*
X80302Y-34229D01*
X80231Y-34158D01*
X80139Y-34120D01*
X80040Y-34120D01*
X79490Y-34120D01*
X79398Y-34158D01*
X79328Y-34228D01*
X79290Y-34320D01*
X79289Y-34420D01*
X79289Y-34970D01*
X79327Y-35062D01*
X79398Y-35132D01*
X79490Y-35170D01*
X79589Y-35170D01*
X80139Y-35170D01*
X80231Y-35132D01*
X80301Y-35062D01*
X80339Y-34970D01*
X80339Y-34883D01*
X80354Y-34918D01*
X80447Y-34942D01*
X80744Y-34645D01*
X80744Y-34787D01*
X80517Y-35013D01*
X80542Y-35106D01*
X80739Y-35175D01*
X80947Y-35164D01*
X81087Y-35106D01*
X81112Y-35013D01*
X81112Y-52879D01*
X80682Y-52879D01*
X80739Y-52742D01*
X80740Y-52573D01*
X80675Y-52417D01*
X80614Y-52356D01*
X80614Y-51692D01*
X80764Y-51692D01*
X80856Y-51654D01*
X80926Y-51583D01*
X80964Y-51492D01*
X80965Y-51392D01*
X80965Y-50792D01*
X80965Y-50191D01*
X80965Y-49492D01*
X80965Y-47061D01*
X80965Y-46461D01*
X80965Y-45860D01*
X80965Y-45161D01*
X80965Y-42731D01*
X80965Y-42131D01*
X80965Y-41530D01*
X80965Y-40831D01*
X80965Y-38400D01*
X80965Y-37800D01*
X80965Y-37199D01*
X80965Y-36500D01*
X80927Y-36408D01*
X80856Y-36338D01*
X80764Y-36300D01*
X80665Y-36299D01*
X80427Y-36300D01*
X80364Y-36362D01*
X80364Y-36800D01*
X80902Y-36800D01*
X80964Y-36737D01*
X80965Y-36500D01*
X80965Y-37199D01*
X80964Y-36962D01*
X80902Y-36900D01*
X80364Y-36900D01*
X80364Y-37337D01*
X80427Y-37400D01*
X80665Y-37400D01*
X80764Y-37399D01*
X80856Y-37361D01*
X80927Y-37291D01*
X80965Y-37199D01*
X80965Y-37800D01*
X80927Y-37708D01*
X80856Y-37638D01*
X80764Y-37600D01*
X80665Y-37599D01*
X80264Y-37599D01*
X80264Y-37337D01*
X80264Y-36900D01*
X80264Y-36800D01*
X80264Y-36362D01*
X80202Y-36300D01*
X79964Y-36299D01*
X79865Y-36300D01*
X79773Y-36338D01*
X79702Y-36408D01*
X79664Y-36500D01*
X79664Y-36737D01*
X79727Y-36800D01*
X80264Y-36800D01*
X80264Y-36900D01*
X79727Y-36900D01*
X79664Y-36962D01*
X79664Y-37199D01*
X79702Y-37291D01*
X79773Y-37361D01*
X79865Y-37399D01*
X79964Y-37400D01*
X80202Y-37400D01*
X80264Y-37337D01*
X80264Y-37599D01*
X79865Y-37599D01*
X79773Y-37637D01*
X79703Y-37708D01*
X79665Y-37800D01*
X79664Y-37899D01*
X79664Y-38499D01*
X79702Y-38591D01*
X79773Y-38661D01*
X79865Y-38699D01*
X79964Y-38700D01*
X80014Y-38700D01*
X80014Y-39364D01*
X79954Y-39424D01*
X79890Y-39580D01*
X79889Y-39749D01*
X79954Y-39905D01*
X80073Y-40025D01*
X80230Y-40090D01*
X80399Y-40090D01*
X80555Y-40025D01*
X80675Y-39906D01*
X80739Y-39750D01*
X80740Y-39581D01*
X80675Y-39424D01*
X80614Y-39364D01*
X80614Y-38700D01*
X80764Y-38700D01*
X80856Y-38662D01*
X80926Y-38591D01*
X80964Y-38499D01*
X80965Y-38400D01*
X80965Y-40831D01*
X80927Y-40739D01*
X80856Y-40668D01*
X80764Y-40630D01*
X80665Y-40630D01*
X80427Y-40630D01*
X80364Y-40693D01*
X80364Y-41130D01*
X80902Y-41130D01*
X80964Y-41068D01*
X80965Y-40831D01*
X80965Y-41530D01*
X80964Y-41293D01*
X80902Y-41230D01*
X80364Y-41230D01*
X80364Y-41668D01*
X80427Y-41730D01*
X80665Y-41730D01*
X80764Y-41730D01*
X80856Y-41692D01*
X80927Y-41622D01*
X80965Y-41530D01*
X80965Y-42131D01*
X80927Y-42039D01*
X80856Y-41968D01*
X80764Y-41930D01*
X80665Y-41930D01*
X80264Y-41930D01*
X80264Y-41668D01*
X80264Y-41230D01*
X80264Y-41130D01*
X80264Y-40693D01*
X80202Y-40630D01*
X79964Y-40630D01*
X79865Y-40630D01*
X79773Y-40668D01*
X79702Y-40739D01*
X79664Y-40831D01*
X79664Y-41068D01*
X79727Y-41130D01*
X80264Y-41130D01*
X80264Y-41230D01*
X79727Y-41230D01*
X79664Y-41293D01*
X79664Y-41530D01*
X79702Y-41622D01*
X79773Y-41692D01*
X79865Y-41730D01*
X79964Y-41730D01*
X80202Y-41730D01*
X80264Y-41668D01*
X80264Y-41930D01*
X79865Y-41930D01*
X79773Y-41968D01*
X79703Y-42038D01*
X79665Y-42130D01*
X79664Y-42230D01*
X79664Y-42830D01*
X79702Y-42922D01*
X79773Y-42992D01*
X79865Y-43030D01*
X79964Y-43030D01*
X80014Y-43030D01*
X80014Y-43695D01*
X79954Y-43755D01*
X79890Y-43911D01*
X79889Y-44080D01*
X79954Y-44236D01*
X80073Y-44356D01*
X80230Y-44420D01*
X80399Y-44421D01*
X80555Y-44356D01*
X80675Y-44237D01*
X80739Y-44080D01*
X80740Y-43911D01*
X80675Y-43755D01*
X80614Y-43695D01*
X80614Y-43030D01*
X80764Y-43030D01*
X80856Y-42992D01*
X80926Y-42922D01*
X80964Y-42830D01*
X80965Y-42731D01*
X80965Y-45161D01*
X80927Y-45069D01*
X80856Y-44999D01*
X80764Y-44961D01*
X80665Y-44961D01*
X80427Y-44961D01*
X80364Y-45023D01*
X80364Y-45461D01*
X80902Y-45461D01*
X80964Y-45398D01*
X80965Y-45161D01*
X80965Y-45860D01*
X80964Y-45623D01*
X80902Y-45561D01*
X80364Y-45561D01*
X80364Y-45998D01*
X80427Y-46061D01*
X80665Y-46061D01*
X80764Y-46061D01*
X80856Y-46023D01*
X80927Y-45952D01*
X80965Y-45860D01*
X80965Y-46461D01*
X80927Y-46369D01*
X80856Y-46299D01*
X80764Y-46261D01*
X80665Y-46261D01*
X80264Y-46261D01*
X80264Y-45998D01*
X80264Y-45561D01*
X80264Y-45461D01*
X80264Y-45023D01*
X80202Y-44961D01*
X79964Y-44961D01*
X79865Y-44961D01*
X79773Y-44999D01*
X79702Y-45069D01*
X79664Y-45161D01*
X79664Y-45398D01*
X79727Y-45461D01*
X80264Y-45461D01*
X80264Y-45561D01*
X79727Y-45561D01*
X79664Y-45623D01*
X79664Y-45860D01*
X79702Y-45952D01*
X79773Y-46023D01*
X79865Y-46061D01*
X79964Y-46061D01*
X80202Y-46061D01*
X80264Y-45998D01*
X80264Y-46261D01*
X79865Y-46261D01*
X79773Y-46299D01*
X79703Y-46369D01*
X79665Y-46461D01*
X79664Y-46560D01*
X79664Y-47160D01*
X79702Y-47252D01*
X79773Y-47323D01*
X79865Y-47361D01*
X79964Y-47361D01*
X80014Y-47361D01*
X80014Y-48025D01*
X79954Y-48085D01*
X79890Y-48241D01*
X79889Y-48410D01*
X79954Y-48567D01*
X80073Y-48686D01*
X80230Y-48751D01*
X80399Y-48751D01*
X80555Y-48687D01*
X80675Y-48567D01*
X80739Y-48411D01*
X80740Y-48242D01*
X80675Y-48086D01*
X80614Y-48025D01*
X80614Y-47361D01*
X80764Y-47361D01*
X80856Y-47323D01*
X80926Y-47253D01*
X80964Y-47161D01*
X80965Y-47061D01*
X80965Y-49492D01*
X80927Y-49400D01*
X80856Y-49330D01*
X80764Y-49292D01*
X80665Y-49292D01*
X80427Y-49292D01*
X80364Y-49354D01*
X80364Y-49792D01*
X80902Y-49792D01*
X80964Y-49729D01*
X80965Y-49492D01*
X80965Y-50191D01*
X80964Y-49954D01*
X80902Y-49892D01*
X80364Y-49892D01*
X80364Y-50329D01*
X80427Y-50392D01*
X80665Y-50392D01*
X80764Y-50392D01*
X80856Y-50353D01*
X80927Y-50283D01*
X80965Y-50191D01*
X80965Y-50792D01*
X80927Y-50700D01*
X80856Y-50630D01*
X80764Y-50592D01*
X80665Y-50592D01*
X80264Y-50592D01*
X80264Y-50329D01*
X80264Y-49892D01*
X80264Y-49792D01*
X80264Y-49354D01*
X80202Y-49292D01*
X79964Y-49292D01*
X79865Y-49292D01*
X79773Y-49330D01*
X79702Y-49400D01*
X79664Y-49492D01*
X79664Y-49729D01*
X79727Y-49792D01*
X80264Y-49792D01*
X80264Y-49892D01*
X79727Y-49892D01*
X79664Y-49954D01*
X79664Y-50191D01*
X79702Y-50283D01*
X79773Y-50353D01*
X79865Y-50392D01*
X79964Y-50392D01*
X80202Y-50392D01*
X80264Y-50329D01*
X80264Y-50592D01*
X79865Y-50592D01*
X79773Y-50630D01*
X79703Y-50700D01*
X79665Y-50792D01*
X79664Y-50891D01*
X79664Y-51491D01*
X79702Y-51583D01*
X79773Y-51653D01*
X79865Y-51692D01*
X79964Y-51692D01*
X80014Y-51692D01*
X80014Y-52356D01*
X79954Y-52416D01*
X79890Y-52572D01*
X79889Y-52741D01*
X79947Y-52879D01*
X78616Y-52879D01*
X78616Y-33734D01*
X82013Y-33734D01*
X82013Y-52879D01*
G54D10*
G36*
X78076Y-52879D02*
X77407Y-52879D01*
X77407Y-34721D01*
X77396Y-34512D01*
X77338Y-34372D01*
X77245Y-34348D01*
X77175Y-34419D01*
X77175Y-34277D01*
X77150Y-34185D01*
X76953Y-34115D01*
X76745Y-34127D01*
X76605Y-34185D01*
X76580Y-34277D01*
X76877Y-34574D01*
X77175Y-34277D01*
X77175Y-34419D01*
X76948Y-34645D01*
X77245Y-34942D01*
X77338Y-34918D01*
X77407Y-34721D01*
X77407Y-52879D01*
X77175Y-52879D01*
X77175Y-35013D01*
X76877Y-34716D01*
X76807Y-34787D01*
X76807Y-34645D01*
X76510Y-34348D01*
X76417Y-34372D01*
X76402Y-34413D01*
X76402Y-34321D01*
X76365Y-34229D01*
X76294Y-34158D01*
X76202Y-34120D01*
X76103Y-34120D01*
X75553Y-34120D01*
X75461Y-34158D01*
X75391Y-34228D01*
X75352Y-34320D01*
X75352Y-34420D01*
X75352Y-34970D01*
X75390Y-35062D01*
X75461Y-35132D01*
X75553Y-35170D01*
X75652Y-35170D01*
X76202Y-35170D01*
X76294Y-35132D01*
X76364Y-35062D01*
X76402Y-34970D01*
X76402Y-34883D01*
X76417Y-34918D01*
X76510Y-34942D01*
X76807Y-34645D01*
X76807Y-34787D01*
X76580Y-35013D01*
X76605Y-35106D01*
X76802Y-35175D01*
X77010Y-35164D01*
X77150Y-35106D01*
X77175Y-35013D01*
X77175Y-52879D01*
X76745Y-52879D01*
X76802Y-52742D01*
X76803Y-52573D01*
X76738Y-52417D01*
X76677Y-52356D01*
X76677Y-51692D01*
X76827Y-51692D01*
X76919Y-51654D01*
X76989Y-51583D01*
X77027Y-51492D01*
X77027Y-51392D01*
X77027Y-50792D01*
X77027Y-50191D01*
X77027Y-49492D01*
X77027Y-47061D01*
X77027Y-46461D01*
X77027Y-45860D01*
X77027Y-45161D01*
X77027Y-42731D01*
X77027Y-42131D01*
X77027Y-41530D01*
X77027Y-40831D01*
X77027Y-38400D01*
X77027Y-37800D01*
X77027Y-37199D01*
X77027Y-36500D01*
X76990Y-36408D01*
X76919Y-36338D01*
X76827Y-36300D01*
X76728Y-36299D01*
X76490Y-36300D01*
X76427Y-36362D01*
X76427Y-36800D01*
X76965Y-36800D01*
X77027Y-36737D01*
X77027Y-36500D01*
X77027Y-37199D01*
X77027Y-36962D01*
X76965Y-36900D01*
X76427Y-36900D01*
X76427Y-37337D01*
X76490Y-37400D01*
X76728Y-37400D01*
X76827Y-37399D01*
X76919Y-37361D01*
X76990Y-37291D01*
X77027Y-37199D01*
X77027Y-37800D01*
X76990Y-37708D01*
X76919Y-37638D01*
X76827Y-37600D01*
X76728Y-37599D01*
X76327Y-37599D01*
X76327Y-37337D01*
X76327Y-36900D01*
X76327Y-36800D01*
X76327Y-36362D01*
X76265Y-36300D01*
X76027Y-36299D01*
X75928Y-36300D01*
X75836Y-36338D01*
X75765Y-36408D01*
X75727Y-36500D01*
X75727Y-36737D01*
X75790Y-36800D01*
X76327Y-36800D01*
X76327Y-36900D01*
X75790Y-36900D01*
X75727Y-36962D01*
X75727Y-37199D01*
X75765Y-37291D01*
X75836Y-37361D01*
X75928Y-37399D01*
X76027Y-37400D01*
X76265Y-37400D01*
X76327Y-37337D01*
X76327Y-37599D01*
X75928Y-37599D01*
X75836Y-37637D01*
X75766Y-37708D01*
X75727Y-37800D01*
X75727Y-37899D01*
X75727Y-38499D01*
X75765Y-38591D01*
X75836Y-38661D01*
X75928Y-38699D01*
X76027Y-38700D01*
X76077Y-38700D01*
X76077Y-39364D01*
X76017Y-39424D01*
X75953Y-39580D01*
X75952Y-39749D01*
X76017Y-39905D01*
X76136Y-40025D01*
X76293Y-40090D01*
X76462Y-40090D01*
X76618Y-40025D01*
X76738Y-39906D01*
X76802Y-39750D01*
X76803Y-39581D01*
X76738Y-39424D01*
X76677Y-39364D01*
X76677Y-38700D01*
X76827Y-38700D01*
X76919Y-38662D01*
X76989Y-38591D01*
X77027Y-38499D01*
X77027Y-38400D01*
X77027Y-40831D01*
X76990Y-40739D01*
X76919Y-40668D01*
X76827Y-40630D01*
X76728Y-40630D01*
X76490Y-40630D01*
X76427Y-40693D01*
X76427Y-41130D01*
X76965Y-41130D01*
X77027Y-41068D01*
X77027Y-40831D01*
X77027Y-41530D01*
X77027Y-41293D01*
X76965Y-41230D01*
X76427Y-41230D01*
X76427Y-41668D01*
X76490Y-41730D01*
X76728Y-41730D01*
X76827Y-41730D01*
X76919Y-41692D01*
X76990Y-41622D01*
X77027Y-41530D01*
X77027Y-42131D01*
X76990Y-42039D01*
X76919Y-41968D01*
X76827Y-41930D01*
X76728Y-41930D01*
X76327Y-41930D01*
X76327Y-41668D01*
X76327Y-41230D01*
X76327Y-41130D01*
X76327Y-40693D01*
X76265Y-40630D01*
X76027Y-40630D01*
X75928Y-40630D01*
X75836Y-40668D01*
X75765Y-40739D01*
X75727Y-40831D01*
X75727Y-41068D01*
X75790Y-41130D01*
X76327Y-41130D01*
X76327Y-41230D01*
X75790Y-41230D01*
X75727Y-41293D01*
X75727Y-41530D01*
X75765Y-41622D01*
X75836Y-41692D01*
X75928Y-41730D01*
X76027Y-41730D01*
X76265Y-41730D01*
X76327Y-41668D01*
X76327Y-41930D01*
X75928Y-41930D01*
X75836Y-41968D01*
X75766Y-42038D01*
X75727Y-42130D01*
X75727Y-42230D01*
X75727Y-42830D01*
X75765Y-42922D01*
X75836Y-42992D01*
X75928Y-43030D01*
X76027Y-43030D01*
X76077Y-43030D01*
X76077Y-43695D01*
X76017Y-43755D01*
X75953Y-43911D01*
X75952Y-44080D01*
X76017Y-44236D01*
X76136Y-44356D01*
X76293Y-44420D01*
X76462Y-44421D01*
X76618Y-44356D01*
X76738Y-44237D01*
X76802Y-44080D01*
X76803Y-43911D01*
X76738Y-43755D01*
X76677Y-43695D01*
X76677Y-43030D01*
X76827Y-43030D01*
X76919Y-42992D01*
X76989Y-42922D01*
X77027Y-42830D01*
X77027Y-42731D01*
X77027Y-45161D01*
X76990Y-45069D01*
X76919Y-44999D01*
X76827Y-44961D01*
X76728Y-44961D01*
X76490Y-44961D01*
X76427Y-45023D01*
X76427Y-45461D01*
X76965Y-45461D01*
X77027Y-45398D01*
X77027Y-45161D01*
X77027Y-45860D01*
X77027Y-45623D01*
X76965Y-45561D01*
X76427Y-45561D01*
X76427Y-45998D01*
X76490Y-46061D01*
X76728Y-46061D01*
X76827Y-46061D01*
X76919Y-46023D01*
X76990Y-45952D01*
X77027Y-45860D01*
X77027Y-46461D01*
X76990Y-46369D01*
X76919Y-46299D01*
X76827Y-46261D01*
X76728Y-46261D01*
X76327Y-46261D01*
X76327Y-45998D01*
X76327Y-45561D01*
X76327Y-45461D01*
X76327Y-45023D01*
X76265Y-44961D01*
X76027Y-44961D01*
X75928Y-44961D01*
X75836Y-44999D01*
X75765Y-45069D01*
X75727Y-45161D01*
X75727Y-45398D01*
X75790Y-45461D01*
X76327Y-45461D01*
X76327Y-45561D01*
X75790Y-45561D01*
X75727Y-45623D01*
X75727Y-45860D01*
X75765Y-45952D01*
X75836Y-46023D01*
X75928Y-46061D01*
X76027Y-46061D01*
X76265Y-46061D01*
X76327Y-45998D01*
X76327Y-46261D01*
X75928Y-46261D01*
X75836Y-46299D01*
X75766Y-46369D01*
X75727Y-46461D01*
X75727Y-46560D01*
X75727Y-47160D01*
X75765Y-47252D01*
X75836Y-47323D01*
X75928Y-47361D01*
X76027Y-47361D01*
X76077Y-47361D01*
X76077Y-48025D01*
X76017Y-48085D01*
X75953Y-48241D01*
X75952Y-48410D01*
X76017Y-48567D01*
X76136Y-48686D01*
X76293Y-48751D01*
X76462Y-48751D01*
X76618Y-48687D01*
X76738Y-48567D01*
X76802Y-48411D01*
X76803Y-48242D01*
X76738Y-48086D01*
X76677Y-48025D01*
X76677Y-47361D01*
X76827Y-47361D01*
X76919Y-47323D01*
X76989Y-47253D01*
X77027Y-47161D01*
X77027Y-47061D01*
X77027Y-49492D01*
X76990Y-49400D01*
X76919Y-49330D01*
X76827Y-49292D01*
X76728Y-49292D01*
X76490Y-49292D01*
X76427Y-49354D01*
X76427Y-49792D01*
X76965Y-49792D01*
X77027Y-49729D01*
X77027Y-49492D01*
X77027Y-50191D01*
X77027Y-49954D01*
X76965Y-49892D01*
X76427Y-49892D01*
X76427Y-50329D01*
X76490Y-50392D01*
X76728Y-50392D01*
X76827Y-50392D01*
X76919Y-50353D01*
X76990Y-50283D01*
X77027Y-50191D01*
X77027Y-50792D01*
X76990Y-50700D01*
X76919Y-50630D01*
X76827Y-50592D01*
X76728Y-50592D01*
X76327Y-50592D01*
X76327Y-50329D01*
X76327Y-49892D01*
X76327Y-49792D01*
X76327Y-49354D01*
X76265Y-49292D01*
X76027Y-49292D01*
X75928Y-49292D01*
X75836Y-49330D01*
X75765Y-49400D01*
X75727Y-49492D01*
X75727Y-49729D01*
X75790Y-49792D01*
X76327Y-49792D01*
X76327Y-49892D01*
X75790Y-49892D01*
X75727Y-49954D01*
X75727Y-50191D01*
X75765Y-50283D01*
X75836Y-50353D01*
X75928Y-50392D01*
X76027Y-50392D01*
X76265Y-50392D01*
X76327Y-50329D01*
X76327Y-50592D01*
X75928Y-50592D01*
X75836Y-50630D01*
X75766Y-50700D01*
X75727Y-50792D01*
X75727Y-50891D01*
X75727Y-51491D01*
X75765Y-51583D01*
X75836Y-51653D01*
X75928Y-51692D01*
X76027Y-51692D01*
X76077Y-51692D01*
X76077Y-52356D01*
X76017Y-52416D01*
X75953Y-52572D01*
X75952Y-52741D01*
X76010Y-52879D01*
X74679Y-52879D01*
X74679Y-33734D01*
X78076Y-33734D01*
X78076Y-52879D01*
X78076Y-52879D01*
G37*
G54D17*
X78076Y-52879D02*
X77407Y-52879D01*
X77407Y-34721D01*
X77396Y-34512D01*
X77338Y-34372D01*
X77245Y-34348D01*
X77175Y-34419D01*
X77175Y-34277D01*
X77150Y-34185D01*
X76953Y-34115D01*
X76745Y-34127D01*
X76605Y-34185D01*
X76580Y-34277D01*
X76877Y-34574D01*
X77175Y-34277D01*
X77175Y-34419D01*
X76948Y-34645D01*
X77245Y-34942D01*
X77338Y-34918D01*
X77407Y-34721D01*
X77407Y-52879D01*
X77175Y-52879D01*
X77175Y-35013D01*
X76877Y-34716D01*
X76807Y-34787D01*
X76807Y-34645D01*
X76510Y-34348D01*
X76417Y-34372D01*
X76402Y-34413D01*
X76402Y-34321D01*
X76365Y-34229D01*
X76294Y-34158D01*
X76202Y-34120D01*
X76103Y-34120D01*
X75553Y-34120D01*
X75461Y-34158D01*
X75391Y-34228D01*
X75352Y-34320D01*
X75352Y-34420D01*
X75352Y-34970D01*
X75390Y-35062D01*
X75461Y-35132D01*
X75553Y-35170D01*
X75652Y-35170D01*
X76202Y-35170D01*
X76294Y-35132D01*
X76364Y-35062D01*
X76402Y-34970D01*
X76402Y-34883D01*
X76417Y-34918D01*
X76510Y-34942D01*
X76807Y-34645D01*
X76807Y-34787D01*
X76580Y-35013D01*
X76605Y-35106D01*
X76802Y-35175D01*
X77010Y-35164D01*
X77150Y-35106D01*
X77175Y-35013D01*
X77175Y-52879D01*
X76745Y-52879D01*
X76802Y-52742D01*
X76803Y-52573D01*
X76738Y-52417D01*
X76677Y-52356D01*
X76677Y-51692D01*
X76827Y-51692D01*
X76919Y-51654D01*
X76989Y-51583D01*
X77027Y-51492D01*
X77027Y-51392D01*
X77027Y-50792D01*
X77027Y-50191D01*
X77027Y-49492D01*
X77027Y-47061D01*
X77027Y-46461D01*
X77027Y-45860D01*
X77027Y-45161D01*
X77027Y-42731D01*
X77027Y-42131D01*
X77027Y-41530D01*
X77027Y-40831D01*
X77027Y-38400D01*
X77027Y-37800D01*
X77027Y-37199D01*
X77027Y-36500D01*
X76990Y-36408D01*
X76919Y-36338D01*
X76827Y-36300D01*
X76728Y-36299D01*
X76490Y-36300D01*
X76427Y-36362D01*
X76427Y-36800D01*
X76965Y-36800D01*
X77027Y-36737D01*
X77027Y-36500D01*
X77027Y-37199D01*
X77027Y-36962D01*
X76965Y-36900D01*
X76427Y-36900D01*
X76427Y-37337D01*
X76490Y-37400D01*
X76728Y-37400D01*
X76827Y-37399D01*
X76919Y-37361D01*
X76990Y-37291D01*
X77027Y-37199D01*
X77027Y-37800D01*
X76990Y-37708D01*
X76919Y-37638D01*
X76827Y-37600D01*
X76728Y-37599D01*
X76327Y-37599D01*
X76327Y-37337D01*
X76327Y-36900D01*
X76327Y-36800D01*
X76327Y-36362D01*
X76265Y-36300D01*
X76027Y-36299D01*
X75928Y-36300D01*
X75836Y-36338D01*
X75765Y-36408D01*
X75727Y-36500D01*
X75727Y-36737D01*
X75790Y-36800D01*
X76327Y-36800D01*
X76327Y-36900D01*
X75790Y-36900D01*
X75727Y-36962D01*
X75727Y-37199D01*
X75765Y-37291D01*
X75836Y-37361D01*
X75928Y-37399D01*
X76027Y-37400D01*
X76265Y-37400D01*
X76327Y-37337D01*
X76327Y-37599D01*
X75928Y-37599D01*
X75836Y-37637D01*
X75766Y-37708D01*
X75727Y-37800D01*
X75727Y-37899D01*
X75727Y-38499D01*
X75765Y-38591D01*
X75836Y-38661D01*
X75928Y-38699D01*
X76027Y-38700D01*
X76077Y-38700D01*
X76077Y-39364D01*
X76017Y-39424D01*
X75953Y-39580D01*
X75952Y-39749D01*
X76017Y-39905D01*
X76136Y-40025D01*
X76293Y-40090D01*
X76462Y-40090D01*
X76618Y-40025D01*
X76738Y-39906D01*
X76802Y-39750D01*
X76803Y-39581D01*
X76738Y-39424D01*
X76677Y-39364D01*
X76677Y-38700D01*
X76827Y-38700D01*
X76919Y-38662D01*
X76989Y-38591D01*
X77027Y-38499D01*
X77027Y-38400D01*
X77027Y-40831D01*
X76990Y-40739D01*
X76919Y-40668D01*
X76827Y-40630D01*
X76728Y-40630D01*
X76490Y-40630D01*
X76427Y-40693D01*
X76427Y-41130D01*
X76965Y-41130D01*
X77027Y-41068D01*
X77027Y-40831D01*
X77027Y-41530D01*
X77027Y-41293D01*
X76965Y-41230D01*
X76427Y-41230D01*
X76427Y-41668D01*
X76490Y-41730D01*
X76728Y-41730D01*
X76827Y-41730D01*
X76919Y-41692D01*
X76990Y-41622D01*
X77027Y-41530D01*
X77027Y-42131D01*
X76990Y-42039D01*
X76919Y-41968D01*
X76827Y-41930D01*
X76728Y-41930D01*
X76327Y-41930D01*
X76327Y-41668D01*
X76327Y-41230D01*
X76327Y-41130D01*
X76327Y-40693D01*
X76265Y-40630D01*
X76027Y-40630D01*
X75928Y-40630D01*
X75836Y-40668D01*
X75765Y-40739D01*
X75727Y-40831D01*
X75727Y-41068D01*
X75790Y-41130D01*
X76327Y-41130D01*
X76327Y-41230D01*
X75790Y-41230D01*
X75727Y-41293D01*
X75727Y-41530D01*
X75765Y-41622D01*
X75836Y-41692D01*
X75928Y-41730D01*
X76027Y-41730D01*
X76265Y-41730D01*
X76327Y-41668D01*
X76327Y-41930D01*
X75928Y-41930D01*
X75836Y-41968D01*
X75766Y-42038D01*
X75727Y-42130D01*
X75727Y-42230D01*
X75727Y-42830D01*
X75765Y-42922D01*
X75836Y-42992D01*
X75928Y-43030D01*
X76027Y-43030D01*
X76077Y-43030D01*
X76077Y-43695D01*
X76017Y-43755D01*
X75953Y-43911D01*
X75952Y-44080D01*
X76017Y-44236D01*
X76136Y-44356D01*
X76293Y-44420D01*
X76462Y-44421D01*
X76618Y-44356D01*
X76738Y-44237D01*
X76802Y-44080D01*
X76803Y-43911D01*
X76738Y-43755D01*
X76677Y-43695D01*
X76677Y-43030D01*
X76827Y-43030D01*
X76919Y-42992D01*
X76989Y-42922D01*
X77027Y-42830D01*
X77027Y-42731D01*
X77027Y-45161D01*
X76990Y-45069D01*
X76919Y-44999D01*
X76827Y-44961D01*
X76728Y-44961D01*
X76490Y-44961D01*
X76427Y-45023D01*
X76427Y-45461D01*
X76965Y-45461D01*
X77027Y-45398D01*
X77027Y-45161D01*
X77027Y-45860D01*
X77027Y-45623D01*
X76965Y-45561D01*
X76427Y-45561D01*
X76427Y-45998D01*
X76490Y-46061D01*
X76728Y-46061D01*
X76827Y-46061D01*
X76919Y-46023D01*
X76990Y-45952D01*
X77027Y-45860D01*
X77027Y-46461D01*
X76990Y-46369D01*
X76919Y-46299D01*
X76827Y-46261D01*
X76728Y-46261D01*
X76327Y-46261D01*
X76327Y-45998D01*
X76327Y-45561D01*
X76327Y-45461D01*
X76327Y-45023D01*
X76265Y-44961D01*
X76027Y-44961D01*
X75928Y-44961D01*
X75836Y-44999D01*
X75765Y-45069D01*
X75727Y-45161D01*
X75727Y-45398D01*
X75790Y-45461D01*
X76327Y-45461D01*
X76327Y-45561D01*
X75790Y-45561D01*
X75727Y-45623D01*
X75727Y-45860D01*
X75765Y-45952D01*
X75836Y-46023D01*
X75928Y-46061D01*
X76027Y-46061D01*
X76265Y-46061D01*
X76327Y-45998D01*
X76327Y-46261D01*
X75928Y-46261D01*
X75836Y-46299D01*
X75766Y-46369D01*
X75727Y-46461D01*
X75727Y-46560D01*
X75727Y-47160D01*
X75765Y-47252D01*
X75836Y-47323D01*
X75928Y-47361D01*
X76027Y-47361D01*
X76077Y-47361D01*
X76077Y-48025D01*
X76017Y-48085D01*
X75953Y-48241D01*
X75952Y-48410D01*
X76017Y-48567D01*
X76136Y-48686D01*
X76293Y-48751D01*
X76462Y-48751D01*
X76618Y-48687D01*
X76738Y-48567D01*
X76802Y-48411D01*
X76803Y-48242D01*
X76738Y-48086D01*
X76677Y-48025D01*
X76677Y-47361D01*
X76827Y-47361D01*
X76919Y-47323D01*
X76989Y-47253D01*
X77027Y-47161D01*
X77027Y-47061D01*
X77027Y-49492D01*
X76990Y-49400D01*
X76919Y-49330D01*
X76827Y-49292D01*
X76728Y-49292D01*
X76490Y-49292D01*
X76427Y-49354D01*
X76427Y-49792D01*
X76965Y-49792D01*
X77027Y-49729D01*
X77027Y-49492D01*
X77027Y-50191D01*
X77027Y-49954D01*
X76965Y-49892D01*
X76427Y-49892D01*
X76427Y-50329D01*
X76490Y-50392D01*
X76728Y-50392D01*
X76827Y-50392D01*
X76919Y-50353D01*
X76990Y-50283D01*
X77027Y-50191D01*
X77027Y-50792D01*
X76990Y-50700D01*
X76919Y-50630D01*
X76827Y-50592D01*
X76728Y-50592D01*
X76327Y-50592D01*
X76327Y-50329D01*
X76327Y-49892D01*
X76327Y-49792D01*
X76327Y-49354D01*
X76265Y-49292D01*
X76027Y-49292D01*
X75928Y-49292D01*
X75836Y-49330D01*
X75765Y-49400D01*
X75727Y-49492D01*
X75727Y-49729D01*
X75790Y-49792D01*
X76327Y-49792D01*
X76327Y-49892D01*
X75790Y-49892D01*
X75727Y-49954D01*
X75727Y-50191D01*
X75765Y-50283D01*
X75836Y-50353D01*
X75928Y-50392D01*
X76027Y-50392D01*
X76265Y-50392D01*
X76327Y-50329D01*
X76327Y-50592D01*
X75928Y-50592D01*
X75836Y-50630D01*
X75766Y-50700D01*
X75727Y-50792D01*
X75727Y-50891D01*
X75727Y-51491D01*
X75765Y-51583D01*
X75836Y-51653D01*
X75928Y-51692D01*
X76027Y-51692D01*
X76077Y-51692D01*
X76077Y-52356D01*
X76017Y-52416D01*
X75953Y-52572D01*
X75952Y-52741D01*
X76010Y-52879D01*
X74679Y-52879D01*
X74679Y-33734D01*
X78076Y-33734D01*
X78076Y-52879D01*
G54D10*
G36*
X93814Y-52870D02*
X93549Y-52870D01*
X93549Y-52438D01*
X93538Y-52229D01*
X93480Y-52089D01*
X93387Y-52065D01*
X93316Y-52135D01*
X93316Y-51994D01*
X93292Y-51901D01*
X93095Y-51832D01*
X92886Y-51843D01*
X92746Y-51901D01*
X92722Y-51994D01*
X93019Y-52291D01*
X93316Y-51994D01*
X93316Y-52135D01*
X93090Y-52362D01*
X93387Y-52659D01*
X93480Y-52635D01*
X93549Y-52438D01*
X93549Y-52870D01*
X93178Y-52870D01*
X93292Y-52822D01*
X93316Y-52729D01*
X93019Y-52432D01*
X92722Y-52729D01*
X92746Y-52822D01*
X92881Y-52870D01*
X92165Y-52870D01*
X92316Y-52807D01*
X92464Y-52659D01*
X92517Y-52533D01*
X92559Y-52635D01*
X92651Y-52659D01*
X92948Y-52362D01*
X92651Y-52065D01*
X92559Y-52089D01*
X92520Y-52199D01*
X92465Y-52065D01*
X92317Y-51917D01*
X92124Y-51837D01*
X91915Y-51837D01*
X91722Y-51916D01*
X91574Y-52064D01*
X91494Y-52257D01*
X91494Y-52466D01*
X91574Y-52659D01*
X91721Y-52807D01*
X91873Y-52870D01*
X91187Y-52870D01*
X91187Y-52438D01*
X91176Y-52229D01*
X91118Y-52089D01*
X91025Y-52065D01*
X90954Y-52135D01*
X90954Y-51994D01*
X90930Y-51901D01*
X90762Y-51842D01*
X90762Y-50788D01*
X90750Y-50579D01*
X90692Y-50439D01*
X90600Y-50415D01*
X90302Y-50712D01*
X90600Y-51009D01*
X90692Y-50985D01*
X90762Y-50788D01*
X90762Y-51842D01*
X90733Y-51832D01*
X90529Y-51843D01*
X90529Y-51080D01*
X90232Y-50783D01*
X90161Y-50854D01*
X90161Y-50712D01*
X89864Y-50415D01*
X89771Y-50439D01*
X89713Y-50606D01*
X89634Y-50415D01*
X89486Y-50267D01*
X89293Y-50187D01*
X89085Y-50187D01*
X88891Y-50267D01*
X88744Y-50414D01*
X88664Y-50607D01*
X88663Y-50816D01*
X88743Y-51009D01*
X88891Y-51157D01*
X89084Y-51237D01*
X89292Y-51237D01*
X89485Y-51157D01*
X89633Y-51010D01*
X89712Y-50821D01*
X89713Y-50845D01*
X89771Y-50985D01*
X89864Y-51009D01*
X90161Y-50712D01*
X90161Y-50854D01*
X89935Y-51080D01*
X89959Y-51173D01*
X90156Y-51242D01*
X90365Y-51231D01*
X90505Y-51173D01*
X90529Y-51080D01*
X90529Y-51843D01*
X90524Y-51843D01*
X90384Y-51901D01*
X90360Y-51994D01*
X90657Y-52291D01*
X90954Y-51994D01*
X90954Y-52135D01*
X90728Y-52362D01*
X91025Y-52659D01*
X91118Y-52635D01*
X91187Y-52438D01*
X91187Y-52870D01*
X90816Y-52870D01*
X90930Y-52822D01*
X90954Y-52729D01*
X90657Y-52432D01*
X90360Y-52729D01*
X90384Y-52822D01*
X90519Y-52870D01*
X90023Y-52870D01*
X90073Y-52849D01*
X90144Y-52779D01*
X90182Y-52687D01*
X90182Y-52600D01*
X90196Y-52635D01*
X90289Y-52659D01*
X90586Y-52362D01*
X90289Y-52065D01*
X90196Y-52089D01*
X90182Y-52130D01*
X90182Y-52037D01*
X90144Y-51945D01*
X90074Y-51875D01*
X89982Y-51837D01*
X89882Y-51837D01*
X89332Y-51837D01*
X89241Y-51875D01*
X89170Y-51945D01*
X89132Y-52037D01*
X89132Y-52136D01*
X89132Y-52686D01*
X89170Y-52778D01*
X89240Y-52849D01*
X89291Y-52870D01*
X87718Y-52870D01*
X87718Y-50788D01*
X87718Y-47788D01*
X87707Y-47579D01*
X87649Y-47439D01*
X87556Y-47415D01*
X87486Y-47486D01*
X87486Y-47344D01*
X87461Y-47252D01*
X87264Y-47182D01*
X87056Y-47194D01*
X86916Y-47252D01*
X86891Y-47344D01*
X87188Y-47641D01*
X87486Y-47344D01*
X87486Y-47486D01*
X87259Y-47712D01*
X87556Y-48009D01*
X87649Y-47985D01*
X87718Y-47788D01*
X87718Y-50788D01*
X87707Y-50579D01*
X87649Y-50439D01*
X87556Y-50415D01*
X87486Y-50486D01*
X87486Y-50344D01*
X87486Y-48080D01*
X87188Y-47783D01*
X87118Y-47854D01*
X87118Y-47712D01*
X86821Y-47415D01*
X86728Y-47439D01*
X86659Y-47636D01*
X86670Y-47845D01*
X86728Y-47985D01*
X86821Y-48009D01*
X87118Y-47712D01*
X87118Y-47854D01*
X86891Y-48080D01*
X86916Y-48173D01*
X87113Y-48242D01*
X87321Y-48231D01*
X87461Y-48173D01*
X87486Y-48080D01*
X87486Y-50344D01*
X87461Y-50252D01*
X87264Y-50182D01*
X87056Y-50194D01*
X86916Y-50252D01*
X86891Y-50344D01*
X87188Y-50641D01*
X87486Y-50344D01*
X87486Y-50486D01*
X87259Y-50712D01*
X87556Y-51009D01*
X87649Y-50985D01*
X87718Y-50788D01*
X87718Y-52870D01*
X87486Y-52870D01*
X87486Y-51080D01*
X87188Y-50783D01*
X87118Y-50854D01*
X87118Y-50712D01*
X86821Y-50415D01*
X86728Y-50439D01*
X86659Y-50636D01*
X86670Y-50845D01*
X86728Y-50985D01*
X86821Y-51009D01*
X87118Y-50712D01*
X87118Y-50854D01*
X86891Y-51080D01*
X86916Y-51173D01*
X87113Y-51242D01*
X87321Y-51231D01*
X87461Y-51173D01*
X87486Y-51080D01*
X87486Y-52870D01*
X86500Y-52870D01*
X86500Y-45555D01*
X87291Y-45555D01*
X87241Y-45575D01*
X87170Y-45646D01*
X87132Y-45738D01*
X87132Y-45837D01*
X87132Y-46387D01*
X87170Y-46479D01*
X87240Y-46549D01*
X87332Y-46587D01*
X87431Y-46588D01*
X87981Y-46588D01*
X88073Y-46550D01*
X88144Y-46479D01*
X88182Y-46387D01*
X88182Y-46300D01*
X88196Y-46335D01*
X88289Y-46360D01*
X88586Y-46062D01*
X88289Y-45765D01*
X88196Y-45790D01*
X88182Y-45831D01*
X88182Y-45738D01*
X88144Y-45646D01*
X88074Y-45576D01*
X88023Y-45555D01*
X88498Y-45555D01*
X88384Y-45602D01*
X88360Y-45695D01*
X88657Y-45992D01*
X88954Y-45695D01*
X88930Y-45602D01*
X88795Y-45555D01*
X89511Y-45555D01*
X89360Y-45617D01*
X89212Y-45765D01*
X89160Y-45891D01*
X89118Y-45790D01*
X89025Y-45765D01*
X88728Y-46062D01*
X89025Y-46360D01*
X89118Y-46335D01*
X89156Y-46225D01*
X89212Y-46359D01*
X89359Y-46507D01*
X89427Y-46536D01*
X89427Y-46536D01*
X89445Y-46562D01*
X89945Y-47062D01*
X89945Y-47062D01*
X90042Y-47127D01*
X90157Y-47150D01*
X90426Y-47150D01*
X90464Y-47187D01*
X90457Y-47187D01*
X89907Y-47187D01*
X89815Y-47225D01*
X89745Y-47295D01*
X89707Y-47387D01*
X89707Y-47487D01*
X89707Y-47592D01*
X89634Y-47415D01*
X89486Y-47267D01*
X89293Y-47187D01*
X89085Y-47187D01*
X88954Y-47241D01*
X88954Y-46430D01*
X88657Y-46133D01*
X88360Y-46430D01*
X88384Y-46523D01*
X88581Y-46592D01*
X88790Y-46581D01*
X88930Y-46523D01*
X88954Y-46430D01*
X88954Y-47241D01*
X88891Y-47267D01*
X88744Y-47414D01*
X88664Y-47607D01*
X88663Y-47816D01*
X88743Y-48009D01*
X88891Y-48157D01*
X89084Y-48237D01*
X89292Y-48237D01*
X89485Y-48157D01*
X89633Y-48010D01*
X89707Y-47833D01*
X89707Y-48037D01*
X89745Y-48129D01*
X89815Y-48199D01*
X89907Y-48237D01*
X90006Y-48237D01*
X90006Y-48237D01*
X89935Y-48267D01*
X89787Y-48414D01*
X89707Y-48607D01*
X89707Y-48816D01*
X89786Y-49009D01*
X89934Y-49157D01*
X90067Y-49212D01*
X89935Y-49267D01*
X89787Y-49414D01*
X89707Y-49607D01*
X89707Y-49816D01*
X89786Y-50009D01*
X89934Y-50157D01*
X90061Y-50209D01*
X89959Y-50252D01*
X89935Y-50344D01*
X90232Y-50641D01*
X90529Y-50344D01*
X90505Y-50252D01*
X90395Y-50213D01*
X90529Y-50157D01*
X90677Y-50010D01*
X90757Y-49817D01*
X90757Y-49608D01*
X90677Y-49415D01*
X90530Y-49267D01*
X90397Y-49212D01*
X90529Y-49157D01*
X90677Y-49010D01*
X90757Y-48817D01*
X90757Y-48608D01*
X90677Y-48415D01*
X90530Y-48267D01*
X90457Y-48237D01*
X90556Y-48237D01*
X90648Y-48199D01*
X90719Y-48129D01*
X90757Y-48037D01*
X90757Y-47938D01*
X90757Y-47480D01*
X91825Y-48549D01*
X91825Y-49606D01*
X91848Y-49721D01*
X91913Y-49818D01*
X92707Y-50611D01*
X92707Y-50816D01*
X92786Y-51009D01*
X92934Y-51157D01*
X93127Y-51237D01*
X93336Y-51237D01*
X93529Y-51157D01*
X93677Y-51010D01*
X93757Y-50817D01*
X93757Y-50608D01*
X93677Y-50415D01*
X93530Y-50267D01*
X93397Y-50212D01*
X93529Y-50157D01*
X93677Y-50010D01*
X93757Y-49817D01*
X93757Y-49608D01*
X93677Y-49415D01*
X93530Y-49267D01*
X93397Y-49212D01*
X93529Y-49157D01*
X93677Y-49010D01*
X93757Y-48817D01*
X93757Y-48608D01*
X93677Y-48415D01*
X93530Y-48267D01*
X93397Y-48212D01*
X93529Y-48157D01*
X93677Y-48010D01*
X93757Y-47817D01*
X93757Y-47608D01*
X93677Y-47415D01*
X93530Y-47267D01*
X93337Y-47187D01*
X93128Y-47187D01*
X92935Y-47267D01*
X92787Y-47414D01*
X92707Y-47607D01*
X92707Y-47794D01*
X91957Y-47045D01*
X91957Y-46505D01*
X92102Y-46360D01*
X92157Y-46227D01*
X92212Y-46359D01*
X92359Y-46507D01*
X92552Y-46587D01*
X92761Y-46588D01*
X92954Y-46508D01*
X93102Y-46360D01*
X93182Y-46167D01*
X93182Y-45959D01*
X93102Y-45765D01*
X92955Y-45618D01*
X92803Y-45555D01*
X93814Y-45555D01*
X93814Y-52870D01*
X93814Y-52870D01*
G37*
G54D17*
X93814Y-52870D02*
X93549Y-52870D01*
X93549Y-52438D01*
X93538Y-52229D01*
X93480Y-52089D01*
X93387Y-52065D01*
X93316Y-52135D01*
X93316Y-51994D01*
X93292Y-51901D01*
X93095Y-51832D01*
X92886Y-51843D01*
X92746Y-51901D01*
X92722Y-51994D01*
X93019Y-52291D01*
X93316Y-51994D01*
X93316Y-52135D01*
X93090Y-52362D01*
X93387Y-52659D01*
X93480Y-52635D01*
X93549Y-52438D01*
X93549Y-52870D01*
X93178Y-52870D01*
X93292Y-52822D01*
X93316Y-52729D01*
X93019Y-52432D01*
X92722Y-52729D01*
X92746Y-52822D01*
X92881Y-52870D01*
X92165Y-52870D01*
X92316Y-52807D01*
X92464Y-52659D01*
X92517Y-52533D01*
X92559Y-52635D01*
X92651Y-52659D01*
X92948Y-52362D01*
X92651Y-52065D01*
X92559Y-52089D01*
X92520Y-52199D01*
X92465Y-52065D01*
X92317Y-51917D01*
X92124Y-51837D01*
X91915Y-51837D01*
X91722Y-51916D01*
X91574Y-52064D01*
X91494Y-52257D01*
X91494Y-52466D01*
X91574Y-52659D01*
X91721Y-52807D01*
X91873Y-52870D01*
X91187Y-52870D01*
X91187Y-52438D01*
X91176Y-52229D01*
X91118Y-52089D01*
X91025Y-52065D01*
X90954Y-52135D01*
X90954Y-51994D01*
X90930Y-51901D01*
X90762Y-51842D01*
X90762Y-50788D01*
X90750Y-50579D01*
X90692Y-50439D01*
X90600Y-50415D01*
X90302Y-50712D01*
X90600Y-51009D01*
X90692Y-50985D01*
X90762Y-50788D01*
X90762Y-51842D01*
X90733Y-51832D01*
X90529Y-51843D01*
X90529Y-51080D01*
X90232Y-50783D01*
X90161Y-50854D01*
X90161Y-50712D01*
X89864Y-50415D01*
X89771Y-50439D01*
X89713Y-50606D01*
X89634Y-50415D01*
X89486Y-50267D01*
X89293Y-50187D01*
X89085Y-50187D01*
X88891Y-50267D01*
X88744Y-50414D01*
X88664Y-50607D01*
X88663Y-50816D01*
X88743Y-51009D01*
X88891Y-51157D01*
X89084Y-51237D01*
X89292Y-51237D01*
X89485Y-51157D01*
X89633Y-51010D01*
X89712Y-50821D01*
X89713Y-50845D01*
X89771Y-50985D01*
X89864Y-51009D01*
X90161Y-50712D01*
X90161Y-50854D01*
X89935Y-51080D01*
X89959Y-51173D01*
X90156Y-51242D01*
X90365Y-51231D01*
X90505Y-51173D01*
X90529Y-51080D01*
X90529Y-51843D01*
X90524Y-51843D01*
X90384Y-51901D01*
X90360Y-51994D01*
X90657Y-52291D01*
X90954Y-51994D01*
X90954Y-52135D01*
X90728Y-52362D01*
X91025Y-52659D01*
X91118Y-52635D01*
X91187Y-52438D01*
X91187Y-52870D01*
X90816Y-52870D01*
X90930Y-52822D01*
X90954Y-52729D01*
X90657Y-52432D01*
X90360Y-52729D01*
X90384Y-52822D01*
X90519Y-52870D01*
X90023Y-52870D01*
X90073Y-52849D01*
X90144Y-52779D01*
X90182Y-52687D01*
X90182Y-52600D01*
X90196Y-52635D01*
X90289Y-52659D01*
X90586Y-52362D01*
X90289Y-52065D01*
X90196Y-52089D01*
X90182Y-52130D01*
X90182Y-52037D01*
X90144Y-51945D01*
X90074Y-51875D01*
X89982Y-51837D01*
X89882Y-51837D01*
X89332Y-51837D01*
X89241Y-51875D01*
X89170Y-51945D01*
X89132Y-52037D01*
X89132Y-52136D01*
X89132Y-52686D01*
X89170Y-52778D01*
X89240Y-52849D01*
X89291Y-52870D01*
X87718Y-52870D01*
X87718Y-50788D01*
X87718Y-47788D01*
X87707Y-47579D01*
X87649Y-47439D01*
X87556Y-47415D01*
X87486Y-47486D01*
X87486Y-47344D01*
X87461Y-47252D01*
X87264Y-47182D01*
X87056Y-47194D01*
X86916Y-47252D01*
X86891Y-47344D01*
X87188Y-47641D01*
X87486Y-47344D01*
X87486Y-47486D01*
X87259Y-47712D01*
X87556Y-48009D01*
X87649Y-47985D01*
X87718Y-47788D01*
X87718Y-50788D01*
X87707Y-50579D01*
X87649Y-50439D01*
X87556Y-50415D01*
X87486Y-50486D01*
X87486Y-50344D01*
X87486Y-48080D01*
X87188Y-47783D01*
X87118Y-47854D01*
X87118Y-47712D01*
X86821Y-47415D01*
X86728Y-47439D01*
X86659Y-47636D01*
X86670Y-47845D01*
X86728Y-47985D01*
X86821Y-48009D01*
X87118Y-47712D01*
X87118Y-47854D01*
X86891Y-48080D01*
X86916Y-48173D01*
X87113Y-48242D01*
X87321Y-48231D01*
X87461Y-48173D01*
X87486Y-48080D01*
X87486Y-50344D01*
X87461Y-50252D01*
X87264Y-50182D01*
X87056Y-50194D01*
X86916Y-50252D01*
X86891Y-50344D01*
X87188Y-50641D01*
X87486Y-50344D01*
X87486Y-50486D01*
X87259Y-50712D01*
X87556Y-51009D01*
X87649Y-50985D01*
X87718Y-50788D01*
X87718Y-52870D01*
X87486Y-52870D01*
X87486Y-51080D01*
X87188Y-50783D01*
X87118Y-50854D01*
X87118Y-50712D01*
X86821Y-50415D01*
X86728Y-50439D01*
X86659Y-50636D01*
X86670Y-50845D01*
X86728Y-50985D01*
X86821Y-51009D01*
X87118Y-50712D01*
X87118Y-50854D01*
X86891Y-51080D01*
X86916Y-51173D01*
X87113Y-51242D01*
X87321Y-51231D01*
X87461Y-51173D01*
X87486Y-51080D01*
X87486Y-52870D01*
X86500Y-52870D01*
X86500Y-45555D01*
X87291Y-45555D01*
X87241Y-45575D01*
X87170Y-45646D01*
X87132Y-45738D01*
X87132Y-45837D01*
X87132Y-46387D01*
X87170Y-46479D01*
X87240Y-46549D01*
X87332Y-46587D01*
X87431Y-46588D01*
X87981Y-46588D01*
X88073Y-46550D01*
X88144Y-46479D01*
X88182Y-46387D01*
X88182Y-46300D01*
X88196Y-46335D01*
X88289Y-46360D01*
X88586Y-46062D01*
X88289Y-45765D01*
X88196Y-45790D01*
X88182Y-45831D01*
X88182Y-45738D01*
X88144Y-45646D01*
X88074Y-45576D01*
X88023Y-45555D01*
X88498Y-45555D01*
X88384Y-45602D01*
X88360Y-45695D01*
X88657Y-45992D01*
X88954Y-45695D01*
X88930Y-45602D01*
X88795Y-45555D01*
X89511Y-45555D01*
X89360Y-45617D01*
X89212Y-45765D01*
X89160Y-45891D01*
X89118Y-45790D01*
X89025Y-45765D01*
X88728Y-46062D01*
X89025Y-46360D01*
X89118Y-46335D01*
X89156Y-46225D01*
X89212Y-46359D01*
X89359Y-46507D01*
X89427Y-46536D01*
X89427Y-46536D01*
X89445Y-46562D01*
X89945Y-47062D01*
X89945Y-47062D01*
X90042Y-47127D01*
X90157Y-47150D01*
X90426Y-47150D01*
X90464Y-47187D01*
X90457Y-47187D01*
X89907Y-47187D01*
X89815Y-47225D01*
X89745Y-47295D01*
X89707Y-47387D01*
X89707Y-47487D01*
X89707Y-47592D01*
X89634Y-47415D01*
X89486Y-47267D01*
X89293Y-47187D01*
X89085Y-47187D01*
X88954Y-47241D01*
X88954Y-46430D01*
X88657Y-46133D01*
X88360Y-46430D01*
X88384Y-46523D01*
X88581Y-46592D01*
X88790Y-46581D01*
X88930Y-46523D01*
X88954Y-46430D01*
X88954Y-47241D01*
X88891Y-47267D01*
X88744Y-47414D01*
X88664Y-47607D01*
X88663Y-47816D01*
X88743Y-48009D01*
X88891Y-48157D01*
X89084Y-48237D01*
X89292Y-48237D01*
X89485Y-48157D01*
X89633Y-48010D01*
X89707Y-47833D01*
X89707Y-48037D01*
X89745Y-48129D01*
X89815Y-48199D01*
X89907Y-48237D01*
X90006Y-48237D01*
X90006Y-48237D01*
X89935Y-48267D01*
X89787Y-48414D01*
X89707Y-48607D01*
X89707Y-48816D01*
X89786Y-49009D01*
X89934Y-49157D01*
X90067Y-49212D01*
X89935Y-49267D01*
X89787Y-49414D01*
X89707Y-49607D01*
X89707Y-49816D01*
X89786Y-50009D01*
X89934Y-50157D01*
X90061Y-50209D01*
X89959Y-50252D01*
X89935Y-50344D01*
X90232Y-50641D01*
X90529Y-50344D01*
X90505Y-50252D01*
X90395Y-50213D01*
X90529Y-50157D01*
X90677Y-50010D01*
X90757Y-49817D01*
X90757Y-49608D01*
X90677Y-49415D01*
X90530Y-49267D01*
X90397Y-49212D01*
X90529Y-49157D01*
X90677Y-49010D01*
X90757Y-48817D01*
X90757Y-48608D01*
X90677Y-48415D01*
X90530Y-48267D01*
X90457Y-48237D01*
X90556Y-48237D01*
X90648Y-48199D01*
X90719Y-48129D01*
X90757Y-48037D01*
X90757Y-47938D01*
X90757Y-47480D01*
X91825Y-48549D01*
X91825Y-49606D01*
X91848Y-49721D01*
X91913Y-49818D01*
X92707Y-50611D01*
X92707Y-50816D01*
X92786Y-51009D01*
X92934Y-51157D01*
X93127Y-51237D01*
X93336Y-51237D01*
X93529Y-51157D01*
X93677Y-51010D01*
X93757Y-50817D01*
X93757Y-50608D01*
X93677Y-50415D01*
X93530Y-50267D01*
X93397Y-50212D01*
X93529Y-50157D01*
X93677Y-50010D01*
X93757Y-49817D01*
X93757Y-49608D01*
X93677Y-49415D01*
X93530Y-49267D01*
X93397Y-49212D01*
X93529Y-49157D01*
X93677Y-49010D01*
X93757Y-48817D01*
X93757Y-48608D01*
X93677Y-48415D01*
X93530Y-48267D01*
X93397Y-48212D01*
X93529Y-48157D01*
X93677Y-48010D01*
X93757Y-47817D01*
X93757Y-47608D01*
X93677Y-47415D01*
X93530Y-47267D01*
X93337Y-47187D01*
X93128Y-47187D01*
X92935Y-47267D01*
X92787Y-47414D01*
X92707Y-47607D01*
X92707Y-47794D01*
X91957Y-47045D01*
X91957Y-46505D01*
X92102Y-46360D01*
X92157Y-46227D01*
X92212Y-46359D01*
X92359Y-46507D01*
X92552Y-46587D01*
X92761Y-46588D01*
X92954Y-46508D01*
X93102Y-46360D01*
X93182Y-46167D01*
X93182Y-45959D01*
X93102Y-45765D01*
X92955Y-45618D01*
X92803Y-45555D01*
X93814Y-45555D01*
X93814Y-52870D01*
G54D10*
G36*
X89446Y-44996D02*
X88881Y-44996D01*
X88945Y-44969D01*
X88972Y-44874D01*
X88657Y-44558D01*
X88342Y-44874D01*
X88369Y-44969D01*
X88444Y-44996D01*
X88103Y-44996D01*
X88169Y-44929D01*
X88207Y-44838D01*
X88207Y-44785D01*
X88271Y-44803D01*
X88586Y-44488D01*
X88581Y-44482D01*
X88651Y-44411D01*
X88657Y-44417D01*
X88663Y-44411D01*
X88733Y-44482D01*
X88728Y-44488D01*
X89043Y-44803D01*
X89138Y-44776D01*
X89158Y-44720D01*
X89190Y-44799D01*
X89345Y-44954D01*
X89446Y-44996D01*
X89446Y-44996D01*
G37*
G54D17*
X89446Y-44996D02*
X88881Y-44996D01*
X88945Y-44969D01*
X88972Y-44874D01*
X88657Y-44558D01*
X88342Y-44874D01*
X88369Y-44969D01*
X88444Y-44996D01*
X88103Y-44996D01*
X88169Y-44929D01*
X88207Y-44838D01*
X88207Y-44785D01*
X88271Y-44803D01*
X88586Y-44488D01*
X88581Y-44482D01*
X88651Y-44411D01*
X88657Y-44417D01*
X88663Y-44411D01*
X88733Y-44482D01*
X88728Y-44488D01*
X89043Y-44803D01*
X89138Y-44776D01*
X89158Y-44720D01*
X89190Y-44799D01*
X89345Y-44954D01*
X89446Y-44996D01*
G54D10*
G36*
X89759Y-40228D02*
X89750Y-40224D01*
X89598Y-40224D01*
X89598Y-40073D01*
X89533Y-39917D01*
X89414Y-39797D01*
X89258Y-39732D01*
X89089Y-39732D01*
X88972Y-39780D01*
X88972Y-34637D01*
X88657Y-34322D01*
X88342Y-34637D01*
X88369Y-34733D01*
X88575Y-34806D01*
X88794Y-34795D01*
X88945Y-34733D01*
X88972Y-34637D01*
X88972Y-39780D01*
X88932Y-39796D01*
X88813Y-39916D01*
X88748Y-40072D01*
X88748Y-40241D01*
X88812Y-40397D01*
X88873Y-40458D01*
X88873Y-41115D01*
X88665Y-41323D01*
X88600Y-41420D01*
X88577Y-41535D01*
X88577Y-42198D01*
X88091Y-42685D01*
X88006Y-42685D01*
X87986Y-42693D01*
X87986Y-42118D01*
X87986Y-39952D01*
X87986Y-37787D01*
X87986Y-35622D01*
X87986Y-34802D01*
X88006Y-34802D01*
X88098Y-34764D01*
X88169Y-34693D01*
X88207Y-34601D01*
X88207Y-34548D01*
X88271Y-34567D01*
X88586Y-34251D01*
X88271Y-33936D01*
X88207Y-33955D01*
X88207Y-33902D01*
X88169Y-33810D01*
X88103Y-33744D01*
X88433Y-33744D01*
X88369Y-33770D01*
X88342Y-33866D01*
X88657Y-34181D01*
X88972Y-33866D01*
X88945Y-33770D01*
X88870Y-33744D01*
X89446Y-33744D01*
X89346Y-33785D01*
X89191Y-33940D01*
X89160Y-34015D01*
X89138Y-33964D01*
X89043Y-33936D01*
X88728Y-34251D01*
X89043Y-34567D01*
X89138Y-34539D01*
X89158Y-34484D01*
X89190Y-34563D01*
X89345Y-34717D01*
X89357Y-34722D01*
X89357Y-35523D01*
X89380Y-35638D01*
X89445Y-35735D01*
X89759Y-36049D01*
X89759Y-40228D01*
X89759Y-40228D01*
G37*
G54D17*
X89759Y-40228D02*
X89750Y-40224D01*
X89598Y-40224D01*
X89598Y-40073D01*
X89533Y-39917D01*
X89414Y-39797D01*
X89258Y-39732D01*
X89089Y-39732D01*
X88972Y-39780D01*
X88972Y-34637D01*
X88657Y-34322D01*
X88342Y-34637D01*
X88369Y-34733D01*
X88575Y-34806D01*
X88794Y-34795D01*
X88945Y-34733D01*
X88972Y-34637D01*
X88972Y-39780D01*
X88932Y-39796D01*
X88813Y-39916D01*
X88748Y-40072D01*
X88748Y-40241D01*
X88812Y-40397D01*
X88873Y-40458D01*
X88873Y-41115D01*
X88665Y-41323D01*
X88600Y-41420D01*
X88577Y-41535D01*
X88577Y-42198D01*
X88091Y-42685D01*
X88006Y-42685D01*
X87986Y-42693D01*
X87986Y-42118D01*
X87986Y-39952D01*
X87986Y-37787D01*
X87986Y-35622D01*
X87986Y-34802D01*
X88006Y-34802D01*
X88098Y-34764D01*
X88169Y-34693D01*
X88207Y-34601D01*
X88207Y-34548D01*
X88271Y-34567D01*
X88586Y-34251D01*
X88271Y-33936D01*
X88207Y-33955D01*
X88207Y-33902D01*
X88169Y-33810D01*
X88103Y-33744D01*
X88433Y-33744D01*
X88369Y-33770D01*
X88342Y-33866D01*
X88657Y-34181D01*
X88972Y-33866D01*
X88945Y-33770D01*
X88870Y-33744D01*
X89446Y-33744D01*
X89346Y-33785D01*
X89191Y-33940D01*
X89160Y-34015D01*
X89138Y-33964D01*
X89043Y-33936D01*
X88728Y-34251D01*
X89043Y-34567D01*
X89138Y-34539D01*
X89158Y-34484D01*
X89190Y-34563D01*
X89345Y-34717D01*
X89357Y-34722D01*
X89357Y-35523D01*
X89380Y-35638D01*
X89445Y-35735D01*
X89759Y-36049D01*
X89759Y-40228D01*
G54D10*
G36*
X92979Y-36072D02*
X92957Y-36072D01*
X92865Y-36109D01*
X92795Y-36180D01*
X92757Y-36272D01*
X92757Y-36367D01*
X92693Y-36409D01*
X92405Y-36697D01*
X92340Y-36794D01*
X92318Y-36909D01*
X92318Y-38385D01*
X92340Y-38500D01*
X92405Y-38597D01*
X92587Y-38779D01*
X92405Y-38961D01*
X92340Y-39058D01*
X92318Y-39173D01*
X92318Y-40649D01*
X92340Y-40764D01*
X92405Y-40861D01*
X92496Y-40952D01*
X92405Y-41043D01*
X92340Y-41141D01*
X92318Y-41255D01*
X92318Y-41437D01*
X92318Y-42198D01*
X92296Y-42219D01*
X92182Y-42219D01*
X92037Y-42074D01*
X91845Y-41994D01*
X91636Y-41994D01*
X91443Y-42074D01*
X91295Y-42221D01*
X91242Y-42348D01*
X91200Y-42246D01*
X91107Y-42222D01*
X91037Y-42293D01*
X91037Y-42151D01*
X91012Y-42059D01*
X90815Y-41989D01*
X90607Y-42001D01*
X90467Y-42059D01*
X90443Y-42151D01*
X90740Y-42448D01*
X91037Y-42151D01*
X91037Y-42293D01*
X90810Y-42519D01*
X91107Y-42816D01*
X91200Y-42792D01*
X91239Y-42682D01*
X91294Y-42816D01*
X91442Y-42964D01*
X91635Y-43044D01*
X91844Y-43044D01*
X92037Y-42965D01*
X92182Y-42819D01*
X92296Y-42819D01*
X92318Y-42840D01*
X92318Y-42913D01*
X92340Y-43028D01*
X92395Y-43110D01*
X92395Y-43110D01*
X92340Y-43192D01*
X92318Y-43307D01*
X92318Y-43478D01*
X92296Y-43499D01*
X91037Y-43499D01*
X91037Y-42887D01*
X90740Y-42590D01*
X90443Y-42887D01*
X90467Y-42980D01*
X90664Y-43049D01*
X90872Y-43038D01*
X91012Y-42980D01*
X91037Y-42887D01*
X91037Y-43499D01*
X89995Y-43499D01*
X90271Y-43223D01*
X90271Y-43223D01*
X90336Y-43126D01*
X90359Y-43011D01*
X90359Y-43011D01*
X90359Y-42813D01*
X90372Y-42816D01*
X90669Y-42519D01*
X90372Y-42222D01*
X90359Y-42226D01*
X90359Y-41954D01*
X91239Y-41074D01*
X91324Y-41074D01*
X91480Y-41010D01*
X91600Y-40890D01*
X91665Y-40734D01*
X91665Y-40565D01*
X91600Y-40409D01*
X91481Y-40289D01*
X91325Y-40224D01*
X91155Y-40224D01*
X91146Y-40228D01*
X91146Y-39041D01*
X91253Y-39086D01*
X91422Y-39086D01*
X91579Y-39021D01*
X91698Y-38902D01*
X91763Y-38746D01*
X91763Y-38577D01*
X91699Y-38420D01*
X91638Y-38360D01*
X91638Y-37053D01*
X92769Y-35922D01*
X92835Y-35922D01*
X92840Y-35933D01*
X92979Y-36072D01*
X92979Y-36072D01*
G37*
G54D17*
X92979Y-36072D02*
X92957Y-36072D01*
X92865Y-36109D01*
X92795Y-36180D01*
X92757Y-36272D01*
X92757Y-36367D01*
X92693Y-36409D01*
X92405Y-36697D01*
X92340Y-36794D01*
X92318Y-36909D01*
X92318Y-38385D01*
X92340Y-38500D01*
X92405Y-38597D01*
X92587Y-38779D01*
X92405Y-38961D01*
X92340Y-39058D01*
X92318Y-39173D01*
X92318Y-40649D01*
X92340Y-40764D01*
X92405Y-40861D01*
X92496Y-40952D01*
X92405Y-41043D01*
X92340Y-41141D01*
X92318Y-41255D01*
X92318Y-41437D01*
X92318Y-42198D01*
X92296Y-42219D01*
X92182Y-42219D01*
X92037Y-42074D01*
X91845Y-41994D01*
X91636Y-41994D01*
X91443Y-42074D01*
X91295Y-42221D01*
X91242Y-42348D01*
X91200Y-42246D01*
X91107Y-42222D01*
X91037Y-42293D01*
X91037Y-42151D01*
X91012Y-42059D01*
X90815Y-41989D01*
X90607Y-42001D01*
X90467Y-42059D01*
X90443Y-42151D01*
X90740Y-42448D01*
X91037Y-42151D01*
X91037Y-42293D01*
X90810Y-42519D01*
X91107Y-42816D01*
X91200Y-42792D01*
X91239Y-42682D01*
X91294Y-42816D01*
X91442Y-42964D01*
X91635Y-43044D01*
X91844Y-43044D01*
X92037Y-42965D01*
X92182Y-42819D01*
X92296Y-42819D01*
X92318Y-42840D01*
X92318Y-42913D01*
X92340Y-43028D01*
X92395Y-43110D01*
X92395Y-43110D01*
X92340Y-43192D01*
X92318Y-43307D01*
X92318Y-43478D01*
X92296Y-43499D01*
X91037Y-43499D01*
X91037Y-42887D01*
X90740Y-42590D01*
X90443Y-42887D01*
X90467Y-42980D01*
X90664Y-43049D01*
X90872Y-43038D01*
X91012Y-42980D01*
X91037Y-42887D01*
X91037Y-43499D01*
X89995Y-43499D01*
X90271Y-43223D01*
X90271Y-43223D01*
X90336Y-43126D01*
X90359Y-43011D01*
X90359Y-43011D01*
X90359Y-42813D01*
X90372Y-42816D01*
X90669Y-42519D01*
X90372Y-42222D01*
X90359Y-42226D01*
X90359Y-41954D01*
X91239Y-41074D01*
X91324Y-41074D01*
X91480Y-41010D01*
X91600Y-40890D01*
X91665Y-40734D01*
X91665Y-40565D01*
X91600Y-40409D01*
X91481Y-40289D01*
X91325Y-40224D01*
X91155Y-40224D01*
X91146Y-40228D01*
X91146Y-39041D01*
X91253Y-39086D01*
X91422Y-39086D01*
X91579Y-39021D01*
X91698Y-38902D01*
X91763Y-38746D01*
X91763Y-38577D01*
X91699Y-38420D01*
X91638Y-38360D01*
X91638Y-37053D01*
X92769Y-35922D01*
X92835Y-35922D01*
X92840Y-35933D01*
X92979Y-36072D01*
M02*
