G04 (created by PCBNEW (2013-04-19 BZR 4011)-stable) date 9/19/2013 12:32:27 AM*
%MOIN*%
G04 Gerber Fmt 3.4, Leading zero omitted, Abs format*
%FSLAX34Y34*%
G01*
G70*
G90*
G04 APERTURE LIST*
%ADD10C,0.00393701*%
%ADD11R,0.095748X0.075748*%
%ADD12R,0.070748X0.070748*%
%ADD13C,0.070748*%
%ADD14R,0.075748X0.075748*%
%ADD15C,0.075748*%
G04 APERTURE END LIST*
G54D10*
G54D11*
X84251Y-36850D03*
X84251Y-38150D03*
X84251Y-41180D03*
X84251Y-42480D03*
X84251Y-45511D03*
X84251Y-46811D03*
X84251Y-49842D03*
X84251Y-51142D03*
G54D12*
X83751Y-34645D03*
G54D13*
X84751Y-34645D03*
G54D11*
X80314Y-36850D03*
X80314Y-38150D03*
X80314Y-41180D03*
X80314Y-42480D03*
X80314Y-45511D03*
X80314Y-46811D03*
X80314Y-49842D03*
X80314Y-51142D03*
G54D12*
X79814Y-34645D03*
G54D13*
X80814Y-34645D03*
G54D11*
X76377Y-36850D03*
X76377Y-38150D03*
X76377Y-41180D03*
X76377Y-42480D03*
X76377Y-45511D03*
X76377Y-46811D03*
X76377Y-49842D03*
X76377Y-51142D03*
G54D12*
X75877Y-34645D03*
G54D13*
X76877Y-34645D03*
X87188Y-47712D03*
X89188Y-47712D03*
X87188Y-50712D03*
X89188Y-50712D03*
G54D12*
X87657Y-46062D03*
G54D13*
X88657Y-46062D03*
X89657Y-46062D03*
X90657Y-46062D03*
X91657Y-46062D03*
X92657Y-46062D03*
G54D12*
X89657Y-52362D03*
G54D13*
X90657Y-52362D03*
G54D12*
X90232Y-47712D03*
G54D13*
X90232Y-48712D03*
X90232Y-49712D03*
X90232Y-50712D03*
X93232Y-50712D03*
X93232Y-49712D03*
X93232Y-48712D03*
X93232Y-47712D03*
X92019Y-52362D03*
X93019Y-52362D03*
G54D14*
X93307Y-43118D03*
G54D15*
X93307Y-42118D03*
G54D14*
X93307Y-40952D03*
G54D15*
X93307Y-39952D03*
G54D14*
X93307Y-38787D03*
G54D15*
X93307Y-37787D03*
G54D14*
X93307Y-36622D03*
G54D15*
X93307Y-35622D03*
G54D14*
X87007Y-35622D03*
G54D15*
X87007Y-36622D03*
G54D14*
X87007Y-37787D03*
G54D15*
X87007Y-38787D03*
G54D14*
X87007Y-39952D03*
G54D15*
X87007Y-40952D03*
G54D14*
X87007Y-42118D03*
G54D15*
X87007Y-43118D03*
G54D14*
X87657Y-44488D03*
G54D15*
X88657Y-44488D03*
X89657Y-44488D03*
X90657Y-44488D03*
X91657Y-44488D03*
X92657Y-44488D03*
G54D14*
X87657Y-34251D03*
G54D15*
X88657Y-34251D03*
X89657Y-34251D03*
X90657Y-34251D03*
X91657Y-34251D03*
X92657Y-34251D03*
G54D13*
X90740Y-42519D03*
X91740Y-42519D03*
M02*
